<?xml version="1.0" encoding="UTF-8" standalone="no"?>
<svg
   id="Capa_1"
   enable-background="new 0 0 510 510"
   height="512"
   viewBox="0 0 510 510"
   width="512"
   version="1.1"
   xmlns="http://www.w3.org/2000/svg"
   xmlns:svg="http://www.w3.org/2000/svg">
  <defs
     id="defs33848" />
  <g
     id="g33843">
    <path
       d="m120 90h120v30h-120z"
       id="path33829" />
    <path
       d="m120 150h135v30h-135z"
       id="path33831" />
    <path
       d="m120 210h120v30h-120z"
       id="path33833" />
    <path
       d="m120 270h120v30h-120z"
       id="path33835" />
    <path
       d="m120 330h120v30h-120z"
       id="path33837" />
    <path
       d="m510 270c0-61.089-45.886-111.66-105-119.064v-52.149l-98.787-98.787h-246.213v30h-60v480h375v-60h30v-60.935c59.114-7.405 105-57.976 105-119.065zm-195-218.787 38.787 38.787h-38.787zm30 428.787h-315v-420h30v390h285zm-255-60v-390h195v90h90v30.936c-59.114 7.404-105 57.975-105 119.064s45.886 111.66 105 119.065v30.935zm300-60c-49.626 0-90-40.374-90-90s40.374-90 90-90 90 40.374 90 90-40.374 90-90 90z"
       id="path33839" />
    <path
       d="m375 278.787-19.394-19.393-21.212 21.212 40.606 40.607 70.606-70.607-21.212-21.212z"
       id="path33841" />
  </g>
  <path
     style="fill:#3d3f94;stroke-width:0.615385"
     d="M -0.30769231,271.07692 V 30.153846 H 29.846154 60 V 15.076923 0 h 123.84759 123.84759 l 49.38318,49.38604 49.38318,49.38604 v 26.19175 26.19175 l 8.22404,1.62807 c 45.51917,9.01119 81.94843,43.30769 93.56502,88.08723 2.62912,10.13473 3.67557,18.73449 3.67557,30.20604 0,19.45083 -3.53386,34.96291 -11.91639,52.3077 -8.31791,17.21108 -20.63843,32.28507 -35.5986,43.5544 -16.75511,12.62145 -34.44989,20.09921 -55.64195,23.51412 l -2.30769,0.37186 v 30.43365 30.43366 H 391.69231 376.92308 V 481.84615 512 H 188.30769 -0.30769231 Z M 346.15385,466.76923 V 451.69231 H 203.07692 60 V 256 60.307692 H 45.230769 30.461538 V 271.07692 481.84615 H 188.30769 346.15385 Z m 30.15384,-60.61538 c 0,-8.46154 -0.1729,-15.38462 -0.38422,-15.38462 -0.21132,0 -3.78255,-0.68809 -7.93605,-1.52908 -37.1728,-7.52664 -68.45531,-31.76304 -84.88684,-65.76683 -7.95709,-16.46658 -11.27653,-30.0404 -11.84811,-48.44917 -0.65272,-21.0219 2.89357,-37.92685 11.80107,-56.25492 9.76601,-20.09456 23.8916,-36.21229 42.48492,-48.47661 C 339.40838,161.1439 356.96471,154.40686 374,151.69606 l 2.30769,-0.36722 V 135.97212 120.61538 H 331.07692 285.84615 V 75.384615 30.153846 H 188.30769 90.769231 V 225.84615 421.53846 H 233.53846 376.30769 Z m 33.35323,-46.75187 c 51.51041,-10.87911 82.88467,-62.83265 68.47246,-113.38552 -13.1232,-46.03148 -61.17497,-73.86183 -107.97953,-62.53897 -34.32995,8.30503 -61.07489,36.86212 -67.50341,72.07724 -1.41605,7.75703 -1.39318,23.34139 0.0458,31.2145 3.38339,18.51153 11.59486,34.02835 25.27025,47.75199 15.47285,15.52743 30.82275,22.90709 54.80274,26.34711 4.5597,0.6541 21.12979,-0.24943 26.89169,-1.46635 z M 354.76923,90.303969 c 0,-0.08666 -8.58461,-8.738831 -19.07692,-19.227046 L 316.61538,52.007445 v 19.227047 19.227046 h 19.07693 c 10.49231,0 19.07692,-0.0709 19.07692,-0.157569 z"
     id="path33887"
     transform="scale(0.99609375)" />
  <path
     style="fill:#3d3f94;stroke-width:0.615385"
     d="M 120.30769,105.53846 V 90.461538 h 60.30769 60.3077 v 15.076922 15.07692 h -60.3077 -60.30769 z"
     id="path33926"
     transform="scale(0.99609375)" />
  <path
     style="fill:#3d3f94;stroke-width:0.615385"
     d="m 120.45079,165.69231 0.16459,-15.23077 H 188.30769 256 l 0.1646,15.23077 0.16459,15.23077 h -68.0215 -68.0215 z"
     id="path33965"
     transform="scale(0.99609375)" />
  <path
     style="fill:#3d3f94;stroke-width:0.615385"
     d="m 120.30769,225.84615 v -15.38461 h 60.30769 60.3077 v 15.38461 15.38462 h -60.3077 -60.30769 z"
     id="path34004"
     transform="scale(0.99609375)" />
  <path
     style="fill:#3d3f94;stroke-width:0.615385"
     d="m 120.30769,286.15385 v -15.38462 h 60.30769 60.3077 v 15.38462 15.38461 h -60.3077 -60.30769 z"
     id="path34043"
     transform="scale(0.99609375)" />
  <path
     style="fill:#3d3f94;stroke-width:0.615385"
     d="m 120.71795,361.4359 c -0.22564,-0.22564 -0.41026,-7.14872 -0.41026,-15.38462 v -14.97436 h 60.30769 60.3077 v 15.38462 15.38461 h -59.89744 c -32.94359,0 -60.08205,-0.18461 -60.30769,-0.41025 z"
     id="path34082"
     transform="scale(0.99609375)" />
  <path
     style="fill:#3d3f94;stroke-width:0.615385"
     d="m 355.69386,302.1554 -20.29915,-20.30615 10.75739,-10.77057 10.75738,-10.77058 9.70129,9.68707 9.70129,9.68707 24.77176,-24.76609 24.77174,-24.76609 10.76023,10.77342 10.76022,10.77342 -35.37831,35.38232 c -19.45806,19.46028 -35.51924,35.38232 -35.6915,35.38232 -0.17226,0 -9.44781,-9.13777 -20.61234,-20.30614 z"
     id="path34121"
     transform="scale(0.99609375)" />
</svg>
