<?xml version="1.0" encoding="UTF-8" standalone="no"?>
<!-- Generator: Adobe Illustrator 19.0.0, SVG Export Plug-In . SVG Version: 6.00 Build 0)  -->

<svg
   version="1.1"
   id="Capa_1"
   x="0px"
   y="0px"
   viewBox="0 0 512 512"
   style="enable-background:new 0 0 512 512;"
   xml:space="preserve"
   xmlns="http://www.w3.org/2000/svg"
   xmlns:svg="http://www.w3.org/2000/svg"><defs
   id="defs34258" />
<g
   id="g34223">
	<g
   id="g34221">
		<path
   d="M506.552,317.933c-9.739-14.312-29.351-18.1-43.707-8.452l-65.34,43.728l-0.19-136.11l22.7,21.265    c4.827,4.521,11.121,7.009,17.729,7.009c0.012,0,0.026,0,0.039,0c7.134-0.01,14.022-3,18.898-8.205    c4.737-5.057,7.222-11.655,6.996-18.581c-0.226-6.926-3.136-13.349-8.193-18.086l-43.035-40.314    c-2.946-2.76-7.571-2.609-10.33,0.337c-2.759,2.946-2.608,7.57,0.337,10.33l43.035,40.314c2.208,2.068,3.478,4.872,3.577,7.895    c0.098,3.023-0.986,5.904-3.055,8.111c-2.16,2.306-5.09,3.578-8.252,3.582c-0.006,0-0.011,0-0.017,0    c-2.883,0-5.63-1.086-7.737-3.06c-0.001-0.001-0.001-0.001-0.001-0.001L259.124,67.616c-2.816-2.637-7.198-2.633-10.007,0.014    L78.679,228.188c-2.201,2.074-5.079,3.16-8.103,3.076c-3.024-0.09-5.831-1.353-7.905-3.556c-2.074-2.201-3.167-5.079-3.076-8.102    c0.09-3.024,1.353-5.831,3.554-7.905L246.326,39.143c4.342-4.091,11.154-4.101,15.507-0.021L369,139.514    c2.945,2.759,7.57,2.609,10.33-0.337c2.759-2.946,2.608-7.57-0.337-10.33L271.827,28.455c-9.973-9.344-25.576-9.323-35.523,0.049    l-58.639,55.24l-0.016-9.853c-0.004-3.106-1.218-6.024-3.417-8.216c-2.195-2.189-5.109-3.394-8.209-3.394    c-0.006,0-0.011,0-0.017,0l-41.947,0.059c-3.106,0.004-6.023,1.218-8.216,3.417c-2.192,2.199-3.398,5.12-3.393,8.227l0.116,71.087    l-59.439,55.993c-5.044,4.751-7.935,11.182-8.142,18.108c-0.207,6.926,2.296,13.518,7.047,18.56    c4.75,5.044,11.181,7.936,18.108,8.143c0.265,0.008,0.53,0.012,0.795,0.012c6.635,0,12.918-2.49,17.767-7.06l22.649-21.336    l0.09,64.291c-7.328-1.067-14.742-1.627-22.19-1.627H76.746v-4.382c0-14.711-11.969-26.68-26.68-26.68H26.68    C11.969,249.092,0,261.06,0,275.772V390.29c0,4.036,3.272,7.308,7.308,7.308s7.308-3.272,7.308-7.308V275.772    c0-6.652,5.412-12.064,12.064-12.064h23.385c6.652,0,12.064,5.412,12.064,12.064v11.69v149.796v11.575    c0,6.652-5.412,12.064-12.064,12.064H26.68c-6.652,0-12.064-5.412-12.064-12.064v-12.788c0-4.036-3.272-7.308-7.308-7.308    S0,432.009,0,436.045v12.788c0,14.711,11.969,26.68,26.68,26.68h23.385c14.711,0,26.68-11.968,26.68-26.68v-0.993l107.024,40.528    c0.198,0.075,0.399,0.141,0.603,0.198c4.653,1.314,9.304,1.973,13.896,1.973c2.484,0,4.951-0.193,7.393-0.579l157.281-22.672    c0.037-0.005,0.073-0.011,0.11-0.017c13.372-2.135,25.987-7.788,36.48-16.346c0.091-0.074,0.181-0.151,0.268-0.23l101.611-91.388    C513.244,348.802,515.453,331.015,506.552,317.933z M163.037,76.902l0.034,20.59l-35.912,33.83l-0.089-54.371L163.037,76.902z     M254.141,82.976l128.538,120.412l0.223,159.593l-20.691,13.848L340.3,375.6l-0.579-5.82    c-2.039-20.498-17.171-36.987-37.18-40.922l-0.132-94.945c-0.01-7.286-5.942-13.207-13.227-13.207c-0.006,0-0.011,0-0.018,0    l-69.654,0.098c-3.533,0.005-6.853,1.385-9.347,3.887c-2.495,2.501-3.866,5.825-3.861,9.357l0.116,82.781    c-13.797-3.154-26.971-8.363-39.288-15.568c-1.537-0.899-3.089-1.767-4.654-2.611c-0.61-0.329-1.23-0.638-1.845-0.959    c-0.952-0.497-1.902-0.997-2.864-1.474c-0.766-0.38-1.541-0.74-2.313-1.107c-0.819-0.389-1.637-0.782-2.462-1.157    c-0.84-0.381-1.687-0.744-2.533-1.11c-0.773-0.334-1.546-0.67-2.324-0.991c-0.87-0.359-1.745-0.704-2.621-1.047    c-0.777-0.304-1.555-0.606-2.336-0.898c-0.867-0.324-1.738-0.637-2.611-0.944c-0.819-0.289-1.639-0.571-2.463-0.846    c-0.836-0.279-1.674-0.552-2.516-0.817c-0.897-0.283-1.798-0.553-2.7-0.82c-0.775-0.228-1.549-0.456-2.328-0.672    c-1.017-0.283-2.039-0.548-3.062-0.81c-0.479-0.123-0.955-0.262-1.437-0.381l-0.113-80.878L254.141,82.976z M287.923,327.029    l-61.125-7.037l-5.759-0.663l-0.118-83.911l66.874-0.094L287.923,327.029z M491.673,348.41l-101.511,91.298    c-8.459,6.859-18.606,11.396-29.361,13.122l-157.213,22.662c-0.033,0.005-0.065,0.01-0.098,0.015l-0.109,0.017    c-4.763,0.754-9.723,0.436-14.744-0.942L76.746,432.21V294.77h12.505c10.645,0,21.218,1.229,31.514,3.616    c0.383,0.089,0.765,0.18,1.147,0.272c1.265,0.305,2.527,0.619,3.783,0.959c0.11,0.03,0.219,0.062,0.329,0.092    c1.259,0.344,2.513,0.707,3.763,1.086c0.224,0.068,0.449,0.135,0.672,0.204c1.33,0.411,2.654,0.84,3.971,1.29    c0.136,0.047,0.271,0.095,0.407,0.142c2.743,0.947,5.459,1.98,8.141,3.098c0.146,0.061,0.292,0.122,0.438,0.184    c1.337,0.562,2.666,1.143,3.986,1.747c0.035,0.016,0.071,0.033,0.106,0.05c1.276,0.586,2.543,1.194,3.802,1.819    c0.148,0.073,0.297,0.145,0.445,0.219c1.23,0.615,2.45,1.252,3.663,1.904c0.229,0.123,0.457,0.249,0.686,0.373    c1.224,0.667,2.441,1.347,3.646,2.052c17.391,10.173,36.323,16.762,56.271,19.585c0.063,0.009,0.125,0.017,0.188,0.024    l81.881,9.427c0.453,0.065,0.903,0.14,1.35,0.224c12.054,2.264,21.568,11.171,24.751,22.77c0.472,1.718,0.804,3.496,0.986,5.319    l0.325,3.27l-153.46-13.445c-4.018-0.351-7.566,2.622-7.918,6.642c-0.353,4.021,2.622,7.566,6.642,7.918l162.242,14.215    c0.039,0.003,0.077,0.002,0.115,0.005c0.038,0.003,0.075,0.009,0.114,0.012l30.597,1.717c0.137,0.008,0.273,0.011,0.409,0.011    c0.145,0,0.288-0.023,0.432-0.032c0.163-0.01,0.326-0.016,0.488-0.036c0.218-0.028,0.431-0.075,0.645-0.122    c0.153-0.034,0.307-0.059,0.457-0.103c0.234-0.067,0.459-0.158,0.686-0.249c0.122-0.049,0.248-0.086,0.368-0.142    c0.341-0.158,0.673-0.34,0.989-0.552l25.972-17.381c0.001-0.001,0.002-0.002,0.003-0.003l76.702-51.332    c7.717-5.187,18.251-3.152,23.482,4.536C499.249,333.181,498.062,342.736,491.673,348.41z"
   id="path34219" />
	</g>
</g>
<g
   id="g34225">
</g>
<g
   id="g34227">
</g>
<g
   id="g34229">
</g>
<g
   id="g34231">
</g>
<g
   id="g34233">
</g>
<g
   id="g34235">
</g>
<g
   id="g34237">
</g>
<g
   id="g34239">
</g>
<g
   id="g34241">
</g>
<g
   id="g34243">
</g>
<g
   id="g34245">
</g>
<g
   id="g34247">
</g>
<g
   id="g34249">
</g>
<g
   id="g34251">
</g>
<g
   id="g34253">
</g>
<path
   style="fill:#3d3f94;stroke-width:0.615385"
   d="M 187.07692,489.27983 C 184.0193,488.50536 90.939606,453.63508 77.779169,448.3338 c -0.833292,-0.33566 -1.042012,0.2484 -1.31816,3.68858 -0.666794,8.30691 -7.101224,17.35588 -14.922547,20.98613 -5.288671,2.45473 -8.587832,2.79076 -25.090818,2.55566 -14.43912,-0.20571 -15.771559,-0.31947 -19.057159,-1.627 -7.153331,-2.84672 -13.1699083,-8.87787 -15.9045303,-15.94304 -1.13899876,-2.94271 -1.41480565,-5.13611 -1.65173144,-13.13559 -0.24475704,-8.2639 -0.13419138,-9.91958 0.79289163,-11.87327 2.52742041,-5.32614 9.72322711,-5.62963 13.05123511,-0.55045 0.877558,1.33933 1.116347,3.32839 1.273358,10.60682 0.106287,4.9271 0.487222,9.71691 0.846523,10.64402 0.961071,2.47988 4.987451,5.83936 7.956863,6.63894 1.689004,0.4548 7.337249,0.62656 16.188723,0.49228 14.563429,-0.22093 15.593635,-0.42484 18.642197,-3.68988 3.442915,-3.68741 3.26014,1.64245 3.26014,-95.06679 v -89.05624 l -1.305323,-2.69644 c -0.785443,-1.62251 -2.298595,-3.35427 -3.799253,-4.34813 l -2.493931,-1.65171 -14.508438,-0.19544 c -9.071955,-0.1222 -15.341938,0.0506 -16.73281,0.46128 -3.019985,0.89161 -5.263448,2.76697 -6.715876,5.61397 -1.182293,2.31748 -1.213978,3.88366 -1.228281,60.71106 -0.0084,33.3994 -0.257475,59.38434 -0.582715,60.79375 -1.624935,7.04155 -10.5164894,8.01211 -13.87643746,1.51468 -0.78534172,-1.51868 -0.91078185,-9.80169 -0.91078185,-60.14033 0,-39.00022 0.21956696,-59.56683 0.66144819,-61.95718 1.55288102,-8.4003 7.34785152,-15.89157 15.15294312,-19.58849 l 4.185609,-1.98253 h 18.78217 18.782171 l 4.294754,2.11003 c 5.457212,2.68115 10.045711,7.3121 12.686517,12.8039 1.695649,3.52626 2.041194,5.01998 2.259145,9.76597 l 0.25731,5.60297 14.238197,0.39674 c 7.83101,0.21821 15.553578,0.62989 17.161278,0.91485 l 2.92307,0.51811 v -31.59475 c 0,-17.3771 -0.14063,-31.59474 -0.31251,-31.59474 -0.17189,0 -5.73706,5.11887 -12.367044,11.37527 -13.054234,12.31865 -16.249877,14.47549 -23.424104,15.80968 -7.821711,1.45459 -16.313695,-1.37109 -22.399133,-7.45324 -6.298952,-6.29555 -8.90132,-14.84456 -7.106024,-23.34393 1.742613,-8.24995 1.795733,-8.30997 35.662117,-40.2927 l 31.177468,-29.44338 0.0135,-36.71046 c 0.0127,-34.374822 0.0858,-36.867084 1.14959,-39.172011 1.37493,-2.979062 3.32309,-4.853906 6.36399,-6.124475 1.92074,-0.802546 5.93244,-0.952448 25.4896,-0.952448 22.47235,0 23.29672,0.04194 25.93571,1.319452 1.81179,0.877075 3.32119,2.258565 4.50198,4.120481 1.66207,2.620817 1.77636,3.208995 1.77636,9.142086 0,3.487582 0.14998,6.341058 0.33328,6.341058 0.1833,0 13.75,-12.669231 30.14822,-28.153846 34.514,-32.591108 34.79597,-32.801847 44.51098,-33.266328 6.43011,-0.307427 10.53838,0.69096 15.24369,3.704507 3.4869,2.233201 109.85543,101.494494 112.07152,104.583224 4.9269,6.86697 -3.81175,15.18281 -10.40509,9.90167 -1.75408,-1.40497 -31.81478,-29.49056 -98.85219,-92.357159 -5.53299,-5.188747 -11.00085,-9.827208 -12.15081,-10.307692 -2.78368,-1.163093 -6.23965,-1.078877 -9.00578,0.219454 -1.29778,0.609137 -41.83038,38.35231 -95.19893,88.647397 -73.695768,69.45166 -93.087516,88.03687 -93.656618,89.76127 -1.115866,3.38112 -0.457606,8.34686 1.435477,10.82882 3.042653,3.98912 9.475028,5.54156 13.766289,3.32246 1.014745,-0.52475 40.681332,-37.53705 88.147972,-82.24957 82.16285,-77.395555 87.24267,-82.012905 90.22738,-82.012905 2.83771,0 5.8776,2.588944 34.2816,29.196224 16.72772,15.669591 55.68652,52.167091 86.57511,81.105551 30.8886,28.93846 56.9013,53.0127 57.80603,53.4983 2.37056,1.27238 7.35801,1.16569 10.1614,-0.21737 3.66925,-1.81022 5.63739,-5.28753 5.63739,-9.96009 0,-2.93301 -0.30467,-4.25841 -1.28348,-5.58341 -0.70591,-0.95558 -8.45976,-8.49101 -17.23077,-16.74537 -8.77101,-8.25437 -19.06267,-17.94865 -22.87036,-21.54284 l -6.92308,-6.53488 v -3.27374 c 0,-2.78451 0.26411,-3.53784 1.76731,-5.04104 0.97201,-0.97202 2.49691,-1.95042 3.38866,-2.17424 4.06321,-1.01979 4.69577,-0.53696 28.64347,21.86332 12.65138,11.83389 23.9417,22.83715 25.0896,24.45169 5.04086,7.09009 5.90987,17.94155 2.06262,25.75642 -6.09339,12.37743 -19.96706,18.00086 -32.6776,13.24524 -4.58513,-1.71551 -5.79428,-2.67245 -19.21747,-15.20887 -6.37333,-5.95229 -11.71906,-10.69116 -11.87941,-10.53081 -0.16034,0.16034 -0.0754,30.52693 0.18872,67.4813 l 0.48026,67.18977 33.22688,-22.28303 c 18.27479,-12.25567 34.61325,-22.89418 36.30769,-23.64114 6.37134,-2.80867 13.06749,-3.42335 19.85636,-1.82271 21.49371,5.06765 31.28714,29.5663 19.25876,48.17653 -1.85867,2.87573 -13.22327,13.41763 -54.24546,50.31852 -28.54181,25.67436 -53.84357,48.16372 -56.22614,49.97636 -5.84758,4.4488 -17.7229,10.21407 -24.98378,12.12922 -5.50838,1.4529 -23.70036,4.17764 -127.57663,19.10805 -43.84815,6.3024 -48.60972,6.69249 -56.69461,4.64465 z m 26.92062,-15.41829 c 6.8552,-1.00691 43.20246,-6.25736 80.77169,-11.66765 46.75458,-6.73307 70.01288,-10.33105 73.7119,-11.40299 5.58915,-1.61969 12.85461,-5.02707 17.67272,-8.2882 1.52307,-1.03089 26.36387,-23.08541 55.20177,-49.01003 58.62474,-52.70233 55.56746,-49.52218 55.56746,-57.80036 0,-7.18113 -3.30467,-12.36449 -9.69292,-15.20333 -4.08956,-1.81732 -7.92916,-2.03273 -11.84554,-0.66452 -2.26791,0.79229 -20.43985,12.62382 -55.07693,35.85988 -28.43077,19.07261 -52.66154,35.00159 -53.84615,35.39772 -1.65771,0.55435 -5.4142,0.53443 -16.30769,-0.0865 -21.01072,-1.19753 -178.06673,-14.89294 -180.90302,-15.77488 -4.73481,-1.4723 -6.61878,-6.85206 -3.84372,-10.97587 2.50095,-3.71647 2.75452,-3.72542 32.13135,-1.13496 99.62698,8.78516 127.21325,11.11276 127.56289,10.76312 0.69289,-0.69289 -1.60048,-10.2383 -3.28905,-13.68962 -1.98066,-4.04831 -7.25714,-9.86421 -11.30719,-12.46312 -5.90118,-3.78678 -7.54172,-4.07657 -52.50838,-9.27499 -45.20975,-5.22653 -49.66278,-5.8513 -58.99458,-8.27714 -13.22266,-3.43728 -24.6859,-8.13416 -39.00215,-15.98052 -14.6766,-8.04385 -25.04077,-12.20515 -38.19301,-15.3348 -10.5322,-2.5062 -18.54133,-3.46608 -32.425052,-3.88604 l -12.771901,-0.38634 0.156517,68.76115 0.156523,68.76115 17.846154,6.76161 C 172.24877,468.22004 190.38548,475.00524 192,475.23974 c 4.67204,0.67862 10.46586,0.31563 21.99754,-1.3782 z m 158.32361,-104.02438 10.14039,-6.77822 V 283.1983 203.33765 L 318.52215,143.45026 C 283.3555,110.5122 254.43232,83.522763 254.24844,83.473742 c -0.18388,-0.04902 -29.1791,27.049338 -64.43382,60.218568 L 125.71512,204 l 0.37321,27.63949 c 0.20526,15.20172 0.37321,33.37859 0.37321,40.39305 v 12.75356 l 2.15043,0.40343 c 8.08445,1.51665 25.01446,8.47446 38.11766,15.66541 13.2663,7.28046 22.01237,11.01655 32.55302,13.9058 3.10224,0.85034 5.99864,1.54627 6.43646,1.54652 0.64432,3.5e-4 0.77939,-8.15859 0.70875,-42.81281 l -0.0873,-42.81324 1.47872,-2.87343 c 0.86124,-1.67355 2.57831,-3.64672 4.11194,-4.72523 l 2.63322,-1.85178 12.71777,-0.39827 c 21.88495,-0.68536 61.2768,-0.58989 64.75917,0.15695 3.78762,0.81229 7.59506,3.94378 9.27204,7.62593 1.05394,2.31416 1.12188,5.37799 1.13458,51.17084 l 0.0135,48.70929 4.28197,1.30061 c 18.29878,5.55808 31.28386,21.3367 33.04026,40.14835 0.21046,2.25407 0.58037,4.41824 0.82203,4.80925 0.26537,0.42936 3.46182,0.90308 8.07064,1.19608 14.59744,0.928 12.17477,1.5543 23.64472,-6.11264 z m -84.62884,-88.60639 v -45.53846 h -33.23077 -33.23077 v 41.84615 c 0,36.41315 0.11749,41.84616 0.90492,41.84616 0.95064,0 44.38463,4.96774 56.01816,6.40705 3.72307,0.46063 7.3923,0.86901 8.15384,0.90753 l 1.38462,0.07 z M 149.39975,110.20718 162.76923,97.645132 V 87.284105 76.923077 h -17.84615 -17.84616 v 27.155153 27.15516 l 4.47667,-4.23208 c 2.46217,-2.32764 10.49294,-9.885 17.84616,-16.79413 z"
   id="path34297" /></svg>
