<?xml version="1.0" encoding="UTF-8" standalone="no"?>
<svg
   id="Layer_1"
   enable-background="new 0 0 512 512"
   height="512"
   viewBox="0 0 512 512"
   width="512"
   version="1.1"
   xmlns="http://www.w3.org/2000/svg"
   xmlns:svg="http://www.w3.org/2000/svg">
  <defs
     id="defs34378" />
  <path
     d="m464.883 64.267h-417.766c-25.98 0-47.117 21.136-47.117 47.149 0 25.98 21.137 47.117 47.117 47.117h417.766c25.98 0 47.117-21.137 47.117-47.117 0-26.013-21.137-47.149-47.117-47.149z"
     id="path34369" />
  <path
     d="m464.883 208.867h-417.766c-25.98 0-47.117 21.136-47.117 47.149 0 25.98 21.137 47.117 47.117 47.117h417.766c25.98 0 47.117-21.137 47.117-47.117 0-26.013-21.137-47.149-47.117-47.149z"
     id="path34371" />
  <path
     d="m464.883 353.467h-417.766c-25.98 0-47.117 21.137-47.117 47.149 0 25.98 21.137 47.117 47.117 47.117h417.766c25.98 0 47.117-21.137 47.117-47.117 0-26.012-21.137-47.149-47.117-47.149z"
     id="path34373" />
  <path
     style="fill:#3d3f94;stroke-width:0.615385"
     d="M 38.769231,157.86006 C 20.578423,154.48982 6.5787206,141.54986 1.4614476,123.37641 -0.47045477,116.51546 -0.47948572,106.28504 1.4403439,99.469748 6.5531089,81.319711 20.919193,68.106273 39.058643,64.869709 c 6.883212,-1.22815 427.007287,-1.228279 433.864437,-1.34e-4 18.2375,3.266419 32.50712,16.395704 37.64712,34.638621 1.90451,6.759504 1.89424,17.014604 -0.0239,23.876424 -5.06568,18.12132 -19.37255,31.24627 -37.62319,34.51504 -6.71252,1.20224 -427.658274,1.16385 -434.153849,-0.0396 z"
     id="path34417" />
  <path
     style="fill:#3d3f94;stroke-width:0.615385"
     d="M 38.769231,302.48446 C 29.277874,300.74582 18.919732,295.0885 12.632577,288.20935 3.2741868,277.96978 -1.4631494,263.68004 0.20821963,250.73243 2.9290808,229.6547 18.455177,213.17841 39.076923,209.48496 c 6.856569,-1.22804 426.989587,-1.22804 433.846157,0 18.2552,3.26959 32.49983,16.36501 37.63658,34.60017 1.90998,6.78033 1.90998,17.04941 0,23.82974 -5.13675,18.23516 -19.38138,31.33058 -37.63658,34.60017 -6.66835,1.19433 -427.628807,1.16467 -434.153849,-0.0306 z"
     id="path34456" />
  <path
     style="fill:#3d3f94;stroke-width:0.615385"
     d="M 38.769231,447.10434 C 30.487602,445.59598 21.116914,440.86231 14.695718,434.94346 8.8955957,429.5971 3.8398936,421.04852 1.4403439,412.53025 -0.47948572,405.71496 -0.47045477,395.48454 1.4614476,388.62359 6.6188837,370.3075 20.633089,357.4487 39.076923,354.10935 c 6.871276,-1.24408 426.974877,-1.24408 433.846157,0 18.3716,3.32627 32.53952,16.32035 37.62319,34.50603 1.92958,6.90266 1.9294,17.11258 -4.2e-4,23.96518 -5.19111,18.43311 -20.14321,31.8655 -38.66373,34.734 -6.84975,1.0609 -427.25418,0.85686 -433.112889,-0.21022 z"
     id="path34495" />
</svg>
