<?xml version="1.0" encoding="UTF-8" standalone="no"?>
<svg
   id="Capa_1"
   enable-background="new 0 0 512 512"
   height="512"
   viewBox="0 0 512 512"
   width="512"
   version="1.1"
   xmlns="http://www.w3.org/2000/svg"
   xmlns:svg="http://www.w3.org/2000/svg">
  <defs
     id="defs32560" />
  <g
     id="g32555">
    <path
       d="m472.215 353.215c6.604 0 11.978-5.361 11.978-11.95v-20.761h15.715c6.667 0 12.091-5.425 12.091-12.092v-27.439c0-6.667-5.425-12.092-12.091-12.092h-21.611v-82.438c2.116.527 4.285.805 6.471.805 2.374 0 4.766-.313 7.124-.947 7.024-1.887 12.876-6.381 16.462-12.631 3.623-6.26 4.583-13.578 2.703-20.606-1.881-7.032-6.372-12.898-12.644-16.517l-227.844-131.542c-4.172-2.427-9.211-3.71-14.571-3.71s-10.399 1.283-14.549 3.698l-227.874 131.557c-12.973 7.509-17.429 24.156-9.938 37.111 3.62 6.273 9.48 10.764 16.503 12.645 4.526 1.212 9.174 1.238 13.588.138v82.436h-21.611c-6.668 0-12.092 5.425-12.092 12.092v27.439c0 6.667 5.425 12.092 12.092 12.092h15.714v20.761c0 6.59 5.361 11.95 11.95 11.95h9.026v73.156h-9.026c-6.589 0-11.95 5.373-11.95 11.978v20.733h-15.714c-6.668 0-12.092 5.425-12.092 12.092v27.439c0 6.667 5.425 12.092 12.092 12.092h228.235c4.142 0 7.5-3.358 7.5-7.5s-3.357-7.5-7.5-7.5h-225.328v-21.623h481.976v21.623h-222.039c-4.142 0-7.5 3.358-7.5 7.5s3.357 7.5 7.5 7.5h224.947c6.667 0 12.091-5.425 12.091-12.092v-27.439c0-6.667-5.425-12.092-12.091-12.092h-15.715v-20.733c0-6.605-5.374-11.978-11.978-11.978h-9.025v-73.156h9.025zm-438.959-182.598c-2.806 1.618-6.084 2.044-9.236 1.2-3.149-.844-5.775-2.851-7.391-5.653-.002-.003-.003-.005-.005-.008-3.356-5.799-1.353-13.257 4.458-16.62l227.888-131.565c1.83-1.065 4.392-1.676 7.028-1.676 2.675 0 5.171.595 7.05 1.688l227.869 131.555c2.8 1.616 4.807 4.245 5.652 7.403.844 3.154.419 6.427-1.209 9.24-1.601 2.789-4.214 4.79-7.359 5.636-3.153.847-6.429.424-9.229-1.197l-219.024-126.453c-1.16-.67-2.455-1.005-3.75-1.005s-2.59.335-3.75 1.005zm-18.232 113.264h225.328c4.142 0 7.5-3.358 7.5-7.5s-3.357-7.5-7.5-7.5h-191.625v-89.877l207.271-119.682 207.3 119.683v89.876h-189.584c-4.142 0-7.5 3.358-7.5 7.5s3.357 7.5 7.5 7.5h223.286v21.623h-481.976zm194.476 54.334v-17.711h92.996v17.711zm71.992 15v73.156h-50.988v-73.156zm-238.661-15v-17.711h92.967v17.711zm71.992 15v73.156h-51.016v-73.156zm20.975 105.867h-92.967v-17.711h92.967zm58.702-20.733v20.733h-43.703v-20.733c0-6.605-5.36-11.978-11.95-11.978h-9.025v-73.156h9.025c6.59 0 11.95-5.361 11.95-11.95v-20.761h43.703v20.761c0 6.59 5.374 11.95 11.978 11.95h9.026v73.156h-9.026c-6.604 0-11.978 5.373-11.978 11.978zm107.996 20.733h-92.996v-17.711h92.996zm58.702-20.733v20.733h-43.703v-20.733c0-6.605-5.374-11.978-11.978-11.978h-9.025v-73.156h9.025c6.604 0 11.978-5.361 11.978-11.95v-20.761h43.703v20.761c0 6.59 5.374 11.95 11.979 11.95h9.025v73.156h-9.025c-6.605 0-11.979 5.373-11.979 11.978zm107.996 3.022v17.711h-92.996v-17.711zm-71.992-15v-73.156h50.988v73.156zm-21.004-88.156v-17.711h92.996v17.711z"
       id="path32541" />
    <path
       d="m288.611 119.004c0-17.374-14.134-31.509-31.508-31.509s-31.508 14.135-31.508 31.509 14.134 31.509 31.508 31.509 31.508-14.135 31.508-31.509zm-48.016 0c0-9.103 7.406-16.509 16.508-16.509s16.508 7.406 16.508 16.509-7.406 16.509-16.508 16.509-16.508-7.406-16.508-16.509z"
       id="path32543" />
    <g
       id="g32553">
      <path
         d="m165.528 205.254c2.058-3.236 3.268-7.063 3.268-11.174 0-11.525-9.377-20.902-20.902-20.902h-16.918c-4.143 0-7.5 3.358-7.5 7.5v26.819.043 31.381c0 1.995.795 3.908 2.209 5.315 1.405 1.4 3.308 2.185 5.291 2.185h.033s15.553-.069 19.84-.069c12.779 0 23.177-10.397 23.177-23.177-.001-7.213-3.314-13.666-8.498-17.921zm-17.634-17.075c3.255 0 5.902 2.647 5.902 5.902s-2.647 5.902-5.902 5.902c-1.237 0-9.418.016-9.418.016v-11.819h9.418zm2.955 43.174c-2.282 0-7.746.02-12.373.038v-16.381c1.105-.004 12.373-.012 12.373-.012 4.509 0 8.177 3.668 8.177 8.178-.001 4.509-3.669 8.177-8.177 8.177z"
         id="path32545" />
      <path
         d="m226.07 178.849c-.025-.067-.052-.134-.078-.201-1.365-3.323-4.566-5.469-8.158-5.469-.002 0-.004 0-.005 0-3.595.002-6.797 2.153-8.159 5.479-.023.057-.046.114-.067.171l-21.87 57.423c-1.475 3.871.469 8.204 4.34 9.678 3.866 1.475 8.203-.468 9.678-4.339l3.607-9.471h24.786l3.566 9.45c1.133 3.003 3.987 4.854 7.018 4.854.88 0 1.775-.156 2.647-.485 3.875-1.463 5.831-5.79 4.368-9.665zm-15 38.272 6.737-17.688 6.675 17.688z"
         id="path32547" />
      <path
         d="m311.601 173.179c-.024 0-.05 0-.074 0-4.143.04-7.468 3.43-7.428 7.572l.337 34.778-26.935-39.003c-1.864-2.701-5.266-3.874-8.404-2.898-3.133.977-5.268 3.878-5.268 7.16v58.135c0 4.142 3.357 7.5 7.5 7.5s7.5-3.358 7.5-7.5v-34.076l25.638 37.125c2.193 3.171 5.86 4.521 9.337 3.434 3.547-1.107 5.839-4.422 5.839-8.518l-.544-56.281c-.04-4.118-3.39-7.428-7.498-7.428z"
         id="path32549" />
      <path
         d="m387.951 233.525-26.197-25.274 23.972-22.034c3.05-2.803 3.25-7.548.446-10.598-2.802-3.049-7.548-3.25-10.597-.446l-19.147 17.6v-12.823c0-4.142-3.357-7.5-7.5-7.5s-7.5 3.358-7.5 7.5v58.972c0 4.142 3.357 7.5 7.5 7.5s7.5-3.358 7.5-7.5v-14.968l21.109 20.366c1.455 1.404 3.332 2.103 5.206 2.103 1.965 0 3.927-.767 5.398-2.292 2.877-2.982 2.792-7.73-.19-10.606z"
         id="path32551" />
    </g>
  </g>
  <path
     style="fill:#3d3f94;stroke-width:0.648094"
     d="M 6.3173218,509.3566 C 4.979754,508.65048 3.0840803,506.86277 2.1047135,505.3839 L 0.32404678,502.69504 0.12490085,486.44346 c -0.10953021,-8.93837 -0.0222347,-17.20565 0.19399009,-18.37174 0.51297623,-2.76645 3.85892256,-6.5274 7.12862636,-8.0128 2.1033079,-0.95551 4.2945687,-1.18292 11.5092197,-1.19445 l 8.911286,-0.0142 v -11.83782 c 0,-13.34146 0.34656,-14.65457 4.825094,-18.28229 2.292069,-1.85663 2.777835,-1.97223 9.167111,-2.18153 l 6.746789,-0.22102 v -36.55829 -36.5583 h -5.858661 c -7.930916,0 -11.130909,-1.60457 -13.83004,-6.93482 -0.852338,-1.6832 -1.050293,-4.26768 -1.050293,-13.71254 v -11.63844 l -9.55938,-0.22146 C 7.5425997,320.45431 6.0132208,319.94651 2.3370401,315.40071 L 0.32404678,312.91154 0.13243883,295.50401 C -0.04549137,279.3391 0.03054679,277.9207 1.1976392,275.63396 c 1.4327421,-2.80724 2.7784486,-4.12659 5.7371823,-5.62484 1.6963259,-0.85899 4.3228945,-1.05029 14.4200815,-1.05029 h 12.345962 l -4.51e-4,-40.99192 -4.53e-4,-40.99192 -6.642506,-0.002 c -6.118593,-0.001 -6.986185,-0.16431 -10.999854,-2.06417 -6.054285,-2.86546 -10.3662242,-7.09751 -13.3188783,-13.0718 -2.32851966,-4.71144 -2.41467592,-5.13097 -2.41467592,-11.75797 0,-6.64003 0.0824529,-7.03904 2.44052802,-11.81028 1.6915953,-3.42271 3.4815384,-5.87211 5.8328419,-7.98179 C 12.921848,136.40699 240.08472,5.0289761 246.27555,2.8275975 252.10722,0.75393668 259.8825,0.75317677 265.71836,2.8256975 271.90313,5.022128 499.06605,136.40228 503.3965,140.28734 c 2.35152,2.10967 4.14109,4.55846 5.83284,7.98149 2.3558,4.76663 2.44053,5.17551 2.44053,11.77667 0,6.34257 -0.14972,7.15464 -2.06417,11.19594 -2.86839,6.05502 -7.10046,10.36665 -13.07312,13.31888 -4.68374,2.31512 -5.16041,2.41467 -11.56189,2.41467 h -6.67674 l -4.5e-4,40.99192 -4.5e-4,40.99192 h 12.34596 c 10.09719,0 12.72376,0.1913 14.42008,1.05029 2.94555,1.49157 4.30378,2.81631 5.7076,5.56685 1.10956,2.17398 1.22722,3.99358 1.22722,18.97755 0,18.43249 -0.16928,19.3753 -4.09835,22.82507 -3.21739,2.82491 -5.90523,3.41991 -15.46796,3.42411 l -8.22468,0.004 -0.20054,12.52835 -0.20054,12.52834 -1.8198,2.38379 c -2.90175,3.80106 -5.88598,4.9642 -12.73648,4.9642 h -5.85866 v 36.5583 36.55829 l 6.74679,0.22102 c 6.38927,0.2093 6.87504,0.3249 9.16711,2.18153 4.47853,3.62772 4.82509,4.94083 4.82509,18.28229 v 11.83782 l 8.91129,0.0143 c 7.28756,0.0117 9.38364,0.23293 11.50366,1.21446 3.01735,1.39699 5.78374,4.15884 6.76375,6.75265 0.42125,1.11493 0.68932,8.24505 0.68932,18.33446 0,14.92214 -0.11803,16.74127 -1.22722,18.91454 -1.40382,2.75055 -2.76205,4.07528 -5.7076,5.56685 -1.88915,0.9566 -12.36384,1.05027 -117.45673,1.05027 H 272.21974 l -1.96671,-1.78226 c -3.53485,-3.20331 -3.65752,-8.04607 -0.2841,-11.21532 l 1.6866,-1.58453 112.55409,-0.32404 112.5541,-0.32405 0.17807,-10.53152 0.17808,-10.53152 H 255.99696 14.874043 l 0.178078,10.53152 0.178078,10.53152 114.126941,0.32405 c 122.01125,0.34643 114.93911,0.15115 117.35441,3.24046 2.18576,2.79573 1.2003,7.69212 -2.0651,10.26069 l -1.78617,1.405 -117.05551,-0.0286 C 10.40343,510.64084 8.714896,510.6223 6.3173218,509.3566 Z M 135.45155,450.10098 v -8.74926 H 89.112865 42.774175 v 8.74926 8.74926 h 46.33869 46.338685 z m 58.97652,-2.61319 c 0,-8.75904 0.2284,-11.9091 0.99686,-13.74827 2.28601,-5.47121 5.75548,-7.29396 13.88347,-7.29396 h 5.85866 v -36.61728 -36.61729 h -5.85866 c -8.12799,0 -11.59746,-1.82275 -13.88347,-7.29395 -0.76846,-1.83917 -0.99686,-4.98924 -0.99686,-13.74827 v -11.36246 h -21.66064 -21.66064 l -0.21252,12.20132 c -0.2088,11.98807 -0.24292,12.24722 -1.95201,14.82764 -2.60128,3.92745 -6.11633,5.37572 -13.04723,5.37572 h -5.62822 v 36.61729 36.61728 h 6.03 c 5.534,0 6.27265,0.15389 8.97991,1.87078 5.0464,3.20033 5.72908,5.47307 5.72908,19.07283 v 11.46107 h 21.71113 21.71114 z m 107.58353,2.61319 v -8.74926 h -46.01464 -46.01465 v 8.74926 8.74926 h 46.01465 46.01464 z m 58.97651,-2.71181 c 0,-13.59976 0.68269,-15.8725 5.72908,-19.07283 2.70726,-1.71689 3.44591,-1.87078 8.97991,-1.87078 h 6.03001 v -36.61728 -36.61729 h -5.62823 c -6.93089,0 -10.44595,-1.44827 -13.04722,-5.37572 -1.7091,-2.58042 -1.74321,-2.83957 -1.95202,-14.82764 l -0.21252,-12.20132 h -21.66063 -21.66064 v 11.36246 c 0,8.75903 -0.22841,11.9091 -0.99686,13.74827 -2.28602,5.4712 -5.75548,7.29395 -13.88348,7.29395 h -5.85866 v 36.61729 36.61728 h 5.85866 c 8.128,0 11.59746,1.82275 13.88348,7.29396 0.76845,1.83917 0.99686,4.98923 0.99686,13.74827 v 11.36245 h 21.71113 21.71113 z m 108.23163,2.71181 v -8.74926 h -46.33869 -46.33869 v 8.74926 8.74926 h 46.33869 46.33869 z M 114.71256,389.82828 V 353.21099 H 89.436912 64.161263 v 36.61729 36.61728 h 25.275649 25.275648 z m 166.56005,0 v -36.61729 h -25.27565 -25.27565 v 36.61729 36.61728 h 25.27565 25.27565 z m 166.56004,0 V 353.21099 H 422.557 397.28135 v 36.61729 36.61728 h 25.27565 25.27565 z m -312.3811,-60.2727 v -8.74927 H 89.112865 42.774175 v 8.74927 8.74926 h 46.33869 46.338685 z m 166.56005,0 v -8.74927 h -46.01464 -46.01465 v 8.74927 8.74926 h 46.01465 46.01464 z m 167.20814,0 v -8.74927 h -46.33869 -46.33869 v 8.74927 8.74926 h 46.33869 46.33869 z m 27.86802,-34.99706 V 283.86498 H 383.93063 270.77349 l -2.20352,-2.20352 c -1.86506,-1.86506 -2.20352,-2.65986 -2.20352,-5.17452 0,-2.3669 0.38452,-3.40137 1.89107,-5.08753 l 1.89107,-2.11653 96.45713,-0.32405 96.45713,-0.32405 0.16194,-44.71845 0.16195,-44.71846 L 359.694,119.34333 256.00127,59.48878 l -103.6951,59.85455 -103.695099,59.85454 0.159996,44.71846 0.159997,44.71845 97.276526,0.32405 c 103.90168,0.34611 98.09471,0.15889 100.50396,3.24047 2.18576,2.79572 1.2003,7.69212 -2.0651,10.26068 l -1.78617,1.405 H 128.88322 14.906152 v 10.69354 10.69355 H 255.99696 497.08776 Z M 32.598886,170.68136 c 1.140766,-0.58488 51.361635,-29.52157 111.601934,-64.30374 88.22001,-50.9374 109.9691,-63.240645 111.79614,-63.241986 1.82833,-0.0014 21.18791,10.924242 99.80641,56.325762 53.64594,30.980094 103.78361,59.917524 111.41703,64.305414 13.08859,7.52366 14.07951,7.97798 17.40059,7.97798 6.15698,0 10.23054,-3.07224 11.77583,-8.88125 0.92782,-3.48781 -0.0587,-7.71266 -2.44808,-10.48463 C 491.49278,149.52975 263.96687,18.2317 259.39945,17.027884 c -2.89826,-0.763881 -3.90672,-0.763682 -6.80498,0.0014 -4.56459,1.204871 -232.094045,132.505206 -234.549298,135.351276 -4.808832,5.57427 -3.008475,15.08763 3.458331,18.27435 2.78937,1.37455 8.439823,1.38805 11.095383,0.0265 z"
     id="path33489" />
  <path
     style="fill:#3d3f94;stroke-width:0.648094"
     d="m 247.41746,149.0992 c -12.67113,-4.05064 -21.8809,-16.75102 -21.8809,-30.17403 0,-8.37975 3.13856,-15.75558 9.40969,-22.113424 6.71178,-6.804599 14.26503,-9.694485 23.92848,-9.155087 8.68287,0.484662 15.0066,3.400644 21.17122,9.762422 15.932,16.441529 8.51352,44.840679 -13.48857,51.636429 -5.46427,1.68774 -13.93652,1.70708 -19.13992,0.0437 z m 16.76848,-15.47141 c 3.20148,-1.63327 5.82336,-4.25235 7.57319,-7.5651 1.92206,-3.63881 1.91795,-10.65359 -0.008,-14.26655 -3.103,-5.81992 -8.30665,-8.95973 -14.80226,-8.93146 -9.21866,0.0401 -15.9885,7.06256 -15.94318,16.53804 0.0559,11.6768 12.82088,19.51021 23.18061,14.22507 z"
     id="path33528" />
  <path
     style="fill:#3d3f94;stroke-width:0.648094"
     d="m 126.94952,245.32549 c -3.75881,-2.09603 -3.81174,-2.5862 -3.81174,-35.29991 0,-31.90513 0.0584,-32.54695 3.21982,-35.36436 1.34969,-1.20284 2.37131,-1.29619 14.18548,-1.29619 11.68007,0 12.9812,0.11561 15.76132,1.40046 10.1844,4.70678 15.36573,17.3898 11.03708,27.0169 l -1.41262,3.14172 2.24228,2.7364 c 6.1118,7.45864 7.60373,16.82294 3.95519,24.82515 -2.15922,4.73574 -7.26571,9.91061 -11.8847,12.04386 -2.83296,1.30838 -4.21802,1.43478 -17.337,1.58214 -11.51813,0.12938 -14.58418,-0.0217 -15.95511,-0.78617 z m 26.97933,-14.88923 c 5.1222,-2.14019 6.33697,-8.89893 2.32174,-12.91768 -2.01278,-2.01455 -2.0752,-2.02885 -9.79213,-2.24377 l -7.76644,-0.2163 v 8.15545 8.15544 h 6.50175 c 4.19244,0 7.295,-0.33144 8.73508,-0.93314 z m -3.27613,-31.22603 c 1.36357,-0.52325 2.94545,-3.61219 2.94545,-5.75158 0,-0.92503 -0.71584,-2.39772 -1.59077,-3.27265 -1.45449,-1.45448 -2.09303,-1.59077 -7.45308,-1.59077 h -5.8623 v 5.50879 5.5088 h 5.45579 c 3.00069,0 5.92789,-0.18117 6.50491,-0.40259 z"
     id="path33567" />
  <path
     style="fill:#3d3f94;stroke-width:0.648094"
     d="m 189.50256,244.07204 c -1.73385,-1.73386 -2.20352,-2.72916 -2.20352,-4.66964 0,-1.6231 3.79237,-12.44543 11.0941,-31.65937 6.10175,-16.05629 11.51297,-29.86337 12.02494,-30.6824 1.35443,-2.16679 4.73366,-4.0148 7.34136,-4.0148 2.59336,0 5.95397,1.82888 7.3912,4.02237 2.00517,3.06028 23.06919,60.07055 23.06919,62.43732 0,1.82321 -0.50335,2.86636 -2.20351,4.56652 -1.85643,1.85642 -2.66528,2.20351 -5.13503,2.20351 -4.26546,0 -6.22896,-1.93398 -8.8521,-8.719 l -2.14143,-5.53905 h -12.17221 -12.17221 l -2.08733,5.53045 c -2.55952,6.78155 -4.52583,8.7276 -8.81843,8.7276 -2.46974,0 -3.2786,-0.34709 -5.13502,-2.20351 z m 34.42762,-28.09486 c -0.24688,-0.62379 -1.62538,-4.26932 -3.06333,-8.10117 -1.43795,-3.83185 -2.80829,-6.96701 -3.04519,-6.96701 -0.42166,0 -0.81508,0.94892 -4.63512,11.17962 l -1.87544,5.02272 h 6.53398 c 5.96177,0 6.49466,-0.0993 6.0851,-1.13416 z"
     id="path33606" />
  <path
     style="fill:#3d3f94;stroke-width:0.648094"
     d="m 266.21466,244.38483 -2.11653,-1.89073 -0.19856,-31.64811 c -0.221,-35.22416 -0.27746,-34.7183 4.10671,-36.79873 2.60706,-1.23713 3.63929,-1.25504 6.37821,-0.11064 1.73867,0.72646 4.70332,4.60738 15.69545,20.54638 l 13.55189,19.65074 0.32405,-18.11603 c 0.34899,-19.51043 0.40925,-19.84621 3.93529,-21.9291 3.84218,-2.26963 9.28126,-0.16941 10.77226,4.15956 0.55359,1.60729 0.78272,10.72274 0.80585,32.05819 0.0308,28.41104 -0.0266,29.90164 -1.22057,31.71288 -0.68908,1.04533 -1.92663,2.27447 -2.75012,2.73144 -1.99479,1.10694 -6.00611,1.09201 -8.17665,-0.0304 -1.11044,-0.57425 -6.62908,-7.96911 -15.03599,-20.14796 l -13.28167,-19.24075 -0.32405,18.58183 -0.32404,18.58184 -2.11653,1.89016 c -2.98148,2.66259 -7.04405,2.66236 -10.025,-5.7e-4 z"
     id="path33645" />
  <path
     style="fill:#3d3f94;stroke-width:0.648094"
     d="m 343.74883,244.07204 -2.20352,-2.20352 v -32.45926 -32.45927 l 1.78225,-1.99452 c 3.37181,-3.77338 9.87626,-3.07435 12.14079,1.30476 0.70564,1.36456 0.98311,3.93285 0.98311,9.09965 v 7.19852 l 9.76401,-8.94859 c 10.6007,-9.7154 11.68836,-10.51142 14.40966,-10.54586 5.33564,-0.0675 8.94811,5.37522 6.98852,10.52932 -0.4543,1.19493 -12.80897,13.03674 -25.0053,23.96732 -0.40917,0.36671 4.55203,5.63886 13.45766,14.30113 l 14.10575,13.72029 -0.01,3.14325 c -0.008,2.70406 -0.31761,3.45115 -2.21323,5.34678 -1.87741,1.8774 -2.65185,2.20351 -5.23286,2.20351 -3.41941,0 -3.81883,-0.31843 -18.64939,-14.8681 l -7.6151,-7.47086 v 8.96596 8.96597 l -2.20352,2.20352 c -1.88085,1.88085 -2.64956,2.20351 -5.24956,2.20351 -2.6,0 -3.3687,-0.32266 -5.24955,-2.20351 z"
     id="path33684" />
</svg>
