<svg id="svg" version="1.1" xmlns="http://www.w3.org/2000/svg" xmlns:xlink="http://www.w3.org/1999/xlink" width="400" height="361.6" viewBox="0, 0, 400,361.6"><g id="svgg"><path id="path0" d="M298.734 255.335 C 298.734 255.533,298.093 255.696,297.309 255.696 C 296.525 255.696,295.794 255.841,295.685 256.018 C 295.575 256.195,294.955 256.431,294.307 256.543 C 291.415 257.043,290.778 257.256,290.778 257.726 C 290.778 258.040,290.380 258.228,289.714 258.228 C 289.129 258.228,288.550 258.391,288.427 258.590 C 288.304 258.788,287.887 258.951,287.501 258.951 C 287.115 258.951,286.799 259.114,286.799 259.313 C 286.799 259.512,286.483 259.675,286.097 259.675 C 285.711 259.675,285.295 259.837,285.172 260.036 C 285.049 260.235,284.657 260.398,284.302 260.398 C 283.452 260.398,281.374 261.443,281.374 261.871 C 281.374 262.055,280.967 262.206,280.470 262.206 C 279.973 262.206,279.566 262.369,279.566 262.568 C 279.566 262.767,279.241 262.929,278.843 262.929 C 278.445 262.929,278.119 263.092,278.119 263.291 C 278.119 263.490,277.803 263.653,277.417 263.653 C 277.031 263.653,276.615 263.816,276.492 264.014 C 276.369 264.213,275.952 264.376,275.566 264.376 C 275.180 264.376,274.863 264.498,274.862 264.647 C 274.859 265.011,272.768 266.184,272.123 266.184 C 271.840 266.184,271.609 266.347,271.609 266.546 C 271.609 266.745,271.284 266.908,270.886 266.908 C 270.488 266.908,270.163 267.040,270.163 267.202 C 270.163 267.364,269.593 267.720,268.897 267.993 C 268.201 268.266,267.631 268.622,267.631 268.784 C 267.631 268.945,267.306 269.078,266.908 269.078 C 266.506 269.078,266.184 269.319,266.184 269.620 C 266.184 269.958,265.843 270.163,265.280 270.163 C 264.783 270.163,264.376 270.325,264.376 270.524 C 264.376 270.723,264.051 270.886,263.653 270.886 C 263.255 270.886,262.929 271.049,262.929 271.248 C 262.929 271.447,262.523 271.609,262.025 271.609 C 261.528 271.609,261.121 271.772,261.121 271.971 C 261.121 272.170,260.796 272.333,260.398 272.333 C 259.996 272.333,259.675 272.574,259.675 272.875 C 259.675 273.213,259.333 273.418,258.770 273.418 C 258.273 273.418,257.866 273.580,257.866 273.779 C 257.866 273.978,257.541 274.141,257.143 274.141 C 256.745 274.141,256.420 274.304,256.420 274.503 C 256.420 274.702,256.094 274.864,255.696 274.864 C 255.298 274.864,254.973 274.997,254.973 275.159 C 254.973 275.320,254.403 275.676,253.707 275.949 C 253.011 276.223,252.441 276.660,252.441 276.921 C 252.441 277.182,252.125 277.396,251.739 277.396 C 251.353 277.396,250.937 277.559,250.814 277.758 C 250.691 277.957,250.274 278.119,249.888 278.119 C 249.502 278.119,249.186 278.282,249.186 278.481 C 249.186 278.680,248.861 278.843,248.463 278.843 C 248.065 278.843,247.740 279.005,247.740 279.204 C 247.740 279.403,247.509 279.566,247.226 279.566 C 246.581 279.566,244.490 280.739,244.487 281.103 C 244.486 281.252,244.169 281.374,243.783 281.374 C 243.397 281.374,242.980 281.537,242.857 281.736 C 242.734 281.935,242.318 282.098,241.932 282.098 C 241.546 282.098,241.230 282.230,241.230 282.392 C 241.230 282.554,240.660 282.909,239.964 283.183 C 239.268 283.456,238.698 283.893,238.698 284.154 C 238.698 284.416,238.373 284.629,237.975 284.629 C 237.577 284.629,237.251 284.792,237.251 284.991 C 237.251 285.190,236.844 285.353,236.347 285.353 C 235.850 285.353,235.443 285.515,235.443 285.714 C 235.443 285.913,235.118 286.076,234.720 286.076 C 234.322 286.076,233.996 286.239,233.996 286.438 C 233.996 286.637,233.671 286.799,233.273 286.799 C 232.875 286.799,232.550 286.962,232.550 287.161 C 232.550 287.360,232.219 287.523,231.815 287.523 C 231.411 287.523,230.987 287.767,230.872 288.065 C 230.758 288.363,230.356 288.608,229.979 288.608 C 229.603 288.608,229.295 288.770,229.295 288.969 C 229.295 289.168,228.979 289.331,228.593 289.331 C 228.207 289.331,227.790 289.494,227.667 289.693 C 227.544 289.892,227.198 290.054,226.897 290.054 C 226.596 290.054,226.104 290.300,225.804 290.600 C 225.504 290.900,225.109 291.053,224.926 290.940 C 224.743 290.827,224.593 290.890,224.593 291.079 C 224.593 291.268,224.186 291.525,223.689 291.649 C 223.192 291.774,222.785 292.036,222.785 292.231 C 222.785 292.426,222.459 292.586,222.061 292.586 C 221.664 292.586,221.338 292.718,221.338 292.880 C 221.338 293.042,220.769 293.398,220.072 293.671 C 219.376 293.944,218.807 294.300,218.807 294.462 C 218.807 294.624,218.498 294.756,218.122 294.756 C 217.745 294.756,217.345 294.997,217.231 295.292 C 217.115 295.596,216.786 295.737,216.472 295.616 C 216.149 295.492,215.827 295.645,215.697 295.984 C 215.574 296.303,215.166 296.564,214.790 296.564 C 214.413 296.564,214.105 296.727,214.105 296.926 C 214.105 297.125,213.698 297.288,213.201 297.288 C 212.703 297.288,212.297 297.450,212.297 297.649 C 212.297 297.848,211.971 298.011,211.573 298.011 C 211.175 298.011,210.850 298.174,210.850 298.373 C 210.850 298.571,210.519 298.734,210.115 298.734 C 209.711 298.734,209.287 298.978,209.172 299.277 C 209.058 299.575,208.656 299.819,208.280 299.819 C 207.903 299.819,207.595 299.982,207.595 300.181 C 207.595 300.380,207.178 300.542,206.669 300.542 C 206.145 300.542,205.841 300.699,205.967 300.904 C 206.092 301.106,205.814 301.266,205.336 301.266 C 204.439 301.266,200.629 303.001,200.422 303.505 C 200.356 303.666,199.989 303.797,199.608 303.797 C 199.227 303.797,198.915 303.960,198.915 304.159 C 198.915 304.358,198.508 304.521,198.011 304.521 C 197.514 304.521,197.107 304.684,197.107 304.882 C 197.107 305.081,196.781 305.244,196.383 305.244 C 195.986 305.244,195.660 305.407,195.660 305.606 C 195.660 305.805,195.441 305.967,195.173 305.967 C 194.551 305.967,192.485 306.992,192.210 307.437 C 192.095 307.623,191.613 307.776,191.139 307.776 C 190.665 307.776,190.177 307.939,190.054 308.137 C 189.931 308.336,189.515 308.499,189.129 308.499 C 188.743 308.499,188.427 308.662,188.427 308.861 C 188.427 309.060,188.101 309.222,187.703 309.222 C 187.306 309.222,186.980 309.385,186.980 309.584 C 186.980 309.783,186.487 309.946,185.884 309.946 C 185.243 309.946,184.701 310.171,184.579 310.488 C 184.465 310.787,184.073 311.031,183.708 311.031 C 183.343 311.031,182.944 311.193,182.821 311.392 C 182.698 311.591,182.119 311.754,181.534 311.754 C 180.949 311.754,180.470 311.917,180.470 312.116 C 180.470 312.315,180.063 312.477,179.566 312.477 C 179.069 312.477,178.662 312.640,178.662 312.839 C 178.662 313.038,178.174 313.201,177.577 313.201 C 176.980 313.201,176.492 313.363,176.492 313.562 C 176.492 313.761,176.105 313.924,175.632 313.924 C 175.159 313.924,174.570 314.168,174.322 314.467 C 174.074 314.765,173.403 315.009,172.831 315.009 C 172.259 315.009,171.790 315.172,171.790 315.371 C 171.790 315.570,171.221 315.732,170.524 315.732 C 169.828 315.732,169.259 315.895,169.259 316.094 C 169.259 316.293,168.689 316.456,167.993 316.456 C 167.297 316.456,166.727 316.618,166.727 316.817 C 166.727 317.016,166.004 317.179,165.121 317.179 C 164.237 317.179,163.414 317.342,163.291 317.541 C 163.162 317.750,161.185 317.902,158.590 317.902 C 155.994 317.902,154.017 317.750,153.888 317.541 C 153.765 317.342,153.023 317.179,152.239 317.179 C 151.455 317.179,150.814 317.016,150.814 316.817 C 150.814 316.618,150.081 316.456,149.186 316.456 C 148.291 316.456,147.559 316.293,147.559 316.094 C 147.559 315.895,146.989 315.732,146.293 315.732 C 145.597 315.732,145.027 315.570,145.027 315.371 C 145.027 315.172,144.394 315.009,143.619 315.009 C 142.701 315.009,142.139 314.820,142.003 314.467 C 141.881 314.149,141.339 313.924,140.699 313.924 C 140.096 313.924,139.602 313.761,139.602 313.562 C 139.602 313.363,139.033 313.201,138.336 313.201 C 137.640 313.201,137.071 313.038,137.071 312.839 C 137.071 312.640,136.511 312.477,135.826 312.477 C 135.142 312.477,134.481 312.315,134.358 312.116 C 134.235 311.917,133.665 311.754,133.092 311.754 C 132.519 311.754,131.949 311.591,131.826 311.392 C 131.703 311.193,131.043 311.031,130.358 311.031 C 129.493 311.031,129.114 310.865,129.114 310.488 C 129.114 310.129,128.755 309.946,128.050 309.946 C 127.465 309.946,126.886 309.783,126.763 309.584 C 126.640 309.385,126.061 309.222,125.476 309.222 C 124.891 309.222,124.412 309.060,124.412 308.861 C 124.412 308.662,123.843 308.499,123.146 308.499 C 122.450 308.499,121.881 308.336,121.881 308.137 C 121.881 307.939,121.410 307.776,120.834 307.776 C 120.238 307.776,119.699 307.543,119.580 307.233 C 119.458 306.916,118.916 306.691,118.275 306.691 C 117.672 306.691,117.179 306.528,117.179 306.329 C 117.179 306.130,116.609 305.967,115.913 305.967 C 115.217 305.967,114.647 305.805,114.647 305.606 C 114.647 305.407,114.159 305.244,113.562 305.244 C 112.966 305.244,112.477 305.100,112.477 304.924 C 112.477 304.747,112.030 304.513,111.483 304.403 C 109.150 303.934,108.303 303.653,107.847 303.197 C 107.580 302.930,107.058 302.712,106.686 302.712 C 106.314 302.712,105.910 302.550,105.787 302.351 C 105.664 302.152,105.084 301.989,104.499 301.989 C 103.914 301.989,103.436 301.826,103.436 301.627 C 103.436 301.429,102.948 301.266,102.351 301.266 C 101.754 301.266,101.266 301.103,101.266 300.904 C 101.266 300.705,100.696 300.542,100.000 300.542 C 99.304 300.542,98.734 300.380,98.734 300.181 C 98.734 299.982,98.165 299.819,97.468 299.819 C 96.680 299.819,96.203 299.644,96.203 299.356 C 96.203 299.101,95.755 298.855,95.208 298.810 C 94.661 298.765,94.159 298.567,94.093 298.369 C 94.027 298.172,93.416 298.011,92.737 298.011 C 92.057 298.011,91.501 297.848,91.501 297.649 C 91.501 297.450,91.022 297.288,90.437 297.288 C 89.852 297.288,89.273 297.125,89.150 296.926 C 89.027 296.727,88.448 296.564,87.863 296.564 C 87.278 296.564,86.799 296.409,86.799 296.219 C 86.799 296.029,86.230 295.767,85.533 295.636 C 84.837 295.506,84.268 295.254,84.268 295.077 C 84.268 294.901,83.789 294.756,83.204 294.756 C 82.619 294.756,82.040 294.593,81.917 294.394 C 81.794 294.195,81.215 294.033,80.630 294.033 C 80.045 294.033,79.566 293.870,79.566 293.671 C 79.566 293.472,78.996 293.309,78.300 293.309 C 77.604 293.309,77.034 293.146,77.034 292.948 C 77.034 292.749,76.534 292.586,75.924 292.586 C 75.313 292.586,74.569 292.342,74.270 292.043 C 73.972 291.745,73.251 291.501,72.669 291.501 C 72.086 291.501,71.609 291.338,71.609 291.139 C 71.609 290.940,71.040 290.778,70.344 290.778 C 69.647 290.778,69.078 290.615,69.078 290.416 C 69.078 290.217,68.345 290.054,67.450 290.054 C 66.555 290.054,65.823 289.892,65.823 289.693 C 65.823 289.494,65.172 289.331,64.376 289.331 C 63.580 289.331,62.929 289.168,62.929 288.969 C 62.929 288.750,61.362 288.608,58.951 288.608 C 56.540 288.608,54.973 288.750,54.973 288.969 C 54.973 289.168,54.515 289.331,53.956 289.331 C 53.397 289.331,52.590 289.656,52.163 290.054 C 51.736 290.452,51.176 290.783,50.919 290.789 C 50.292 290.805,49.186 291.668,49.186 292.143 C 49.186 292.353,48.698 292.741,48.101 293.006 C 47.505 293.270,47.016 293.609,47.016 293.759 C 47.016 293.910,46.842 294.033,46.629 294.033 C 46.213 294.033,45.208 294.921,45.208 295.289 C 45.208 295.574,43.503 297.288,43.219 297.288 C 42.893 297.288,41.230 299.022,41.230 299.361 C 41.230 299.525,40.904 299.894,40.506 300.181 C 40.108 300.468,39.783 300.920,39.783 301.186 C 39.783 301.452,39.632 301.577,39.447 301.463 C 39.263 301.349,39.008 301.583,38.881 301.984 C 38.753 302.385,38.497 302.712,38.312 302.712 C 38.126 302.712,37.975 302.891,37.975 303.110 C 37.975 303.329,37.242 304.199,36.347 305.045 C 35.452 305.890,34.720 306.769,34.720 306.998 C 34.720 307.226,34.069 308.084,33.273 308.904 C 32.477 309.724,31.826 310.532,31.826 310.701 C 31.826 310.869,31.257 311.576,30.561 312.272 C 29.864 312.969,29.295 313.799,29.295 314.119 C 29.295 314.692,28.479 315.732,28.029 315.732 C 27.583 315.732,26.763 316.770,26.763 317.334 C 26.763 317.647,26.600 317.902,26.401 317.902 C 26.203 317.902,26.040 318.072,26.040 318.280 C 26.040 318.488,25.674 319.050,25.226 319.529 C 23.926 320.920,23.508 321.468,23.508 321.786 C 23.508 321.949,23.183 322.317,22.785 322.604 C 22.387 322.891,22.061 323.331,22.061 323.581 C 22.061 323.832,21.492 324.624,20.796 325.341 C 20.099 326.058,19.530 326.875,19.530 327.156 C 19.530 327.437,19.393 327.667,19.225 327.667 C 19.057 327.667,18.544 328.400,18.083 329.295 C 17.623 330.190,17.097 330.922,16.915 330.922 C 16.408 330.922,15.552 331.894,15.552 332.470 C 15.552 332.753,15.063 333.496,14.467 334.120 C 13.870 334.745,13.382 335.501,13.382 335.801 C 13.382 336.102,13.137 336.347,12.839 336.347 C 12.541 336.347,12.297 336.555,12.297 336.810 C 12.297 337.064,11.971 337.507,11.573 337.794 C 11.175 338.081,10.850 338.534,10.850 338.802 C 10.850 339.070,10.280 339.826,9.584 340.483 C 8.888 341.140,8.318 341.868,8.318 342.103 C 8.318 342.337,7.952 342.899,7.505 343.351 C 7.057 343.803,6.365 344.630,5.967 345.188 C 5.570 345.746,4.878 346.582,4.430 347.045 C 3.983 347.509,3.617 347.983,3.617 348.100 C 3.617 348.217,3.291 348.662,2.893 349.089 C 2.495 349.516,2.170 350.079,2.170 350.339 C 2.170 350.600,1.926 350.814,1.627 350.814 C 1.329 350.814,1.085 351.044,1.085 351.326 C 1.085 351.608,0.897 351.901,0.668 351.978 C 0.417 352.061,0.182 353.304,0.079 355.082 L -0.093 358.047 2.124 358.047 C 3.360 358.047,4.340 357.887,4.340 357.685 C 4.340 357.486,4.577 357.324,4.867 357.324 C 5.156 357.324,6.296 356.429,7.398 355.335 C 8.501 354.241,9.537 353.345,9.700 353.345 C 9.864 353.345,10.762 352.613,11.696 351.718 C 12.630 350.823,13.484 350.090,13.595 350.090 C 13.867 350.090,14.828 349.111,14.828 348.834 C 14.828 348.429,16.595 346.835,17.044 346.835 C 17.286 346.835,18.186 346.103,19.043 345.208 C 19.901 344.313,20.692 343.580,20.802 343.580 C 21.073 343.580,23.508 341.127,23.508 340.854 C 23.508 340.568,24.477 339.602,24.765 339.602 C 24.887 339.602,25.363 339.236,25.822 338.788 C 27.054 337.587,28.550 336.347,28.767 336.347 C 29.120 336.347,31.465 333.843,31.465 333.466 C 31.465 333.260,31.633 333.092,31.838 333.092 C 32.044 333.092,32.782 332.523,33.478 331.826 C 34.174 331.130,34.869 330.561,35.023 330.561 C 35.176 330.561,36.315 329.584,37.554 328.391 C 38.793 327.197,39.930 326.221,40.081 326.221 C 40.232 326.221,40.960 325.651,41.698 324.955 C 42.436 324.259,43.128 323.689,43.235 323.689 C 43.480 323.689,44.183 323.109,45.758 321.609 C 46.437 320.963,47.201 320.434,47.456 320.434 C 47.712 320.433,48.409 320.030,49.005 319.537 C 49.602 319.043,50.253 318.506,50.452 318.341 C 50.651 318.177,51.343 317.809,51.989 317.523 C 52.636 317.237,53.165 316.879,53.165 316.729 C 53.165 316.579,53.643 316.456,54.228 316.456 C 54.813 316.456,55.392 316.293,55.515 316.094 C 55.638 315.895,56.299 315.732,56.983 315.732 C 57.668 315.732,58.228 315.895,58.228 316.094 C 58.228 316.293,58.625 316.456,59.111 316.456 C 59.596 316.456,60.094 316.618,60.217 316.817 C 60.340 317.016,60.756 317.179,61.143 317.179 C 61.529 317.179,61.844 317.342,61.844 317.541 C 61.844 317.740,62.089 317.902,62.387 317.902 C 62.685 317.902,62.931 318.024,62.932 318.174 C 62.935 318.537,65.026 319.711,65.671 319.711 C 65.954 319.711,66.184 319.873,66.184 320.072 C 66.184 320.271,66.510 320.434,66.908 320.434 C 67.306 320.434,67.631 320.597,67.631 320.796 C 67.631 320.995,67.957 321.157,68.354 321.157 C 68.752 321.157,69.078 321.320,69.078 321.519 C 69.078 321.718,69.485 321.881,69.982 321.881 C 70.479 321.881,70.886 322.066,70.886 322.293 C 70.886 322.849,72.003 323.663,72.785 323.677 C 73.133 323.684,73.418 323.852,73.418 324.051 C 73.418 324.250,73.743 324.412,74.141 324.412 C 74.539 324.412,74.864 324.575,74.864 324.774 C 74.864 324.973,75.172 325.136,75.549 325.136 C 75.926 325.136,76.327 325.380,76.442 325.678 C 76.556 325.976,76.981 326.221,77.385 326.221 C 77.789 326.221,78.119 326.383,78.119 326.582 C 78.119 326.781,78.445 326.944,78.843 326.944 C 79.241 326.944,79.566 327.107,79.566 327.306 C 79.566 327.505,79.810 327.667,80.108 327.667 C 80.407 327.667,80.651 327.830,80.651 328.029 C 80.651 328.228,80.976 328.391,81.374 328.391 C 81.772 328.391,82.098 328.553,82.098 328.752 C 82.098 328.951,82.406 329.114,82.782 329.114 C 83.159 329.114,83.561 329.358,83.675 329.656 C 83.790 329.955,84.214 330.199,84.618 330.199 C 85.022 330.199,85.353 330.362,85.353 330.561 C 85.353 330.759,85.678 330.922,86.076 330.922 C 86.474 330.922,86.799 331.085,86.799 331.284 C 86.799 331.483,87.125 331.646,87.523 331.646 C 87.920 331.646,88.246 331.808,88.246 332.007 C 88.246 332.206,88.490 332.369,88.788 332.369 C 89.087 332.369,89.331 332.532,89.331 332.731 C 89.331 332.929,89.562 333.092,89.844 333.092 C 90.489 333.092,92.581 334.265,92.584 334.629 C 92.585 334.778,92.911 334.901,93.309 334.901 C 93.707 334.901,94.033 335.063,94.033 335.262 C 94.033 335.461,94.358 335.624,94.756 335.624 C 95.154 335.624,95.479 335.787,95.479 335.986 C 95.479 336.184,95.869 336.347,96.345 336.347 C 96.821 336.347,97.304 336.591,97.418 336.890 C 97.533 337.188,97.876 337.432,98.180 337.432 C 98.485 337.432,98.734 337.595,98.734 337.794 C 98.734 337.993,99.141 338.156,99.638 338.156 C 100.136 338.156,100.542 338.318,100.542 338.517 C 100.542 338.716,100.868 338.879,101.266 338.879 C 101.664 338.879,101.989 339.042,101.989 339.241 C 101.989 339.439,102.305 339.602,102.691 339.602 C 103.077 339.602,103.494 339.765,103.617 339.964 C 103.740 340.163,104.156 340.325,104.542 340.325 C 104.928 340.325,105.244 340.570,105.244 340.868 C 105.244 341.169,105.566 341.410,105.967 341.410 C 106.365 341.410,106.691 341.573,106.691 341.772 C 106.691 341.971,107.098 342.134,107.595 342.134 C 108.092 342.134,108.499 342.297,108.499 342.495 C 108.499 342.694,108.825 342.857,109.222 342.857 C 109.620 342.857,109.946 343.020,109.946 343.219 C 109.946 343.418,110.353 343.580,110.850 343.580 C 111.347 343.580,111.754 343.743,111.754 343.942 C 111.754 344.141,112.062 344.304,112.439 344.304 C 112.815 344.304,113.217 344.548,113.332 344.846 C 113.446 345.145,113.870 345.389,114.274 345.389 C 114.678 345.389,115.009 345.552,115.009 345.750 C 115.009 345.949,115.325 346.112,115.711 346.112 C 116.097 346.112,116.514 346.275,116.637 346.474 C 116.759 346.673,117.348 346.835,117.945 346.835 C 118.576 346.835,118.937 346.987,118.807 347.197 C 118.680 347.402,118.984 347.559,119.508 347.559 C 120.018 347.559,120.434 347.722,120.434 347.920 C 120.434 348.119,120.742 348.282,121.119 348.282 C 121.495 348.282,121.897 348.526,122.011 348.825 C 122.126 349.123,122.550 349.367,122.954 349.367 C 123.358 349.367,123.689 349.530,123.689 349.729 C 123.689 349.928,124.177 350.090,124.774 350.090 C 125.371 350.090,125.859 350.253,125.859 350.452 C 125.859 350.651,126.266 350.814,126.763 350.814 C 127.260 350.814,127.667 350.976,127.667 351.175 C 127.667 351.374,127.952 351.542,128.300 351.549 C 128.648 351.555,129.249 351.799,129.635 352.091 C 130.021 352.383,130.632 352.622,130.991 352.622 C 131.351 352.622,131.646 352.785,131.646 352.984 C 131.646 353.183,131.892 353.345,132.194 353.345 C 133.071 353.345,135.624 354.219,135.624 354.518 C 135.624 354.669,136.193 354.792,136.890 354.792 C 137.586 354.792,138.156 354.955,138.156 355.154 C 138.156 355.353,138.626 355.515,139.202 355.515 C 139.798 355.515,140.338 355.749,140.456 356.058 C 140.578 356.375,141.120 356.600,141.761 356.600 C 142.364 356.600,142.857 356.763,142.857 356.962 C 142.857 357.161,143.427 357.324,144.123 357.324 C 144.819 357.324,145.389 357.486,145.389 357.685 C 145.389 357.884,145.867 358.047,146.452 358.047 C 147.037 358.047,147.617 358.210,147.740 358.409 C 147.863 358.608,148.605 358.770,149.388 358.770 C 150.172 358.770,150.814 358.933,150.814 359.132 C 150.814 359.331,151.709 359.494,152.803 359.494 C 154.330 359.494,154.792 359.620,154.792 360.036 C 154.792 360.462,155.292 360.579,157.122 360.579 C 158.403 360.579,159.552 360.741,159.675 360.940 C 159.806 361.153,161.969 361.302,164.940 361.302 C 168.060 361.302,169.982 361.164,169.982 360.940 C 169.982 360.741,170.703 360.579,171.584 360.579 C 172.525 360.579,173.409 360.355,173.728 360.036 C 174.026 359.738,174.770 359.494,175.381 359.494 C 175.992 359.494,176.492 359.331,176.492 359.132 C 176.492 358.933,176.980 358.770,177.577 358.770 C 178.174 358.770,178.662 358.608,178.662 358.409 C 178.662 358.210,179.069 358.047,179.566 358.047 C 180.063 358.047,180.470 357.884,180.470 357.685 C 180.470 357.486,180.786 357.324,181.172 357.324 C 181.558 357.324,181.975 357.161,182.098 356.962 C 182.221 356.763,182.625 356.600,182.997 356.600 C 183.369 356.600,183.918 356.356,184.216 356.058 C 184.514 355.759,185.014 355.515,185.327 355.515 C 185.639 355.515,185.895 355.353,185.895 355.154 C 185.895 354.955,186.211 354.792,186.597 354.792 C 186.983 354.792,187.400 354.629,187.523 354.430 C 187.646 354.231,188.062 354.069,188.448 354.069 C 188.834 354.069,189.150 353.906,189.150 353.707 C 189.150 353.508,189.406 353.345,189.718 353.345 C 190.031 353.345,190.514 353.142,190.791 352.893 C 191.988 351.820,192.397 351.537,192.751 351.537 C 192.959 351.537,193.128 351.374,193.128 351.175 C 193.128 350.976,193.535 350.814,194.033 350.814 C 194.530 350.814,194.937 350.651,194.937 350.452 C 194.937 350.253,195.192 350.090,195.505 350.090 C 195.818 350.090,196.300 349.887,196.577 349.638 C 197.774 348.565,198.183 348.282,198.538 348.282 C 198.745 348.282,198.915 348.119,198.915 347.920 C 198.915 347.722,199.241 347.559,199.638 347.559 C 200.036 347.559,200.362 347.396,200.362 347.197 C 200.362 346.998,200.613 346.835,200.919 346.835 C 201.226 346.835,201.826 346.510,202.253 346.112 C 202.680 345.714,203.325 345.389,203.685 345.389 C 204.045 345.389,204.340 345.145,204.340 344.846 C 204.340 344.545,204.661 344.304,205.063 344.304 C 205.461 344.304,205.787 344.141,205.787 343.942 C 205.787 343.743,206.031 343.580,206.329 343.580 C 206.627 343.580,206.872 343.418,206.872 343.219 C 206.872 343.020,207.161 342.857,207.515 342.857 C 207.869 342.857,208.393 342.532,208.680 342.134 C 208.967 341.736,209.402 341.410,209.647 341.410 C 209.893 341.410,210.501 341.004,210.998 340.506 C 211.495 340.009,212.154 339.602,212.461 339.602 C 212.768 339.602,213.020 339.439,213.020 339.241 C 213.020 339.042,213.264 338.879,213.562 338.879 C 213.861 338.879,214.105 338.716,214.105 338.517 C 214.105 338.318,214.356 338.156,214.663 338.156 C 214.970 338.156,215.660 337.749,216.197 337.251 C 216.733 336.754,217.377 336.347,217.627 336.347 C 217.878 336.347,218.083 336.184,218.083 335.986 C 218.083 335.787,218.297 335.624,218.557 335.624 C 218.818 335.624,219.347 335.331,219.733 334.973 C 220.118 334.615,220.719 334.213,221.067 334.080 C 221.415 333.947,221.700 333.670,221.700 333.465 C 221.700 333.260,221.908 333.092,222.162 333.092 C 222.417 333.092,222.860 332.767,223.146 332.369 C 223.433 331.971,223.927 331.646,224.243 331.646 C 224.560 331.646,225.134 331.353,225.520 330.994 C 225.905 330.636,226.505 330.234,226.854 330.102 C 227.202 329.969,227.486 329.692,227.486 329.487 C 227.486 329.282,227.731 329.114,228.029 329.114 C 228.327 329.114,228.571 328.951,228.571 328.752 C 228.571 328.553,228.861 328.391,229.215 328.391 C 229.569 328.391,230.093 328.065,230.380 327.667 C 230.666 327.269,231.131 326.944,231.413 326.944 C 231.694 326.944,232.301 326.537,232.762 326.040 C 233.223 325.542,233.816 325.136,234.080 325.136 C 234.344 325.136,234.795 324.810,235.081 324.412 C 235.368 324.014,235.892 323.689,236.246 323.689 C 236.600 323.689,236.890 323.526,236.890 323.327 C 236.890 323.128,237.134 322.966,237.432 322.966 C 237.731 322.966,237.975 322.780,237.975 322.553 C 237.975 322.023,239.078 321.184,239.794 321.169 C 240.098 321.162,240.581 320.832,240.868 320.434 C 241.155 320.036,241.620 319.711,241.901 319.711 C 242.182 319.711,242.790 319.304,243.250 318.807 C 243.711 318.309,244.304 317.902,244.568 317.902 C 244.832 317.902,245.283 317.577,245.570 317.179 C 245.856 316.781,246.381 316.456,246.734 316.456 C 247.088 316.456,247.378 316.293,247.378 316.094 C 247.378 315.895,247.548 315.732,247.755 315.732 C 248.149 315.732,248.641 315.371,250.091 314.014 C 250.570 313.567,251.132 313.201,251.340 313.201 C 251.548 313.201,251.718 313.038,251.718 312.839 C 251.718 312.640,252.007 312.477,252.361 312.477 C 252.715 312.477,253.239 312.152,253.526 311.754 C 253.813 311.356,254.314 311.031,254.640 311.031 C 254.966 311.031,255.539 310.624,255.912 310.127 C 256.286 309.629,256.878 309.222,257.229 309.222 C 257.579 309.222,257.866 309.060,257.866 308.861 C 257.866 308.662,258.110 308.499,258.409 308.499 C 258.707 308.499,258.951 308.336,258.951 308.137 C 258.951 307.939,259.277 307.776,259.675 307.776 C 260.072 307.776,260.398 307.601,260.398 307.388 C 260.398 306.776,261.367 305.967,262.100 305.967 C 262.469 305.967,263.004 305.642,263.291 305.244 C 263.578 304.846,264.028 304.521,264.290 304.521 C 264.738 304.521,265.119 304.271,266.352 303.165 C 266.629 302.916,267.030 302.712,267.244 302.712 C 267.457 302.712,267.631 302.550,267.631 302.351 C 267.631 302.152,267.957 301.989,268.354 301.989 C 268.752 301.989,269.078 301.826,269.078 301.627 C 269.078 301.429,269.322 301.266,269.620 301.266 C 269.919 301.266,270.163 301.143,270.163 300.992 C 270.163 300.842,270.651 300.503,271.248 300.239 C 271.844 299.975,272.333 299.528,272.333 299.246 C 272.333 298.965,272.649 298.734,273.035 298.734 C 273.421 298.734,273.837 298.571,273.960 298.373 C 274.083 298.174,274.464 298.011,274.806 298.011 C 275.148 298.011,275.663 297.685,275.949 297.288 C 276.236 296.890,276.765 296.564,277.126 296.564 C 277.486 296.564,277.874 296.320,277.989 296.022 C 278.103 295.723,278.505 295.479,278.881 295.479 C 279.258 295.479,279.566 295.316,279.566 295.118 C 279.566 294.919,279.901 294.756,280.311 294.756 C 280.720 294.756,280.955 294.593,280.832 294.394 C 280.709 294.195,280.943 294.033,281.353 294.033 C 281.763 294.033,282.098 293.870,282.098 293.671 C 282.098 293.472,282.423 293.309,282.821 293.309 C 283.219 293.309,283.544 293.146,283.544 292.948 C 283.544 292.749,283.875 292.586,284.279 292.586 C 284.683 292.586,285.107 292.342,285.222 292.043 C 285.336 291.745,285.738 291.501,286.115 291.501 C 286.491 291.501,286.799 291.338,286.799 291.139 C 286.799 290.940,287.125 290.778,287.523 290.778 C 287.920 290.778,288.246 290.615,288.246 290.416 C 288.246 290.217,288.653 290.054,289.150 290.054 C 289.647 290.054,290.054 289.892,290.054 289.693 C 290.054 289.494,290.380 289.331,290.778 289.331 C 291.175 289.331,291.501 289.168,291.501 288.969 C 291.501 288.770,291.795 288.608,292.155 288.608 C 292.515 288.608,293.125 288.369,293.511 288.077 C 293.897 287.785,294.498 287.540,294.846 287.534 C 295.194 287.528,295.479 287.360,295.479 287.161 C 295.479 286.962,296.049 286.799,296.745 286.799 C 297.441 286.799,298.011 286.637,298.011 286.438 C 298.011 286.239,298.815 286.076,299.798 286.076 C 300.781 286.076,301.685 285.913,301.808 285.714 C 301.931 285.515,302.755 285.353,303.638 285.353 C 304.521 285.353,305.244 285.515,305.244 285.714 C 305.244 285.913,305.560 286.076,305.946 286.076 C 306.332 286.076,306.749 286.239,306.872 286.438 C 306.995 286.637,307.351 286.799,307.664 286.799 C 307.977 286.799,308.497 287.096,308.818 287.458 C 309.140 287.820,309.932 288.425,310.579 288.802 C 311.225 289.179,311.754 289.615,311.754 289.771 C 311.754 289.927,312.044 290.054,312.398 290.054 C 312.751 290.054,313.276 290.380,313.562 290.778 C 313.849 291.175,314.217 291.501,314.381 291.501 C 314.706 291.501,314.881 291.635,316.978 293.492 C 317.763 294.187,318.629 294.756,318.903 294.756 C 319.425 294.756,320.434 295.606,320.434 296.046 C 320.434 296.419,321.620 297.263,322.164 297.276 C 322.419 297.282,323.183 297.816,323.862 298.463 C 325.569 300.089,326.142 300.542,326.487 300.542 C 326.651 300.542,327.019 300.868,327.306 301.266 C 327.592 301.664,328.035 301.989,328.290 301.989 C 328.544 301.989,328.752 302.152,328.752 302.351 C 328.752 302.550,328.903 302.712,329.088 302.712 C 329.273 302.712,330.028 303.282,330.766 303.978 C 331.504 304.675,332.330 305.244,332.600 305.244 C 332.871 305.244,333.092 305.407,333.092 305.606 C 333.092 305.805,333.267 305.967,333.480 305.967 C 333.961 305.967,334.901 306.880,334.901 307.347 C 334.901 307.538,335.452 307.955,336.126 308.275 C 336.799 308.594,337.837 309.305,338.432 309.853 C 340.375 311.644,341.411 312.477,341.695 312.477 C 341.849 312.477,342.209 312.803,342.495 313.201 C 342.782 313.599,343.226 313.924,343.482 313.924 C 343.737 313.924,344.668 314.656,345.551 315.552 C 346.433 316.447,347.409 317.179,347.719 317.179 C 348.029 317.179,348.282 317.342,348.282 317.541 C 348.282 317.740,348.526 317.902,348.825 317.902 C 349.123 317.902,349.367 318.087,349.367 318.312 C 349.367 318.824,350.675 319.980,351.580 320.267 C 351.954 320.386,352.260 320.635,352.260 320.820 C 352.260 321.006,352.466 321.157,352.717 321.157 C 352.968 321.157,353.479 321.564,353.853 322.061 C 354.226 322.559,354.683 322.966,354.869 322.966 C 355.054 322.966,355.415 323.169,355.672 323.418 C 355.928 323.666,356.759 324.358,357.518 324.955 C 358.277 325.552,359.102 326.243,359.351 326.492 C 359.600 326.741,359.942 326.944,360.111 326.944 C 360.281 326.944,360.654 327.269,360.940 327.667 C 361.227 328.065,361.664 328.391,361.910 328.391 C 362.157 328.391,363.113 329.123,364.034 330.018 C 364.955 330.913,365.902 331.646,366.138 331.646 C 366.374 331.646,366.802 331.971,367.089 332.369 C 367.375 332.767,367.801 333.092,368.034 333.092 C 368.267 333.092,368.552 333.336,368.666 333.635 C 368.781 333.933,369.088 334.177,369.348 334.177 C 369.609 334.177,370.057 334.503,370.344 334.901 C 370.630 335.298,371.073 335.624,371.328 335.624 C 371.582 335.624,371.790 335.787,371.790 335.986 C 371.790 336.184,372.116 336.347,372.514 336.347 C 372.911 336.347,373.237 336.532,373.237 336.757 C 373.237 337.279,375.079 338.878,375.681 338.878 C 375.932 338.879,376.648 339.367,377.272 339.964 C 377.897 340.561,378.541 341.049,378.703 341.049 C 378.866 341.049,379.569 341.618,380.265 342.315 C 380.961 343.011,381.781 343.580,382.086 343.580 C 382.391 343.580,382.640 343.743,382.640 343.942 C 382.640 344.141,382.884 344.304,383.183 344.304 C 383.481 344.304,383.725 344.548,383.725 344.846 C 383.725 345.145,384.015 345.389,384.369 345.389 C 384.723 345.389,385.247 345.714,385.533 346.112 C 385.820 346.510,386.263 346.835,386.517 346.835 C 386.772 346.835,386.980 346.998,386.980 347.197 C 386.980 347.396,387.267 347.559,387.618 347.559 C 387.968 347.559,388.561 347.966,388.934 348.463 C 389.308 348.960,389.916 349.367,390.286 349.367 C 390.656 349.367,390.958 349.530,390.958 349.729 C 390.958 349.928,391.172 350.090,391.433 350.090 C 391.694 350.090,392.256 350.416,392.683 350.814 C 393.110 351.212,393.792 351.537,394.198 351.537 C 394.614 351.537,394.937 351.774,394.937 352.080 C 394.937 352.381,395.258 352.622,395.660 352.622 C 396.058 352.622,396.383 352.785,396.383 352.984 C 396.383 353.183,397.217 353.345,398.235 353.345 L 400.086 353.345 399.933 349.843 C 399.834 347.567,399.628 346.290,399.347 346.196 C 399.110 346.117,398.915 345.814,398.915 345.522 C 398.915 345.231,398.508 344.616,398.011 344.155 C 397.514 343.694,397.107 343.086,397.107 342.805 C 397.107 342.524,396.781 342.059,396.383 341.772 C 395.986 341.485,395.660 340.982,395.660 340.653 C 395.660 340.325,395.130 339.588,394.482 339.015 C 393.834 338.443,393.061 337.486,392.764 336.890 C 392.134 335.623,390.795 334.177,390.252 334.177 C 390.044 334.177,389.873 333.933,389.873 333.635 C 389.873 333.336,389.722 333.092,389.536 333.092 C 389.351 333.092,389.090 332.751,388.958 332.333 C 388.825 331.916,387.757 330.614,386.583 329.440 C 385.409 328.266,384.448 327.202,384.448 327.076 C 384.448 326.949,384.042 326.469,383.544 326.008 C 383.047 325.547,382.640 325.074,382.640 324.956 C 382.640 324.839,381.745 323.854,380.651 322.769 C 379.557 321.684,378.662 320.633,378.662 320.434 C 378.662 320.235,378.499 320.072,378.300 320.072 C 378.101 320.072,377.939 319.890,377.939 319.668 C 377.939 319.445,376.881 318.226,375.588 316.958 C 374.295 315.691,373.237 314.517,373.237 314.350 C 373.237 314.183,372.830 313.829,372.333 313.562 C 371.835 313.296,371.429 312.854,371.429 312.581 C 371.429 312.307,371.062 311.713,370.615 311.260 C 370.167 310.808,369.478 310.002,369.082 309.468 C 368.687 308.935,368.228 308.499,368.062 308.499 C 367.715 308.499,366.727 307.573,366.727 307.247 C 366.727 307.127,366.198 306.467,365.552 305.781 C 363.416 303.514,362.749 302.741,362.749 302.533 C 362.749 302.168,360.254 299.819,359.867 299.819 C 359.662 299.819,359.494 299.640,359.494 299.422 C 359.494 299.203,358.761 298.332,357.866 297.487 C 356.971 296.641,356.239 295.785,356.239 295.585 C 356.239 295.384,354.611 293.554,352.622 291.519 C 350.633 289.483,349.005 287.698,349.005 287.551 C 349.005 287.404,347.459 285.687,345.570 283.735 C 343.680 281.782,342.134 280.046,342.134 279.876 C 342.134 279.705,341.955 279.566,341.736 279.566 C 341.282 279.566,339.241 277.477,339.241 277.012 C 339.241 276.550,330.335 267.631,329.874 267.631 C 329.655 267.631,329.476 267.468,329.476 267.269 C 329.476 267.071,329.301 266.908,329.088 266.908 C 328.587 266.908,327.667 265.988,327.667 265.487 C 327.667 265.274,327.529 265.099,327.359 265.099 C 327.190 265.099,326.540 264.611,325.916 264.014 C 325.291 263.418,324.641 262.929,324.471 262.929 C 324.301 262.929,323.575 262.360,322.858 261.664 C 322.141 260.967,321.303 260.398,320.994 260.398 C 320.686 260.398,320.434 260.235,320.434 260.036 C 320.434 259.837,320.180 259.675,319.870 259.675 C 319.560 259.675,319.407 259.512,319.530 259.313 C 319.657 259.108,319.353 258.951,318.828 258.951 C 318.319 258.951,317.902 258.788,317.902 258.590 C 317.902 258.391,317.577 258.228,317.179 258.228 C 316.777 258.228,316.456 257.987,316.456 257.685 C 316.456 257.348,316.114 257.143,315.552 257.143 C 315.054 257.143,314.647 256.980,314.647 256.781 C 314.647 256.582,314.331 256.420,313.945 256.420 C 313.559 256.420,313.143 256.257,313.020 256.058 C 312.897 255.859,312.155 255.696,311.371 255.696 C 310.587 255.696,309.946 255.533,309.946 255.335 C 309.946 255.109,307.836 254.973,304.340 254.973 C 300.844 254.973,298.734 255.109,298.734 255.335 " stroke="none" fill="#ec3434" fill-rule="evenodd"></path><path id="path1" d="M296.745 0.258 C 296.347 0.354,295.867 0.579,295.678 0.758 C 295.489 0.938,295.042 1.085,294.684 1.085 C 294.325 1.085,294.033 1.329,294.033 1.627 C 294.033 1.929,293.711 2.170,293.309 2.170 C 292.911 2.170,292.586 2.333,292.586 2.532 C 292.586 2.731,292.107 2.893,291.522 2.893 C 290.937 2.893,290.358 3.056,290.235 3.255 C 290.112 3.454,289.696 3.617,289.310 3.617 C 288.923 3.617,288.608 3.779,288.608 3.978 C 288.608 4.177,288.201 4.340,287.703 4.340 C 287.206 4.340,286.799 4.503,286.799 4.702 C 286.799 4.901,286.474 5.063,286.076 5.063 C 285.674 5.063,285.353 5.304,285.353 5.606 C 285.353 5.940,285.013 6.148,284.470 6.148 C 283.984 6.148,283.486 6.311,283.363 6.510 C 283.241 6.709,282.743 6.872,282.257 6.872 C 281.772 6.872,281.374 7.034,281.374 7.233 C 281.374 7.432,280.967 7.595,280.470 7.595 C 279.973 7.595,279.566 7.758,279.566 7.957 C 279.566 8.156,279.241 8.318,278.843 8.318 C 278.445 8.318,278.119 8.481,278.119 8.680 C 278.119 8.879,277.789 9.042,277.385 9.042 C 276.981 9.042,276.556 9.286,276.442 9.584 C 276.327 9.882,275.923 10.127,275.544 10.127 C 275.165 10.127,274.531 10.289,274.136 10.488 C 273.741 10.687,273.094 11.013,272.699 11.212 C 272.304 11.410,271.735 11.573,271.433 11.573 C 271.132 11.573,270.886 11.736,270.886 11.935 C 270.886 12.134,270.555 12.297,270.151 12.297 C 269.747 12.297,269.323 12.541,269.209 12.839 C 269.094 13.137,268.702 13.382,268.337 13.382 C 267.972 13.382,267.573 13.544,267.450 13.743 C 267.327 13.942,266.839 14.105,266.365 14.105 C 265.891 14.105,265.403 14.268,265.280 14.467 C 265.157 14.665,264.741 14.828,264.355 14.828 C 263.969 14.828,263.653 14.991,263.653 15.190 C 263.653 15.389,263.337 15.552,262.951 15.552 C 262.565 15.552,262.148 15.714,262.025 15.913 C 261.902 16.112,261.486 16.275,261.100 16.275 C 260.714 16.275,260.398 16.519,260.398 16.817 C 260.398 17.179,260.036 17.360,259.313 17.360 C 258.716 17.360,258.228 17.523,258.228 17.722 C 258.228 17.920,257.821 18.083,257.324 18.083 C 256.826 18.083,256.420 18.246,256.420 18.445 C 256.420 18.644,256.094 18.807,255.696 18.807 C 255.298 18.807,254.973 18.969,254.973 19.168 C 254.973 19.367,254.566 19.530,254.069 19.530 C 253.571 19.530,253.165 19.693,253.165 19.892 C 253.165 20.090,252.856 20.253,252.480 20.253 C 252.103 20.253,251.702 20.497,251.587 20.796 C 251.465 21.113,250.923 21.338,250.283 21.338 C 249.680 21.338,249.186 21.501,249.186 21.700 C 249.186 21.899,248.861 22.061,248.463 22.061 C 248.065 22.061,247.740 22.224,247.740 22.423 C 247.740 22.622,247.333 22.785,246.835 22.785 C 246.338 22.785,245.931 22.948,245.931 23.146 C 245.931 23.345,245.606 23.508,245.208 23.508 C 244.810 23.508,244.485 23.671,244.485 23.870 C 244.485 24.069,244.190 24.231,243.830 24.231 C 243.471 24.231,242.860 24.470,242.474 24.762 C 242.088 25.055,241.487 25.299,241.139 25.305 C 240.791 25.311,240.506 25.479,240.506 25.678 C 240.506 25.877,240.099 26.040,239.602 26.040 C 239.105 26.040,238.698 26.203,238.698 26.401 C 238.698 26.600,238.373 26.763,237.975 26.763 C 237.577 26.763,237.251 26.926,237.251 27.125 C 237.251 27.324,236.937 27.486,236.554 27.486 C 236.170 27.486,235.612 27.731,235.314 28.029 C 235.015 28.327,234.434 28.571,234.022 28.571 C 233.610 28.571,233.273 28.734,233.273 28.933 C 233.273 29.132,232.957 29.295,232.571 29.295 C 232.185 29.295,231.769 29.458,231.646 29.656 C 231.523 29.855,231.106 30.018,230.720 30.018 C 230.334 30.018,230.018 30.181,230.018 30.380 C 230.018 30.579,229.693 30.741,229.295 30.741 C 228.897 30.741,228.571 30.904,228.571 31.103 C 228.571 31.302,228.176 31.465,227.693 31.465 C 227.210 31.465,226.571 31.709,226.272 32.007 C 225.974 32.306,225.474 32.550,225.161 32.550 C 224.849 32.550,224.593 32.712,224.593 32.911 C 224.593 33.110,224.412 33.273,224.190 33.273 C 223.480 33.273,221.338 35.916,221.338 36.792 C 221.338 37.258,221.093 38.012,220.794 38.469 C 219.911 39.816,220.156 281.329,221.041 282.214 C 221.715 282.888,224.758 283.070,225.136 282.459 C 225.259 282.260,225.675 282.098,226.061 282.098 C 226.447 282.098,226.763 281.935,226.763 281.736 C 226.763 281.537,227.094 281.374,227.498 281.374 C 227.902 281.374,228.326 281.130,228.441 280.832 C 228.555 280.533,228.957 280.289,229.333 280.289 C 229.710 280.289,230.018 280.127,230.018 279.928 C 230.018 279.729,230.346 279.566,230.746 279.566 C 231.147 279.566,231.798 279.403,232.193 279.204 C 232.588 279.005,233.235 278.680,233.630 278.481 C 234.025 278.282,234.595 278.119,234.896 278.119 C 235.197 278.119,235.443 277.957,235.443 277.758 C 235.443 277.559,235.774 277.396,236.178 277.396 C 236.582 277.396,237.006 277.152,237.121 276.854 C 237.235 276.555,237.637 276.311,238.013 276.311 C 238.390 276.311,238.698 276.148,238.698 275.949 C 238.698 275.750,239.105 275.588,239.602 275.588 C 240.099 275.588,240.506 275.425,240.506 275.226 C 240.506 275.027,240.834 274.864,241.235 274.864 C 241.635 274.864,242.245 274.715,242.591 274.533 C 242.936 274.351,243.829 273.936,244.575 273.612 C 245.321 273.288,245.931 272.867,245.931 272.677 C 245.931 272.488,246.338 272.333,246.835 272.333 C 247.333 272.333,247.740 272.170,247.740 271.971 C 247.740 271.772,248.065 271.609,248.463 271.609 C 248.861 271.609,249.186 271.482,249.186 271.327 C 249.186 271.171,249.928 270.825,250.834 270.558 C 251.740 270.290,252.705 269.848,252.978 269.574 C 253.251 269.301,253.721 269.078,254.022 269.078 C 254.322 269.078,254.669 268.915,254.792 268.716 C 254.915 268.517,255.331 268.354,255.718 268.354 C 256.104 268.354,256.420 268.192,256.420 267.993 C 256.420 267.794,256.745 267.631,257.143 267.631 C 257.541 267.631,257.866 267.468,257.866 267.269 C 257.866 267.071,258.273 266.908,258.770 266.908 C 259.268 266.908,259.675 266.745,259.675 266.546 C 259.675 266.347,259.988 266.184,260.372 266.184 C 260.756 266.184,261.314 265.940,261.612 265.642 C 261.910 265.344,262.492 265.099,262.904 265.099 C 263.316 265.099,263.653 264.937,263.653 264.738 C 263.653 264.539,263.978 264.376,264.376 264.376 C 264.774 264.376,265.099 264.213,265.099 264.014 C 265.099 263.816,265.506 263.653,266.004 263.653 C 266.501 263.653,266.908 263.490,266.908 263.291 C 266.908 263.092,267.233 262.929,267.631 262.929 C 268.029 262.929,268.354 262.767,268.354 262.568 C 268.354 262.369,268.668 262.206,269.052 262.206 C 269.436 262.206,269.994 261.962,270.292 261.664 C 270.590 261.365,271.172 261.121,271.584 261.121 C 271.996 261.121,272.333 260.958,272.333 260.759 C 272.333 260.561,272.649 260.398,273.035 260.398 C 273.421 260.398,273.837 260.235,273.960 260.036 C 274.083 259.837,274.500 259.675,274.886 259.675 C 275.272 259.675,275.588 259.512,275.588 259.313 C 275.588 259.114,275.913 258.951,276.311 258.951 C 276.713 258.951,277.034 258.710,277.034 258.409 C 277.034 258.075,277.374 257.866,277.917 257.866 C 278.403 257.866,278.901 257.703,279.024 257.505 C 279.146 257.306,279.644 257.143,280.130 257.143 C 280.615 257.143,281.013 256.980,281.013 256.781 C 281.013 256.582,281.420 256.420,281.917 256.420 C 282.414 256.420,282.821 256.257,282.821 256.058 C 282.821 255.859,283.146 255.696,283.544 255.696 C 283.942 255.696,284.268 255.533,284.268 255.335 C 284.268 255.136,284.675 254.973,285.172 254.973 C 285.734 254.973,286.076 254.768,286.076 254.430 C 286.076 254.129,286.397 253.888,286.799 253.888 C 287.197 253.888,287.523 253.725,287.523 253.526 C 287.523 253.327,288.011 253.165,288.608 253.165 C 289.204 253.165,289.693 253.002,289.693 252.803 C 289.693 252.604,290.099 252.441,290.597 252.441 C 291.094 252.441,291.501 252.278,291.501 252.080 C 291.501 251.881,291.720 251.718,291.988 251.718 C 292.713 251.718,294.756 250.631,294.756 250.245 C 294.756 250.060,295.163 249.910,295.660 249.910 C 296.157 249.910,296.564 249.747,296.564 249.548 C 296.564 249.349,296.811 249.186,297.112 249.186 C 297.701 249.186,298.822 248.605,299.882 247.750 C 300.519 247.236,300.542 242.838,300.542 123.609 L 300.542 0.000 299.005 0.042 C 298.160 0.065,297.143 0.162,296.745 0.258 M117.274 7.862 C 116.829 8.411,116.463 9.107,116.461 9.408 C 116.458 9.709,116.049 10.260,115.552 10.634 C 115.054 11.007,114.647 11.534,114.647 11.805 C 114.647 12.075,114.485 12.297,114.286 12.297 C 114.087 12.297,113.924 12.505,113.924 12.759 C 113.924 13.014,113.599 13.456,113.201 13.743 C 112.803 14.030,112.477 14.518,112.477 14.828 C 112.477 15.138,112.138 15.631,111.723 15.924 C 111.309 16.216,110.715 16.944,110.404 17.541 C 110.093 18.137,109.537 18.889,109.169 19.211 C 108.801 19.532,108.499 20.073,108.499 20.412 C 108.499 21.029,107.692 22.061,107.209 22.061 C 106.807 22.061,105.992 23.267,105.979 23.880 C 105.973 24.185,105.642 24.668,105.244 24.955 C 104.846 25.242,104.519 25.644,104.518 25.848 C 104.516 26.053,103.946 26.820,103.252 27.553 C 102.557 28.285,101.989 29.104,101.989 29.372 C 101.989 29.639,101.664 30.093,101.266 30.380 C 100.868 30.666,100.542 31.075,100.542 31.288 C 100.542 31.501,99.973 32.280,99.277 33.018 C 98.580 33.756,98.011 34.603,98.011 34.901 C 98.011 35.199,97.848 35.443,97.649 35.443 C 97.450 35.443,97.288 35.613,97.288 35.821 C 97.288 36.029,96.921 36.591,96.474 37.070 C 95.117 38.520,94.756 39.012,94.756 39.406 C 94.756 39.613,94.593 39.783,94.394 39.783 C 94.195 39.783,94.033 40.027,94.033 40.325 C 94.033 40.623,93.463 41.470,92.767 42.208 C 92.071 42.946,91.501 43.725,91.501 43.938 C 91.501 44.151,91.175 44.560,90.778 44.846 C 90.380 45.133,90.054 45.657,90.054 46.011 C 90.054 46.365,89.892 46.655,89.693 46.655 C 89.494 46.655,89.331 46.899,89.331 47.197 C 89.331 47.495,89.100 47.740,88.819 47.740 C 88.537 47.740,88.090 48.228,87.826 48.825 C 87.562 49.421,87.223 49.910,87.073 49.910 C 86.922 49.910,86.799 50.079,86.799 50.286 C 86.799 50.494,86.474 51.013,86.076 51.440 C 85.678 51.867,85.353 52.429,85.353 52.690 C 85.353 52.951,85.167 53.165,84.940 53.165 C 84.445 53.165,83.572 54.250,83.556 54.886 C 83.549 55.136,83.056 55.852,82.459 56.476 C 81.863 57.101,81.374 57.913,81.374 58.281 C 81.374 58.650,81.200 58.951,80.987 58.951 C 80.474 58.951,79.566 59.876,79.566 60.398 C 79.566 60.625,79.363 61.017,79.114 61.268 C 78.865 61.519,78.336 62.172,77.939 62.718 C 77.541 63.264,76.863 64.130,76.433 64.641 C 76.003 65.152,75.433 65.994,75.167 66.511 C 74.901 67.027,74.317 67.824,73.870 68.280 C 73.422 68.737,73.056 69.267,73.056 69.459 C 73.056 69.651,72.568 70.319,71.971 70.943 C 71.374 71.567,70.886 72.298,70.886 72.567 C 70.886 72.836,70.723 73.056,70.524 73.056 C 70.325 73.056,70.163 73.283,70.163 73.560 C 70.163 73.837,69.919 74.157,69.620 74.272 C 69.322 74.386,69.078 74.693,69.078 74.954 C 69.078 75.215,68.752 75.663,68.354 75.949 C 67.957 76.236,67.631 76.679,67.631 76.933 C 67.631 77.188,67.468 77.396,67.269 77.396 C 67.071 77.396,66.908 77.686,66.908 78.040 C 66.908 78.393,66.569 78.922,66.154 79.215 C 65.739 79.507,65.146 80.235,64.835 80.832 C 64.524 81.429,63.968 82.180,63.599 82.502 C 63.231 82.823,62.929 83.259,62.929 83.471 C 62.929 83.682,62.360 84.458,61.664 85.197 C 60.967 85.935,60.398 86.760,60.398 87.031 C 60.398 87.301,60.235 87.523,60.036 87.523 C 59.837 87.523,59.675 87.767,59.675 88.065 C 59.675 88.363,59.512 88.608,59.313 88.608 C 59.114 88.608,58.951 88.933,58.951 89.331 C 58.951 89.729,58.777 90.054,58.564 90.054 C 58.063 90.054,57.143 90.974,57.143 91.475 C 57.143 91.688,56.980 91.863,56.781 91.863 C 56.582 91.863,56.420 92.188,56.420 92.586 C 56.420 92.984,56.257 93.309,56.058 93.309 C 55.818 93.309,55.696 124.593,55.696 186.438 C 55.696 279.325,55.698 279.566,56.420 279.566 C 56.817 279.566,57.143 279.729,57.143 279.928 C 57.143 280.127,57.712 280.289,58.409 280.289 C 59.293 280.289,59.675 280.453,59.675 280.832 C 59.675 281.170,60.017 281.374,60.584 281.374 C 61.084 281.374,61.816 281.537,62.211 281.736 C 62.606 281.935,63.253 282.260,63.648 282.459 C 64.043 282.658,64.775 282.821,65.275 282.821 C 65.775 282.821,66.184 282.984,66.184 283.183 C 66.184 283.382,66.603 283.544,67.114 283.544 C 67.626 283.544,68.289 283.788,68.587 284.087 C 68.885 284.385,69.525 284.629,70.008 284.629 C 70.491 284.629,70.886 284.792,70.886 284.991 C 70.886 285.190,71.374 285.353,71.971 285.353 C 72.568 285.353,73.056 285.515,73.056 285.714 C 73.056 285.913,73.463 286.076,73.960 286.076 C 74.458 286.076,74.864 286.239,74.864 286.438 C 74.864 286.637,75.434 286.799,76.130 286.799 C 76.826 286.799,77.396 286.962,77.396 287.161 C 77.396 287.360,77.867 287.523,78.442 287.523 C 79.039 287.523,79.578 287.756,79.697 288.065 C 79.818 288.382,80.360 288.608,81.001 288.608 C 81.604 288.608,82.098 288.770,82.098 288.969 C 82.098 289.168,82.495 289.331,82.980 289.331 C 83.466 289.331,83.964 289.494,84.087 289.693 C 84.210 289.892,84.708 290.054,85.193 290.054 C 85.679 290.054,86.076 290.217,86.076 290.416 C 86.076 290.615,86.555 290.778,87.140 290.778 C 87.725 290.778,88.304 290.940,88.427 291.139 C 88.550 291.338,89.112 291.501,89.675 291.501 C 90.253 291.501,90.791 291.738,90.908 292.043 C 91.030 292.361,91.572 292.586,92.213 292.586 C 92.816 292.586,93.309 292.749,93.309 292.948 C 93.309 293.146,93.716 293.309,94.213 293.309 C 94.711 293.309,95.118 293.472,95.118 293.671 C 95.118 293.870,95.606 294.033,96.203 294.033 C 96.799 294.033,97.288 294.195,97.288 294.394 C 97.288 294.593,97.766 294.756,98.351 294.756 C 98.936 294.756,99.515 294.919,99.638 295.118 C 99.761 295.316,100.340 295.479,100.926 295.479 C 101.630 295.479,101.989 295.662,101.989 296.022 C 101.989 296.360,102.331 296.564,102.898 296.564 C 103.398 296.564,104.131 296.727,104.526 296.926 C 104.921 297.125,105.567 297.450,105.963 297.649 C 106.358 297.848,107.090 298.011,107.590 298.011 C 108.090 298.011,108.499 298.174,108.499 298.373 C 108.499 298.571,108.918 298.734,109.429 298.734 C 109.941 298.734,110.603 298.978,110.902 299.277 C 111.200 299.575,111.839 299.819,112.322 299.819 C 112.805 299.819,113.201 299.982,113.201 300.181 C 113.201 300.380,113.447 300.542,113.749 300.542 C 114.626 300.542,117.179 301.416,117.179 301.716 C 117.179 301.866,118.074 301.989,119.168 301.989 L 121.157 301.989 121.157 281.576 C 121.157 268.358,121.030 261.085,120.796 260.940 C 120.294 260.630,120.295 131.567,120.797 131.066 C 121.037 130.825,121.129 109.853,121.068 68.878 L 120.976 7.052 119.530 6.957 C 118.325 6.878,117.948 7.029,117.274 7.862 M285.353 32.007 C 285.353 32.306,285.515 32.550,285.714 32.550 C 285.954 32.550,286.076 65.011,286.076 129.209 L 286.076 225.868 285.262 226.227 C 284.608 226.516,284.289 226.430,283.635 225.787 L 282.821 224.988 282.821 129.130 C 282.821 76.409,282.956 33.273,283.122 33.273 C 283.287 33.273,283.640 32.866,283.906 32.369 C 284.437 31.376,285.353 31.148,285.353 32.007 M274.361 37.884 C 274.970 38.686,275.111 230.380,274.503 230.380 C 274.304 230.380,274.141 230.606,274.141 230.884 C 274.141 231.357,273.407 231.826,272.665 231.826 C 272.482 231.826,272.333 231.582,272.333 231.284 C 272.333 230.986,272.170 230.741,271.971 230.741 C 271.388 230.741,271.478 38.455,272.061 37.792 C 272.686 37.083,273.786 37.126,274.361 37.884 M134.901 194.806 C 134.901 297.935,134.933 303.562,135.533 304.017 C 135.882 304.282,136.777 304.503,137.523 304.509 C 138.269 304.516,138.879 304.684,138.879 304.882 C 138.879 305.081,139.448 305.244,140.145 305.244 C 140.841 305.244,141.410 305.407,141.410 305.606 C 141.410 305.805,141.889 305.967,142.474 305.967 C 143.059 305.967,143.638 306.130,143.761 306.329 C 143.884 306.528,144.444 306.691,145.004 306.691 C 145.565 306.691,146.226 306.935,146.474 307.233 C 146.721 307.532,147.474 307.776,148.146 307.776 C 148.817 307.776,149.367 307.939,149.367 308.137 C 149.367 308.336,149.855 308.499,150.452 308.499 C 151.049 308.499,151.537 308.662,151.537 308.861 C 151.537 309.060,152.107 309.222,152.803 309.222 C 153.499 309.222,154.069 309.385,154.069 309.584 C 154.069 309.783,154.569 309.946,155.180 309.946 C 155.790 309.946,156.534 310.190,156.833 310.488 C 157.533 311.188,159.636 311.188,160.217 310.488 C 160.465 310.190,160.973 309.946,161.346 309.946 C 161.720 309.946,162.025 309.783,162.025 309.584 C 162.025 309.385,162.423 309.222,162.908 309.222 C 163.394 309.222,163.892 309.060,164.014 308.861 C 164.137 308.662,164.635 308.499,165.121 308.499 C 165.606 308.499,166.004 308.336,166.004 308.137 C 166.004 307.939,166.329 307.776,166.727 307.776 C 167.129 307.776,167.450 307.535,167.450 307.233 C 167.450 306.874,167.810 306.691,168.514 306.691 C 169.099 306.691,169.678 306.528,169.801 306.329 C 169.924 306.130,170.340 305.967,170.727 305.967 C 171.113 305.967,171.429 305.805,171.429 305.606 C 171.429 305.407,171.835 305.244,172.333 305.244 C 172.830 305.244,173.237 305.111,173.237 304.948 C 173.237 304.785,174.069 304.425,175.086 304.148 C 176.103 303.871,177.015 303.435,177.114 303.179 C 177.212 302.922,177.601 302.712,177.977 302.712 C 178.354 302.712,178.662 302.550,178.662 302.351 C 178.662 302.152,179.150 301.989,179.747 301.989 C 180.344 301.989,180.832 301.826,180.832 301.627 C 180.832 301.429,181.239 301.266,181.736 301.266 C 182.233 301.266,182.640 301.103,182.640 300.904 C 182.640 300.705,183.047 300.542,183.544 300.542 C 184.042 300.542,184.448 300.380,184.448 300.181 C 184.448 299.982,184.754 299.819,185.128 299.819 C 185.501 299.819,186.009 299.575,186.257 299.277 C 186.504 298.978,187.094 298.734,187.567 298.734 C 188.040 298.734,188.427 298.571,188.427 298.373 C 188.427 298.174,188.752 298.011,189.150 298.011 C 189.548 298.011,189.873 297.848,189.873 297.649 C 189.873 297.450,190.271 297.288,190.756 297.288 C 191.242 297.288,191.740 297.125,191.863 296.926 C 191.986 296.727,192.407 296.564,192.799 296.564 C 193.192 296.564,193.606 296.320,193.721 296.022 C 193.835 295.723,194.319 295.479,194.795 295.479 C 195.271 295.479,195.660 295.316,195.660 295.118 C 195.660 294.919,196.057 294.756,196.543 294.756 C 197.028 294.756,197.526 294.593,197.649 294.394 C 197.772 294.195,198.270 294.033,198.756 294.033 C 199.241 294.033,199.638 293.870,199.638 293.671 C 199.638 293.472,199.964 293.309,200.362 293.309 C 200.759 293.309,201.085 293.146,201.085 292.948 C 201.085 292.749,201.474 292.586,201.950 292.586 C 202.426 292.586,202.910 292.342,203.024 292.043 C 203.139 291.745,203.644 291.501,204.148 291.501 C 204.651 291.501,205.063 291.338,205.063 291.139 C 205.063 290.940,205.470 290.778,205.967 290.778 C 206.465 290.778,206.872 290.615,206.872 290.416 C 206.872 290.217,207.121 290.054,207.426 290.054 C 207.731 290.054,208.464 289.560,209.054 288.957 L 210.127 287.859 210.127 209.029 C 210.127 141.890,210.052 130.199,209.623 130.199 C 209.346 130.199,209.025 129.955,208.911 129.656 C 208.796 129.358,208.453 129.114,208.149 129.114 C 207.844 129.114,207.595 128.951,207.595 128.752 C 207.595 128.553,207.269 128.391,206.872 128.391 C 206.474 128.391,206.148 128.228,206.148 128.029 C 206.148 127.830,205.904 127.667,205.606 127.667 C 205.307 127.667,205.063 127.505,205.063 127.306 C 205.063 127.107,204.751 126.944,204.370 126.944 C 203.989 126.944,203.623 126.822,203.556 126.673 C 203.383 126.283,200.447 124.412,200.008 124.412 C 199.805 124.412,199.638 124.250,199.638 124.051 C 199.638 123.852,199.245 123.689,198.764 123.689 C 198.284 123.689,197.836 123.560,197.770 123.403 C 197.535 122.845,195.040 121.157,194.450 121.157 C 194.121 121.157,193.852 120.995,193.852 120.796 C 193.852 120.597,193.638 120.434,193.377 120.434 C 193.117 120.434,192.554 120.108,192.127 119.711 C 191.700 119.313,191.018 118.987,190.612 118.987 C 190.197 118.987,189.873 118.750,189.873 118.445 C 189.873 118.146,189.670 117.899,189.421 117.894 C 189.173 117.890,188.562 117.568,188.065 117.179 C 187.568 116.790,186.876 116.468,186.528 116.464 C 186.180 116.459,185.895 116.293,185.895 116.094 C 185.895 115.895,185.679 115.732,185.416 115.732 C 185.152 115.732,184.554 115.325,184.087 114.828 C 183.620 114.331,182.940 113.924,182.577 113.924 C 182.214 113.924,181.917 113.761,181.917 113.562 C 181.917 113.363,181.666 113.201,181.359 113.201 C 181.053 113.201,180.452 112.875,180.025 112.477 C 179.598 112.080,178.954 111.754,178.594 111.754 C 178.233 111.754,177.939 111.510,177.939 111.212 C 177.939 110.910,177.617 110.669,177.215 110.669 C 176.817 110.669,176.492 110.506,176.492 110.307 C 176.492 110.108,176.248 109.946,175.949 109.946 C 175.651 109.946,175.407 109.783,175.407 109.584 C 175.407 109.385,175.081 109.222,174.684 109.222 C 174.286 109.222,173.960 109.060,173.960 108.861 C 173.960 108.662,173.635 108.499,173.237 108.499 C 172.839 108.499,172.514 108.336,172.514 108.137 C 172.514 107.939,172.287 107.776,172.010 107.776 C 171.733 107.776,171.412 107.532,171.298 107.233 C 171.183 106.935,170.840 106.691,170.536 106.691 C 170.231 106.691,169.982 106.558,169.982 106.397 C 169.982 106.235,169.412 105.879,168.716 105.606 C 168.020 105.333,167.450 104.977,167.450 104.815 C 167.450 104.653,167.125 104.521,166.727 104.521 C 166.329 104.521,166.004 104.358,166.004 104.159 C 166.004 103.960,165.777 103.797,165.500 103.797 C 165.223 103.797,164.902 103.553,164.788 103.255 C 164.673 102.957,164.330 102.712,164.026 102.712 C 163.721 102.712,163.472 102.550,163.472 102.351 C 163.472 102.152,163.146 101.989,162.749 101.989 C 162.351 101.989,162.025 101.866,162.025 101.716 C 162.025 101.565,161.496 101.209,160.850 100.924 C 160.203 100.639,159.477 100.233,159.235 100.022 C 158.187 99.107,157.801 98.861,156.691 98.406 C 156.044 98.140,155.515 97.780,155.515 97.605 C 155.515 97.431,155.190 97.288,154.792 97.288 C 154.394 97.288,154.069 97.125,154.069 96.926 C 154.069 96.727,153.864 96.564,153.613 96.564 C 153.362 96.564,152.718 96.157,152.182 95.660 C 151.646 95.163,150.956 94.756,150.649 94.756 C 150.342 94.756,150.090 94.624,150.090 94.462 C 150.090 94.300,149.521 93.944,148.825 93.671 C 148.128 93.398,147.559 93.042,147.559 92.880 C 147.559 92.718,147.233 92.586,146.835 92.586 C 146.438 92.586,146.112 92.431,146.112 92.241 C 146.112 92.052,145.542 91.626,144.846 91.296 C 144.150 90.965,143.580 90.551,143.580 90.375 C 143.580 90.198,143.255 90.054,142.857 90.054 C 142.459 90.054,142.134 89.892,142.134 89.693 C 142.134 89.494,141.890 89.331,141.591 89.331 C 141.293 89.331,141.049 89.187,141.049 89.011 C 141.049 88.836,140.764 88.593,140.416 88.472 C 140.068 88.352,138.969 87.768,137.975 87.176 C 136.980 86.584,135.882 86.094,135.533 86.088 C 134.932 86.077,134.901 91.490,134.901 194.806 M110.669 106.521 C 110.669 106.826,110.913 107.169,111.212 107.283 C 111.949 107.566,112.026 116.456,111.291 116.456 C 111.037 116.456,110.594 116.781,110.307 117.179 C 109.674 118.058,102.188 118.264,100.437 117.450 L 99.463 116.998 99.460 111.844 C 99.458 107.503,99.543 106.691,100.000 106.691 C 100.298 106.691,100.542 106.528,100.542 106.329 C 100.542 106.105,102.471 105.967,105.606 105.967 C 109.912 105.967,110.669 106.050,110.669 106.521 M110.669 137.569 C 110.669 137.843,110.913 138.270,111.212 138.517 C 112.137 139.285,111.984 146.839,111.027 147.659 C 110.286 148.293,101.473 148.616,100.030 148.063 C 99.163 147.730,99.186 138.693,100.056 137.732 C 100.845 136.860,110.669 136.709,110.669 137.569 M199.031 142.600 C 200.147 143.820,200.362 144.794,200.362 148.639 C 200.362 151.053,200.219 152.622,200.000 152.622 C 199.801 152.622,199.638 152.948,199.638 153.345 C 199.638 154.290,189.870 154.478,188.943 153.552 C 188.017 152.626,188.206 142.857,189.150 142.857 C 189.548 142.857,189.873 142.694,189.873 142.495 C 189.873 141.925,198.504 142.024,199.031 142.600 M110.669 168.897 C 110.669 169.096,110.913 169.259,111.212 169.259 C 112.066 169.259,111.990 177.103,111.121 178.630 L 110.488 179.742 105.515 179.745 C 102.440 179.746,100.542 179.609,100.542 179.385 C 100.542 179.186,100.298 179.024,100.000 179.024 C 99.431 179.024,99.146 169.329,99.699 168.776 C 100.099 168.376,110.669 168.492,110.669 168.897 M199.505 174.231 C 200.293 175.147,200.361 175.543,200.361 179.204 C 200.361 185.009,200.189 185.172,194.055 185.172 C 188.134 185.172,188.427 185.482,188.427 179.215 C 188.427 172.936,188.117 173.268,193.990 173.251 C 198.632 173.237,198.653 173.241,199.505 174.231 M110.759 199.813 C 111.889 200.807,112.372 209.403,111.299 209.403 C 111.048 209.403,110.640 209.729,110.391 210.127 C 109.887 210.934,100.542 211.277,100.542 210.488 C 100.542 210.289,100.298 210.127,100.000 210.127 C 99.543 210.127,99.458 209.303,99.458 204.882 C 99.458 200.462,99.543 199.638,100.000 199.638 C 100.298 199.638,100.542 199.476,100.542 199.277 C 100.542 198.390,109.689 198.871,110.759 199.813 M199.638 205.042 C 199.638 205.428,199.801 205.845,200.000 205.967 C 200.529 206.295,200.455 213.399,199.910 214.572 L 199.458 215.546 193.942 215.549 L 188.427 215.552 188.427 210.473 C 188.427 203.972,188.032 204.371,194.485 204.354 C 199.350 204.341,199.638 204.379,199.638 205.042 M199.910 236.784 C 200.459 237.967,200.537 245.208,200.000 245.208 C 199.801 245.208,199.638 245.615,199.638 246.112 L 199.638 247.016 194.525 247.016 C 188.100 247.016,188.454 247.378,188.438 240.778 L 188.427 235.805 193.942 235.808 L 199.458 235.810 199.910 236.784 " stroke="none" fill="#3c3c7c" fill-rule="evenodd"></path></g></svg>