<svg id="svg" version="1.1" xmlns="http://www.w3.org/2000/svg" xmlns:xlink="http://www.w3.org/1999/xlink" width="400" height="137.04115684093438" viewBox="0, 0, 400,137.04115684093438"><g id="svgg"><path id="path0" d="M227.083 70.935 C 226.900 70.980,226.600 71.082,226.417 71.162 C 226.233 71.242,225.861 71.356,225.589 71.416 C 225.317 71.476,224.717 71.696,224.255 71.906 C 222.174 72.853,221.827 73.000,221.668 73.000 C 221.576 73.000,221.500 73.063,221.500 73.140 C 221.500 73.217,221.200 73.379,220.833 73.500 C 220.467 73.621,220.167 73.775,220.167 73.842 C 220.167 73.909,219.984 74.010,219.762 74.066 C 219.539 74.121,219.258 74.266,219.137 74.386 C 218.898 74.624,216.761 75.667,216.513 75.667 C 216.430 75.667,216.336 75.723,216.306 75.792 C 216.248 75.921,215.844 76.143,213.167 77.514 C 212.296 77.960,211.508 78.387,211.417 78.463 C 211.325 78.540,211.006 78.710,210.708 78.842 C 210.410 78.973,210.167 79.126,210.167 79.181 C 210.167 79.235,209.867 79.379,209.500 79.500 C 209.133 79.621,208.833 79.777,208.833 79.847 C 208.833 79.916,208.608 80.023,208.332 80.084 C 208.056 80.144,207.735 80.282,207.618 80.389 C 207.502 80.496,206.884 80.846,206.245 81.167 C 205.606 81.487,205.046 81.796,205.000 81.852 C 204.954 81.907,204.635 82.054,204.292 82.177 C 203.948 82.300,203.667 82.448,203.667 82.507 C 203.667 82.565,203.367 82.712,203.000 82.833 C 202.633 82.954,202.333 83.116,202.333 83.193 C 202.333 83.270,202.260 83.333,202.171 83.333 C 202.081 83.333,201.517 83.558,200.917 83.833 C 200.316 84.108,199.752 84.333,199.662 84.333 C 199.573 84.333,199.500 84.396,199.500 84.474 C 199.500 84.551,199.200 84.704,198.833 84.814 C 198.467 84.923,198.167 85.085,198.167 85.173 C 198.167 85.261,198.028 85.333,197.858 85.333 C 197.688 85.333,197.213 85.512,196.802 85.731 C 196.391 85.949,195.817 86.180,195.527 86.244 C 195.237 86.308,195.000 86.423,195.000 86.500 C 195.000 86.577,194.756 86.692,194.458 86.756 C 194.160 86.819,193.598 87.014,193.208 87.190 C 192.819 87.365,192.256 87.555,191.958 87.611 C 191.660 87.667,191.342 87.771,191.250 87.841 C 190.501 88.416,185.167 88.406,185.167 87.831 C 185.167 87.764,184.708 87.620,184.146 87.509 C 183.585 87.399,182.891 87.208,182.605 87.085 C 181.859 86.765,180.025 86.206,179.292 86.075 C 178.948 86.013,178.667 85.900,178.667 85.822 C 178.667 85.745,178.385 85.632,178.042 85.571 C 177.698 85.510,177.192 85.362,176.917 85.241 C 176.642 85.120,175.704 84.786,174.833 84.498 C 173.963 84.210,173.100 83.911,172.917 83.832 C 172.733 83.754,172.283 83.604,171.917 83.500 C 171.550 83.396,171.100 83.247,170.917 83.170 C 170.733 83.093,169.833 82.792,168.917 82.502 C 168.000 82.211,167.025 81.876,166.750 81.756 C 166.475 81.637,165.950 81.486,165.583 81.422 C 165.217 81.357,164.842 81.244,164.750 81.170 C 164.658 81.097,164.133 80.940,163.583 80.821 C 163.033 80.701,162.537 80.537,162.481 80.454 C 162.004 79.755,158.818 80.272,157.725 81.227 C 156.947 81.907,155.216 83.655,154.634 84.349 C 154.295 84.753,153.789 85.356,153.509 85.689 C 153.229 86.022,153.000 86.340,153.000 86.397 C 153.000 86.454,152.869 86.641,152.708 86.814 C 152.548 86.986,152.282 87.305,152.118 87.522 C 151.954 87.739,151.635 88.142,151.410 88.417 C 151.185 88.692,151.000 88.973,151.000 89.042 C 151.000 89.110,150.847 89.335,150.659 89.542 C 150.109 90.147,149.934 90.375,149.412 91.167 C 149.140 91.579,148.824 91.977,148.709 92.050 C 148.594 92.123,148.500 92.275,148.500 92.388 C 148.500 92.500,148.369 92.714,148.208 92.863 C 148.048 93.012,147.729 93.411,147.500 93.750 C 147.271 94.089,146.952 94.488,146.792 94.637 C 146.631 94.786,146.500 95.000,146.500 95.112 C 146.500 95.225,146.406 95.377,146.292 95.450 C 146.058 95.600,145.000 96.929,145.000 97.074 C 145.000 97.125,144.869 97.311,144.708 97.488 C 144.079 98.182,144.000 98.340,144.000 98.910 C 144.000 99.625,144.945 99.774,145.683 99.175 C 146.709 98.344,147.077 98.023,147.942 97.208 C 148.452 96.727,148.918 96.333,148.977 96.332 C 149.035 96.332,149.736 95.713,150.535 94.957 C 151.333 94.202,152.447 93.171,153.011 92.667 C 153.576 92.162,154.204 91.600,154.409 91.417 C 154.722 91.136,155.487 90.519,156.470 89.755 C 156.591 89.660,156.819 89.471,156.975 89.333 C 157.132 89.196,157.483 88.971,157.755 88.833 C 158.027 88.696,158.353 88.486,158.478 88.367 C 158.604 88.248,158.923 88.107,159.187 88.054 C 159.451 88.002,159.667 87.893,159.667 87.813 C 159.667 87.732,159.817 87.667,160.000 87.667 C 160.183 87.667,160.333 87.732,160.333 87.813 C 160.333 87.893,160.549 88.002,160.813 88.054 C 161.077 88.107,161.396 88.251,161.522 88.374 C 161.647 88.497,162.012 88.702,162.333 88.831 C 162.654 88.959,162.954 89.106,163.000 89.157 C 163.046 89.208,163.346 89.383,163.667 89.546 C 163.987 89.709,164.775 90.138,165.417 90.500 C 166.058 90.862,166.846 91.291,167.167 91.454 C 167.487 91.617,167.787 91.787,167.833 91.833 C 167.879 91.879,168.442 92.179,169.083 92.500 C 169.725 92.821,170.287 93.129,170.333 93.185 C 170.379 93.241,170.698 93.387,171.042 93.510 C 171.385 93.633,171.667 93.782,171.667 93.840 C 171.667 93.899,171.967 94.046,172.333 94.167 C 172.700 94.288,173.000 94.438,173.000 94.500 C 173.000 94.562,173.300 94.712,173.667 94.833 C 174.033 94.954,174.333 95.104,174.333 95.167 C 174.333 95.229,174.633 95.379,175.000 95.500 C 175.367 95.621,175.667 95.773,175.667 95.838 C 175.667 95.903,176.004 96.051,176.417 96.167 C 176.829 96.282,177.167 96.430,177.167 96.495 C 177.167 96.561,177.467 96.704,177.833 96.814 C 178.200 96.923,178.500 97.071,178.500 97.142 C 178.500 97.213,178.875 97.366,179.333 97.484 C 179.792 97.601,180.167 97.752,180.167 97.819 C 180.167 97.885,180.542 98.042,181.000 98.167 C 181.458 98.291,181.833 98.445,181.833 98.507 C 181.833 98.570,182.283 98.717,182.833 98.833 C 183.383 98.950,183.833 99.100,183.833 99.167 C 183.833 99.233,184.302 99.380,184.875 99.492 C 185.448 99.604,186.067 99.764,186.250 99.848 C 187.542 100.435,193.167 100.426,193.167 99.837 C 193.167 99.766,193.393 99.663,193.669 99.608 C 193.946 99.552,194.586 99.318,195.091 99.087 C 195.596 98.856,196.083 98.667,196.172 98.667 C 196.261 98.667,196.333 98.597,196.333 98.513 C 196.333 98.428,196.596 98.273,196.917 98.167 C 197.237 98.061,197.500 97.908,197.500 97.827 C 197.500 97.746,197.800 97.590,198.167 97.480 C 198.533 97.370,198.833 97.227,198.833 97.161 C 198.833 97.094,199.058 96.947,199.333 96.833 C 199.608 96.719,199.833 96.579,199.833 96.520 C 199.833 96.462,200.077 96.307,200.375 96.175 C 200.673 96.043,200.992 95.874,201.083 95.799 C 201.423 95.520,202.426 94.897,202.708 94.789 C 202.869 94.727,203.000 94.600,203.000 94.505 C 203.000 94.411,203.087 94.333,203.193 94.333 C 203.299 94.333,203.617 94.157,203.901 93.941 C 204.185 93.725,204.585 93.495,204.792 93.429 C 204.998 93.364,205.167 93.250,205.167 93.176 C 205.167 93.101,205.392 92.947,205.667 92.833 C 205.942 92.719,206.167 92.558,206.167 92.476 C 206.167 92.393,206.354 92.254,206.583 92.167 C 206.813 92.080,207.000 91.931,207.000 91.837 C 207.000 91.744,207.087 91.667,207.193 91.667 C 207.299 91.667,207.617 91.492,207.901 91.279 C 208.185 91.066,208.548 90.844,208.708 90.785 C 208.869 90.726,209.000 90.600,209.000 90.505 C 209.000 90.411,209.094 90.333,209.208 90.333 C 209.323 90.333,209.679 90.108,210.000 89.833 C 210.321 89.559,210.677 89.334,210.792 89.334 C 210.906 89.334,211.000 89.256,211.000 89.163 C 211.000 89.069,211.188 88.920,211.417 88.833 C 211.646 88.746,211.833 88.616,211.833 88.545 C 211.833 88.473,212.070 88.310,212.358 88.182 C 212.647 88.054,213.017 87.830,213.180 87.683 C 213.637 87.272,213.878 87.103,214.375 86.847 C 214.627 86.717,214.833 86.557,214.833 86.492 C 214.833 86.427,215.058 86.281,215.333 86.167 C 215.608 86.053,215.833 85.903,215.833 85.833 C 215.833 85.764,216.058 85.614,216.333 85.500 C 216.608 85.386,216.833 85.236,216.833 85.167 C 216.833 85.097,217.058 84.947,217.333 84.833 C 217.608 84.719,217.833 84.560,217.833 84.480 C 217.833 84.399,217.920 84.333,218.026 84.333 C 218.132 84.333,218.451 84.159,218.734 83.946 C 219.018 83.733,219.381 83.510,219.542 83.451 C 219.702 83.392,219.833 83.272,219.833 83.185 C 219.833 83.098,220.058 82.977,220.332 82.917 C 220.607 82.857,220.888 82.719,220.957 82.612 C 221.027 82.505,221.346 82.282,221.667 82.118 C 221.987 81.954,223.035 81.410,223.995 80.910 C 224.955 80.409,225.874 80.000,226.037 80.000 C 226.200 80.000,226.333 79.932,226.333 79.848 C 226.333 79.544,228.576 79.293,229.315 79.514 C 229.692 79.627,230.000 79.784,230.000 79.864 C 230.000 79.943,230.188 80.080,230.417 80.167 C 230.646 80.254,230.833 80.402,230.833 80.496 C 230.833 80.590,230.916 80.667,231.018 80.667 C 231.119 80.667,231.405 80.835,231.653 81.042 C 231.902 81.248,232.318 81.567,232.578 81.750 C 232.838 81.933,233.189 82.215,233.359 82.375 C 233.528 82.535,233.741 82.667,233.832 82.667 C 233.923 82.667,234.091 82.817,234.205 83.000 C 234.320 83.183,234.500 83.333,234.606 83.333 C 234.712 83.333,234.975 83.520,235.191 83.747 C 235.407 83.975,235.674 84.162,235.786 84.164 C 235.897 84.165,236.069 84.317,236.167 84.500 C 236.265 84.683,236.436 84.835,236.548 84.836 C 236.659 84.838,236.927 85.025,237.142 85.253 C 237.358 85.480,237.622 85.667,237.727 85.667 C 237.833 85.667,238.013 85.817,238.128 86.000 C 238.242 86.183,238.413 86.333,238.507 86.333 C 238.601 86.333,238.898 86.558,239.167 86.833 C 239.435 87.108,239.704 87.333,239.764 87.333 C 239.824 87.333,240.118 87.540,240.418 87.792 C 240.718 88.044,241.159 88.400,241.397 88.583 C 241.635 88.767,242.009 89.067,242.227 89.250 C 242.445 89.433,242.825 89.729,243.072 89.906 C 243.319 90.084,243.662 90.351,243.833 90.500 C 244.005 90.649,244.346 90.916,244.592 91.094 C 245.119 91.475,245.699 91.941,246.282 92.453 C 246.514 92.656,246.839 92.865,247.003 92.918 C 247.168 92.970,247.345 93.122,247.396 93.256 C 247.447 93.390,247.602 93.500,247.739 93.500 C 247.876 93.500,248.069 93.650,248.167 93.833 C 248.265 94.017,248.457 94.167,248.594 94.167 C 248.732 94.167,248.884 94.272,248.934 94.401 C 248.983 94.531,249.244 94.727,249.512 94.838 C 249.780 94.949,250.000 95.108,250.000 95.191 C 250.000 95.274,250.188 95.413,250.417 95.500 C 250.646 95.587,250.833 95.735,250.833 95.829 C 250.833 95.923,250.927 96.003,251.042 96.007 C 251.156 96.010,251.510 96.235,251.827 96.507 C 252.144 96.778,252.501 97.000,252.619 97.000 C 252.737 97.000,252.833 97.066,252.833 97.146 C 252.833 97.227,253.077 97.393,253.375 97.514 C 253.673 97.636,254.016 97.833,254.137 97.951 C 254.258 98.070,254.624 98.167,254.949 98.167 L 255.541 98.167 255.467 97.275 C 255.427 96.785,255.303 96.279,255.192 96.150 C 255.082 96.022,254.749 95.542,254.454 95.084 C 254.158 94.626,253.804 94.123,253.667 93.966 C 253.529 93.809,253.179 93.396,252.888 93.048 C 251.398 91.267,250.601 90.352,249.998 89.732 C 249.633 89.355,249.333 88.999,249.333 88.940 C 249.333 88.881,248.940 88.424,248.458 87.923 C 247.977 87.422,247.407 86.803,247.191 86.548 C 246.975 86.292,246.424 85.671,245.968 85.167 C 245.511 84.662,244.675 83.733,244.111 83.102 C 243.546 82.471,242.783 81.643,242.417 81.261 C 242.050 80.880,241.401 80.159,240.974 79.659 C 239.363 77.771,235.296 73.757,233.729 72.508 C 233.364 72.217,231.617 71.333,231.407 71.333 C 231.290 71.333,231.165 71.246,231.130 71.139 C 231.063 70.938,227.745 70.771,227.083 70.935 " stroke="none" fill="#ec3434" fill-rule="evenodd"></path><path id="path1" d="M177.712 35.833 C 177.712 36.246,177.745 36.415,177.784 36.208 C 177.824 36.002,177.824 35.665,177.784 35.458 C 177.745 35.252,177.712 35.421,177.712 35.833 M172.792 46.789 C 173.181 46.824,173.819 46.824,174.208 46.789 C 174.598 46.754,174.279 46.725,173.500 46.725 C 172.721 46.725,172.402 46.754,172.792 46.789 M197.542 60.121 C 197.885 60.157,198.448 60.157,198.792 60.121 C 199.135 60.085,198.854 60.056,198.167 60.056 C 197.479 60.056,197.198 60.085,197.542 60.121 M329.125 117.360 C 328.690 117.457,328.333 117.597,328.333 117.671 C 328.333 117.746,328.103 117.857,327.822 117.919 C 327.541 117.981,327.271 118.134,327.223 118.259 C 327.175 118.385,327.001 118.530,326.837 118.582 C 326.673 118.634,326.324 118.993,326.061 119.380 C 325.799 119.767,325.532 120.123,325.468 120.171 C 324.844 120.640,324.904 124.707,325.546 125.429 C 325.658 125.555,325.900 125.856,326.083 126.097 C 326.587 126.760,327.954 128.000,328.180 128.000 C 328.251 128.000,328.409 128.094,328.530 128.208 C 328.651 128.323,329.575 128.829,330.583 129.333 C 331.592 129.837,332.442 130.306,332.472 130.375 C 332.503 130.444,332.603 130.500,332.694 130.500 C 333.077 130.500,334.327 131.727,334.511 132.283 C 334.953 133.623,334.277 135.132,333.103 135.427 C 332.861 135.487,332.622 135.604,332.572 135.685 C 332.452 135.879,330.667 135.879,330.667 135.685 C 330.667 135.604,330.419 135.491,330.115 135.434 C 328.862 135.199,327.003 133.294,326.498 131.729 C 326.384 131.374,326.232 131.008,326.161 130.917 C 326.090 130.825,326.006 130.563,325.974 130.333 C 325.931 130.021,325.802 129.904,325.458 129.864 L 325.000 129.811 325.000 133.406 L 325.000 137.000 325.429 137.000 C 325.684 137.000,326.062 136.797,326.359 136.500 C 326.853 136.006,327.409 135.949,327.917 136.341 C 329.011 137.187,335.333 137.175,335.333 136.327 C 335.333 136.239,335.446 136.167,335.583 136.167 C 335.983 136.167,337.631 134.366,337.845 133.695 C 337.952 133.359,338.106 133.012,338.187 132.925 C 338.381 132.715,338.376 129.909,338.181 129.539 C 338.097 129.380,337.939 129.010,337.831 128.717 C 337.556 127.974,335.947 126.363,335.090 125.973 C 334.857 125.867,334.667 125.720,334.667 125.647 C 334.667 125.573,334.367 125.423,334.000 125.314 C 333.633 125.204,333.333 125.054,333.333 124.980 C 333.333 124.907,333.033 124.757,332.667 124.647 C 332.300 124.537,332.000 124.389,332.000 124.318 C 332.000 124.247,331.737 124.093,331.417 123.977 C 331.096 123.861,330.833 123.714,330.833 123.649 C 330.833 123.585,330.608 123.454,330.333 123.358 C 330.058 123.262,329.833 123.105,329.833 123.009 C 329.833 122.912,329.730 122.833,329.603 122.833 C 329.190 122.833,328.458 121.680,328.440 121.002 C 328.369 118.300,332.102 117.856,334.438 120.289 C 335.610 121.510,335.651 121.572,335.864 122.495 C 335.970 122.956,336.119 123.333,336.195 123.333 C 336.271 123.333,336.333 123.446,336.333 123.583 C 336.333 123.739,336.491 123.833,336.750 123.833 L 337.167 123.833 337.167 120.500 L 337.167 117.167 336.792 117.169 C 336.520 117.170,336.329 117.353,336.098 117.835 C 335.812 118.432,335.167 118.790,335.167 118.351 C 335.167 118.270,334.963 118.152,334.714 118.089 C 334.465 118.027,333.943 117.830,333.554 117.653 C 332.696 117.263,330.282 117.103,329.125 117.360 M119.848 117.875 C 119.724 118.173,119.633 118.473,119.645 118.542 C 119.657 118.610,119.592 118.667,119.500 118.667 C 119.408 118.667,119.333 118.746,119.333 118.844 C 119.333 118.941,119.138 119.447,118.900 119.969 C 118.662 120.490,118.354 121.179,118.215 121.500 C 117.968 122.072,117.665 122.750,116.913 124.417 C 116.542 125.239,116.120 126.192,115.624 127.333 C 115.484 127.654,115.166 128.367,114.916 128.917 C 114.667 129.467,114.321 130.235,114.148 130.625 C 113.975 131.015,113.683 131.657,113.500 132.053 C 113.317 132.448,113.167 132.861,113.167 132.969 C 113.167 133.078,113.097 133.167,113.013 133.167 C 112.928 133.167,112.772 133.432,112.665 133.756 C 112.369 134.653,111.095 135.833,110.423 135.833 C 110.261 135.833,110.167 135.986,110.167 136.250 L 110.167 136.667 113.500 136.667 L 116.833 136.667 116.833 136.250 C 116.833 135.867,116.772 135.833,116.083 135.833 C 115.671 135.833,115.333 135.776,115.333 135.706 C 115.333 135.636,115.165 135.505,114.958 135.415 C 114.423 135.179,114.450 132.667,114.988 132.667 C 115.060 132.667,115.188 132.423,115.274 132.125 L 115.429 131.583 118.631 131.538 C 120.954 131.505,121.833 131.545,121.833 131.684 C 121.833 131.889,122.550 133.633,122.933 134.359 C 123.409 135.261,122.986 135.784,121.718 135.865 C 121.031 135.909,120.909 135.970,120.863 136.294 L 120.809 136.672 125.613 136.628 C 130.291 136.584,130.417 136.575,130.417 136.250 C 130.417 136.026,130.287 135.898,130.019 135.860 C 129.800 135.830,129.468 135.661,129.279 135.485 C 129.091 135.310,128.891 135.167,128.834 135.167 C 128.707 135.167,127.667 133.099,127.667 132.848 C 127.667 132.748,127.607 132.667,127.535 132.667 C 127.462 132.667,127.312 132.329,127.202 131.917 C 127.092 131.504,126.932 131.167,126.847 131.167 C 126.762 131.167,126.640 130.923,126.576 130.625 C 126.511 130.327,126.325 129.821,126.161 129.500 C 125.621 128.438,125.167 127.383,125.167 127.190 C 125.167 127.086,125.101 127.000,125.022 127.000 C 124.942 127.000,124.782 126.662,124.667 126.250 C 124.551 125.837,124.408 125.500,124.348 125.500 C 124.288 125.500,124.140 125.162,124.018 124.750 C 123.896 124.337,123.738 124.000,123.667 124.000 C 123.595 124.000,123.488 123.740,123.429 123.422 C 123.369 123.104,123.225 122.748,123.109 122.630 C 122.993 122.513,122.798 122.060,122.677 121.625 C 122.556 121.190,122.401 120.833,122.333 120.833 C 122.265 120.833,122.115 120.496,122.000 120.083 C 121.885 119.671,121.734 119.333,121.665 119.333 C 121.596 119.333,121.455 118.996,121.351 118.583 C 121.247 118.171,121.088 117.833,120.998 117.833 C 120.907 117.833,120.833 117.721,120.833 117.583 C 120.833 117.079,120.087 117.300,119.848 117.875 M155.163 117.761 C 155.073 117.996,155.000 118.258,155.000 118.344 C 155.000 118.430,154.926 118.500,154.836 118.500 C 154.745 118.500,154.586 118.837,154.483 119.250 C 154.379 119.662,154.228 120.000,154.147 120.000 C 154.066 120.000,154.000 120.076,154.000 120.168 C 154.000 120.327,153.853 120.674,152.906 122.755 C 152.696 123.217,152.473 123.798,152.411 124.047 C 152.348 124.296,152.231 124.500,152.151 124.500 C 152.071 124.500,151.920 124.837,151.816 125.250 C 151.712 125.662,151.561 126.000,151.480 126.000 C 151.399 126.000,151.333 126.076,151.333 126.168 C 151.333 126.327,151.187 126.674,150.239 128.755 C 150.030 129.217,149.807 129.798,149.744 130.047 C 149.682 130.296,149.565 130.500,149.484 130.500 C 149.404 130.500,149.253 130.837,149.149 131.250 C 149.045 131.662,148.906 132.000,148.840 132.000 C 148.774 132.000,148.621 132.300,148.500 132.667 C 148.379 133.033,148.232 133.333,148.173 133.333 C 148.115 133.333,147.979 133.577,147.871 133.875 C 147.566 134.717,146.479 135.766,145.814 135.860 C 145.551 135.898,145.399 136.043,145.363 136.292 L 145.310 136.667 148.655 136.667 L 152.000 136.667 152.000 136.250 C 152.000 135.875,151.933 135.833,151.333 135.833 C 150.967 135.833,150.667 135.758,150.667 135.667 C 150.667 135.575,150.515 135.500,150.329 135.500 C 149.806 135.500,149.616 134.788,149.854 133.723 C 149.963 133.234,150.113 132.833,150.186 132.833 C 150.260 132.833,150.410 132.533,150.520 132.167 L 150.719 131.500 153.832 131.500 L 156.944 131.500 157.380 132.477 C 157.619 133.014,157.865 133.652,157.926 133.895 C 157.987 134.138,158.104 134.378,158.185 134.428 C 158.864 134.848,158.070 135.820,157.042 135.828 C 156.399 135.833,156.333 135.872,156.333 136.250 L 156.333 136.667 161.000 136.667 L 165.667 136.667 165.667 136.250 C 165.667 135.914,165.584 135.833,165.239 135.833 C 164.784 135.833,163.667 134.810,163.667 134.393 C 163.667 134.269,163.595 134.167,163.507 134.167 C 163.419 134.167,163.257 133.867,163.147 133.500 C 163.037 133.133,162.894 132.833,162.829 132.833 C 162.763 132.833,162.615 132.496,162.500 132.083 C 162.385 131.671,162.234 131.333,162.165 131.333 C 162.096 131.333,161.955 130.996,161.851 130.583 C 161.747 130.171,161.594 129.833,161.511 129.833 C 161.428 129.833,161.308 129.590,161.245 129.292 C 161.182 128.994,160.997 128.525,160.833 128.250 C 160.670 127.975,160.484 127.506,160.421 127.208 C 160.358 126.910,160.246 126.667,160.172 126.667 C 160.098 126.667,159.937 126.329,159.815 125.917 C 159.694 125.504,159.543 125.167,159.482 125.167 C 159.420 125.167,159.318 124.963,159.256 124.714 C 159.193 124.465,158.970 123.883,158.761 123.422 C 157.813 121.340,157.667 120.993,157.667 120.835 C 157.667 120.742,157.600 120.667,157.519 120.667 C 157.437 120.667,157.322 120.407,157.262 120.089 C 157.202 119.771,157.060 119.415,156.946 119.297 C 156.831 119.179,156.639 118.746,156.517 118.333 C 156.197 117.244,155.475 116.939,155.163 117.761 M195.669 118.075 C 195.552 118.492,195.400 118.833,195.330 118.833 C 195.260 118.833,195.152 119.037,195.089 119.286 C 195.027 119.535,194.793 120.124,194.571 120.594 C 194.349 121.064,194.167 121.535,194.167 121.641 C 194.167 121.747,194.108 121.833,194.036 121.833 C 193.965 121.833,193.806 122.171,193.685 122.583 C 193.563 122.996,193.406 123.333,193.337 123.333 C 193.267 123.333,193.115 123.671,193.000 124.083 C 192.885 124.496,192.733 124.833,192.663 124.833 C 192.593 124.833,192.485 125.037,192.422 125.286 C 192.360 125.535,192.127 126.124,191.904 126.594 C 191.682 127.064,191.500 127.535,191.500 127.641 C 191.500 127.747,191.441 127.833,191.370 127.833 C 191.298 127.833,191.140 128.171,191.018 128.583 C 190.896 128.996,190.740 129.333,190.670 129.333 C 190.600 129.333,190.449 129.671,190.333 130.083 C 190.218 130.496,190.066 130.833,189.996 130.833 C 189.927 130.833,189.818 131.037,189.756 131.286 C 189.693 131.535,189.460 132.124,189.238 132.594 C 189.015 133.064,188.833 133.535,188.833 133.641 C 188.833 133.747,188.763 133.833,188.678 133.833 C 188.592 133.833,188.478 133.974,188.423 134.146 C 188.217 134.795,186.986 135.833,186.423 135.833 C 186.261 135.833,186.167 135.986,186.167 136.250 L 186.167 136.667 189.500 136.667 L 192.833 136.667 192.833 136.250 C 192.833 135.867,192.772 135.833,192.083 135.833 C 191.671 135.833,191.333 135.766,191.333 135.685 C 191.333 135.603,191.151 135.490,190.928 135.434 C 190.354 135.290,190.100 133.333,190.655 133.333 C 190.724 133.333,190.875 133.015,190.991 132.625 C 191.335 131.466,191.228 131.500,194.564 131.500 L 197.588 131.500 197.951 132.292 C 199.130 134.866,199.211 135.220,198.708 135.601 C 198.548 135.723,198.098 135.825,197.708 135.828 C 197.065 135.833,197.000 135.872,197.000 136.250 L 197.000 136.667 201.667 136.667 L 206.333 136.667 206.333 136.250 C 206.333 135.917,206.250 135.833,205.917 135.833 C 205.688 135.833,205.500 135.776,205.500 135.706 C 205.500 135.636,205.331 135.505,205.125 135.415 C 204.919 135.324,204.623 134.987,204.467 134.667 C 204.312 134.346,204.116 134.004,204.032 133.907 C 203.949 133.810,203.789 133.454,203.677 133.116 C 203.566 132.777,203.411 132.500,203.334 132.500 C 203.256 132.500,203.142 132.256,203.079 131.958 C 203.016 131.660,202.830 131.192,202.667 130.917 C 202.503 130.642,202.318 130.173,202.255 129.875 C 202.192 129.577,202.079 129.333,202.005 129.333 C 201.931 129.333,201.770 128.996,201.649 128.583 C 201.527 128.171,201.377 127.833,201.315 127.833 C 201.253 127.833,201.152 127.630,201.089 127.380 C 201.027 127.131,200.786 126.513,200.555 126.005 C 200.323 125.498,200.037 124.858,199.918 124.583 C 199.799 124.308,199.553 123.746,199.371 123.333 C 199.189 122.921,198.988 122.415,198.925 122.208 C 198.862 122.002,198.755 121.833,198.687 121.833 C 198.619 121.833,198.467 121.458,198.349 121.000 C 198.232 120.542,198.078 120.167,198.006 120.167 C 197.935 120.167,197.782 119.829,197.667 119.417 C 197.551 119.004,197.399 118.667,197.328 118.667 C 197.258 118.667,197.134 118.385,197.053 118.042 C 196.811 117.013,195.961 117.033,195.669 118.075 M230.098 117.750 C 230.041 117.979,229.927 118.167,229.846 118.167 C 229.764 118.167,229.601 118.542,229.484 119.000 C 229.366 119.458,229.213 119.833,229.142 119.833 C 229.071 119.833,228.923 120.133,228.814 120.500 C 228.704 120.867,228.567 121.167,228.510 121.167 C 228.453 121.167,228.306 121.504,228.185 121.917 C 228.063 122.329,227.905 122.667,227.835 122.667 C 227.764 122.667,227.621 123.004,227.517 123.417 C 227.414 123.829,227.262 124.167,227.180 124.167 C 227.098 124.167,226.935 124.542,226.817 125.000 C 226.700 125.458,226.546 125.833,226.475 125.833 C 226.405 125.833,226.257 126.133,226.147 126.500 C 226.037 126.867,225.900 127.167,225.843 127.167 C 225.786 127.167,225.640 127.504,225.518 127.917 C 225.396 128.329,225.239 128.667,225.168 128.667 C 225.097 128.667,224.955 129.004,224.851 129.417 C 224.747 129.829,224.596 130.167,224.516 130.167 C 224.435 130.167,224.318 130.373,224.255 130.625 C 223.709 132.819,221.593 135.833,220.599 135.833 C 220.427 135.833,220.333 135.980,220.333 136.250 L 220.333 136.667 223.667 136.667 L 227.000 136.667 227.000 136.250 C 227.000 135.867,226.939 135.833,226.250 135.833 C 225.838 135.833,225.500 135.777,225.500 135.707 C 225.500 135.638,225.275 135.482,225.000 135.360 C 224.466 135.124,224.306 134.345,224.660 133.706 C 224.748 133.547,225.016 132.985,225.256 132.458 L 225.691 131.500 228.827 131.500 L 231.964 131.500 232.078 131.953 C 232.140 132.202,232.373 132.791,232.596 133.261 C 232.818 133.731,233.000 134.240,233.000 134.391 C 233.000 134.543,233.075 134.667,233.167 134.667 C 233.448 134.667,233.352 135.148,233.000 135.500 C 232.756 135.744,232.444 135.833,231.833 135.833 C 231.054 135.833,231.000 135.861,231.000 136.253 L 231.000 136.672 235.792 136.628 C 240.457 136.584,240.583 136.575,240.583 136.250 C 240.583 136.026,240.453 135.898,240.186 135.860 C 239.786 135.804,239.547 135.654,239.030 135.137 C 238.526 134.633,238.383 134.406,238.177 133.782 C 238.066 133.444,237.911 133.167,237.834 133.167 C 237.756 133.167,237.640 132.923,237.576 132.625 C 237.511 132.327,237.325 131.821,237.161 131.500 C 236.783 130.756,236.064 129.135,235.166 127.000 C 234.877 126.313,234.497 125.432,234.320 125.043 C 234.144 124.655,234.000 124.261,234.000 124.168 C 234.000 124.076,233.941 124.000,233.868 124.000 C 233.795 124.000,233.646 123.662,233.535 123.250 C 233.425 122.837,233.259 122.500,233.167 122.500 C 233.075 122.500,233.000 122.376,233.000 122.224 C 233.000 122.073,232.818 121.564,232.596 121.094 C 232.373 120.624,232.140 120.035,232.078 119.786 C 232.015 119.537,231.906 119.333,231.835 119.333 C 231.764 119.333,231.621 118.996,231.517 118.583 C 231.414 118.171,231.255 117.833,231.164 117.833 C 231.074 117.833,231.000 117.721,231.000 117.583 C 231.000 117.133,230.217 117.278,230.098 117.750 M349.048 117.667 C 349.000 117.850,348.903 118.000,348.832 118.000 C 348.761 118.000,348.604 118.337,348.482 118.750 C 348.360 119.162,348.202 119.500,348.130 119.500 C 348.059 119.500,348.000 119.587,348.000 119.692 C 348.000 119.798,347.818 120.269,347.596 120.739 C 347.373 121.209,347.140 121.798,347.078 122.047 C 347.015 122.296,346.907 122.500,346.837 122.500 C 346.767 122.500,346.615 122.837,346.500 123.250 C 346.385 123.662,346.233 124.000,346.163 124.000 C 346.094 124.000,345.937 124.337,345.815 124.750 C 345.694 125.162,345.535 125.500,345.464 125.500 C 345.392 125.500,345.333 125.587,345.333 125.692 C 345.333 125.798,345.151 126.269,344.929 126.739 C 344.707 127.209,344.473 127.798,344.411 128.047 C 344.348 128.296,344.240 128.500,344.170 128.500 C 344.100 128.500,343.949 128.837,343.833 129.250 C 343.718 129.662,343.566 130.000,343.497 130.000 C 343.427 130.000,343.270 130.337,343.149 130.750 C 343.027 131.162,342.869 131.500,342.797 131.500 C 342.725 131.500,342.667 131.588,342.667 131.695 C 342.667 131.902,341.675 134.025,341.512 134.167 C 341.459 134.212,341.310 134.455,341.181 134.706 C 341.052 134.957,340.733 135.257,340.473 135.372 C 340.213 135.487,340.000 135.638,340.000 135.707 C 340.000 135.777,339.858 135.833,339.684 135.833 C 339.357 135.833,339.096 136.251,339.259 136.515 C 339.311 136.598,340.811 136.667,342.593 136.667 L 345.833 136.667 345.833 136.250 C 345.833 135.875,345.767 135.833,345.167 135.833 C 344.800 135.833,344.500 135.758,344.500 135.667 C 344.500 135.575,344.359 135.500,344.186 135.500 C 344.013 135.500,343.751 135.315,343.603 135.089 C 343.310 134.643,343.246 134.167,343.479 134.167 C 343.559 134.167,343.672 133.923,343.729 133.625 C 343.785 133.327,344.001 132.730,344.208 132.298 L 344.583 131.513 347.621 131.506 C 351.000 131.499,350.947 131.481,351.243 132.748 C 351.307 133.022,351.421 133.285,351.495 133.332 C 351.569 133.378,351.745 133.803,351.884 134.275 C 352.238 135.467,351.988 135.833,350.824 135.833 C 350.056 135.833,350.000 135.862,350.000 136.250 L 350.000 136.667 354.667 136.667 L 359.333 136.667 359.333 136.250 C 359.333 135.937,359.246 135.833,358.980 135.833 C 358.520 135.833,357.427 134.699,357.150 133.934 C 357.031 133.604,356.883 133.333,356.822 133.333 C 356.760 133.333,356.615 132.996,356.500 132.583 C 356.385 132.171,356.233 131.833,356.163 131.833 C 356.093 131.833,355.985 131.630,355.922 131.380 C 355.860 131.131,355.619 130.513,355.388 130.005 C 355.157 129.498,354.871 128.858,354.753 128.583 C 354.308 127.543,354.020 126.888,353.612 125.995 C 353.381 125.487,353.140 124.869,353.078 124.620 C 353.015 124.370,352.913 124.167,352.852 124.167 C 352.790 124.167,352.640 123.829,352.518 123.417 C 352.396 123.004,352.238 122.667,352.167 122.667 C 352.095 122.667,351.988 122.407,351.929 122.089 C 351.869 121.771,351.725 121.415,351.609 121.297 C 351.493 121.179,351.298 120.727,351.177 120.292 C 351.056 119.856,350.893 119.500,350.814 119.500 C 350.736 119.500,350.586 119.162,350.483 118.750 C 350.379 118.337,350.236 118.000,350.166 118.000 C 350.096 118.000,350.000 117.850,349.952 117.667 C 349.898 117.462,349.724 117.333,349.500 117.333 C 349.276 117.333,349.102 117.462,349.048 117.667 M389.500 117.583 C 389.500 117.721,389.426 117.833,389.336 117.833 C 389.245 117.833,389.086 118.171,388.983 118.583 C 388.879 118.996,388.736 119.333,388.665 119.333 C 388.595 119.333,388.437 119.671,388.315 120.083 C 388.194 120.496,388.035 120.833,387.964 120.833 C 387.892 120.833,387.833 120.930,387.833 121.048 C 387.833 121.166,387.685 121.554,387.504 121.909 C 387.322 122.265,387.086 122.823,386.979 123.148 C 386.871 123.474,386.685 123.839,386.565 123.959 C 386.445 124.079,386.298 124.437,386.238 124.755 C 386.178 125.073,386.063 125.333,385.981 125.333 C 385.900 125.333,385.833 125.409,385.833 125.502 C 385.833 125.594,385.673 126.026,385.477 126.460 C 384.517 128.591,384.364 128.946,384.248 129.326 C 384.179 129.550,384.023 129.834,383.901 129.956 C 383.779 130.078,383.631 130.437,383.571 130.755 C 383.512 131.073,383.396 131.333,383.315 131.333 C 383.233 131.333,383.167 131.406,383.167 131.496 C 383.167 131.719,382.162 133.897,382.011 134.000 C 381.945 134.046,381.789 134.315,381.666 134.599 C 381.454 135.086,380.368 135.835,379.875 135.834 C 379.760 135.834,379.667 136.021,379.667 136.250 L 379.667 136.667 383.000 136.667 L 386.333 136.667 386.333 136.250 C 386.333 135.887,386.260 135.833,385.766 135.833 C 384.703 135.833,383.792 135.190,383.884 134.503 C 383.981 133.774,384.513 132.325,384.792 132.030 C 384.906 131.909,385.000 131.740,385.000 131.655 C 385.000 131.565,386.297 131.500,388.083 131.500 C 390.713 131.500,391.167 131.537,391.167 131.750 C 391.167 131.887,391.233 132.000,391.315 132.000 C 391.396 132.000,391.563 132.337,391.685 132.750 C 391.806 133.162,391.955 133.500,392.015 133.500 C 392.074 133.500,392.219 133.841,392.336 134.258 C 392.664 135.432,392.381 135.833,391.222 135.833 C 390.385 135.833,390.333 135.858,390.333 136.250 L 390.333 136.667 395.083 136.667 L 399.833 136.667 399.833 136.250 C 399.833 135.917,399.750 135.833,399.417 135.833 C 399.188 135.833,399.000 135.767,399.000 135.686 C 399.000 135.605,398.844 135.498,398.654 135.448 C 398.464 135.399,398.268 135.203,398.218 135.012 C 398.168 134.822,398.066 134.667,397.991 134.667 C 397.916 134.667,397.760 134.404,397.644 134.083 C 397.528 133.762,397.383 133.500,397.322 133.500 C 397.260 133.500,397.115 133.162,397.000 132.750 C 396.885 132.337,396.735 132.000,396.667 132.000 C 396.599 132.000,396.449 131.662,396.333 131.250 C 396.218 130.837,396.064 130.500,395.992 130.500 C 395.919 130.500,395.807 130.256,395.742 129.958 C 395.678 129.660,395.485 129.154,395.314 128.833 C 395.144 128.512,394.845 127.875,394.651 127.417 C 394.099 126.112,393.897 125.651,393.445 124.661 C 393.214 124.154,392.973 123.535,392.911 123.286 C 392.848 123.037,392.747 122.833,392.685 122.833 C 392.623 122.833,392.473 122.496,392.351 122.083 C 392.230 121.671,392.071 121.333,392.000 121.333 C 391.929 121.333,391.822 121.073,391.762 120.755 C 391.702 120.437,391.558 120.081,391.442 119.964 C 391.326 119.846,391.132 119.394,391.010 118.958 C 390.889 118.523,390.726 118.167,390.648 118.167 C 390.570 118.167,390.459 117.979,390.402 117.750 C 390.283 117.278,389.500 117.133,389.500 117.583 M0.000 117.994 C 0.000 118.462,0.045 118.495,0.839 118.600 C 2.425 118.810,2.350 118.354,2.296 127.390 C 2.260 133.534,2.204 135.238,2.039 135.293 C 1.922 135.331,1.722 135.469,1.592 135.598 C 1.463 135.728,1.052 135.833,0.679 135.833 C 0.066 135.833,0.000 135.874,0.000 136.250 L 0.000 136.667 4.833 136.667 L 9.667 136.667 9.667 136.250 C 9.667 135.875,9.600 135.833,8.998 135.833 C 7.238 135.833,7.004 135.243,7.001 130.792 L 7.000 128.167 8.695 128.167 C 10.464 128.167,12.500 127.897,12.500 127.663 C 12.500 127.588,12.730 127.476,13.011 127.414 C 13.292 127.352,13.563 127.196,13.612 127.068 C 13.662 126.939,13.793 126.833,13.904 126.833 C 14.135 126.833,14.708 126.215,15.011 125.639 C 15.124 125.425,15.281 125.208,15.359 125.156 C 15.805 124.863,15.790 120.847,15.342 120.697 C 15.246 120.665,15.167 120.566,15.167 120.477 C 15.167 120.214,14.268 119.167,14.042 119.167 C 13.927 119.167,13.833 119.088,13.833 118.991 C 13.833 118.895,13.608 118.738,13.333 118.642 C 13.058 118.546,12.833 118.413,12.833 118.346 C 12.833 118.175,11.273 117.833,10.497 117.833 C 10.143 117.833,9.807 117.758,9.750 117.667 C 9.685 117.562,7.859 117.500,4.823 117.500 L 0.000 117.500 0.000 117.994 M17.278 117.611 C 17.139 117.750,17.130 122.544,17.268 122.903 C 17.479 123.453,18.121 123.215,18.242 122.542 C 18.646 120.293,19.981 119.182,22.292 119.171 L 23.167 119.167 23.167 126.906 C 23.167 134.630,23.108 135.500,22.587 135.500 C 22.448 135.500,22.333 135.575,22.333 135.667 C 22.333 135.758,21.966 135.833,21.518 135.833 C 20.718 135.833,20.342 136.110,20.593 136.515 C 20.646 136.601,22.893 136.667,25.760 136.667 L 30.833 136.667 30.833 136.250 C 30.833 135.861,30.778 135.833,29.993 135.833 C 29.326 135.833,29.059 135.747,28.701 135.415 L 28.250 134.997 28.204 127.082 L 28.157 119.167 29.220 119.167 C 31.043 119.167,32.347 119.976,32.849 121.417 C 32.977 121.783,33.131 122.121,33.191 122.167 C 33.251 122.212,33.326 122.438,33.358 122.667 C 33.402 122.979,33.531 123.097,33.875 123.136 L 34.333 123.189 34.333 120.344 L 34.333 117.500 25.861 117.500 C 21.201 117.500,17.339 117.550,17.278 117.611 M47.333 120.333 L 47.333 123.167 47.748 123.167 C 48.103 123.167,48.178 123.071,48.269 122.500 C 48.328 122.133,48.435 121.833,48.508 121.833 C 48.581 121.833,48.690 121.604,48.752 121.324 C 49.041 120.007,50.435 119.179,52.375 119.171 L 53.333 119.167 53.333 126.987 L 53.333 134.808 52.821 135.321 C 52.402 135.739,52.171 135.833,51.571 135.833 C 50.895 135.833,50.833 135.868,50.833 136.250 L 50.833 136.667 55.833 136.667 L 60.833 136.667 60.833 136.250 C 60.833 135.865,60.774 135.833,60.042 135.828 C 59.429 135.824,59.137 135.724,58.750 135.384 L 58.250 134.945 58.202 127.056 L 58.154 119.167 59.358 119.167 C 61.082 119.167,62.830 120.188,62.834 121.197 C 62.835 121.318,62.936 121.609,63.059 121.844 C 63.181 122.080,63.332 122.473,63.394 122.719 C 63.478 123.054,63.610 123.167,63.920 123.167 L 64.333 123.167 64.333 120.333 L 64.333 117.500 55.833 117.500 L 47.333 117.500 47.333 120.333 M65.500 117.988 C 65.500 118.454,65.541 118.481,66.402 118.589 C 68.094 118.800,68.000 118.289,68.000 127.243 L 68.000 134.983 67.443 135.408 C 67.052 135.706,66.678 135.833,66.193 135.833 C 65.565 135.833,65.500 135.872,65.500 136.250 L 65.500 136.667 70.417 136.667 L 75.333 136.667 75.333 136.250 C 75.333 135.866,75.273 135.833,74.571 135.833 C 74.138 135.833,73.708 135.732,73.574 135.598 C 73.445 135.469,73.244 135.331,73.128 135.293 C 72.968 135.240,72.904 134.359,72.866 131.695 L 72.815 128.167 73.213 128.167 C 73.511 128.167,73.774 128.407,74.262 129.125 C 74.619 129.652,74.958 130.121,75.014 130.167 C 75.071 130.212,75.213 130.433,75.331 130.656 C 75.556 131.083,75.728 131.316,76.208 131.845 C 76.369 132.022,76.500 132.211,76.500 132.264 C 76.500 132.429,77.570 133.908,77.792 134.050 C 77.906 134.123,78.000 134.294,78.000 134.430 C 78.000 134.566,78.112 134.720,78.250 134.773 C 78.387 134.826,78.500 134.942,78.500 135.032 C 78.500 135.122,78.738 135.527,79.028 135.931 L 79.557 136.667 87.695 136.667 L 95.833 136.667 95.833 136.250 C 95.833 135.865,95.773 135.833,95.042 135.827 C 94.455 135.823,94.121 135.716,93.750 135.413 L 93.250 135.005 93.199 127.826 C 93.131 118.456,93.121 118.500,95.407 118.500 C 95.770 118.500,95.833 118.425,95.833 118.000 L 95.833 117.500 90.833 117.500 L 85.833 117.500 85.833 117.979 C 85.833 118.427,85.885 118.464,86.673 118.568 C 88.265 118.780,88.167 118.214,88.167 127.175 L 88.167 135.016 87.726 135.425 C 86.581 136.485,84.755 135.866,83.396 133.958 C 82.949 133.330,82.508 132.726,82.417 132.616 C 82.325 132.507,81.921 131.929,81.519 131.333 C 80.373 129.633,79.759 128.757,79.650 128.667 C 79.033 128.153,79.535 127.333,80.466 127.333 C 80.734 127.333,82.167 125.982,82.167 125.730 C 82.167 125.604,82.234 125.500,82.316 125.500 C 82.527 125.500,82.676 125.060,82.836 123.958 C 83.336 120.512,81.414 118.111,77.965 117.875 C 77.245 117.825,76.617 117.721,76.568 117.643 C 76.520 117.564,74.010 117.500,70.990 117.500 L 65.500 117.500 65.500 117.988 M100.000 118.000 C 100.000 118.453,100.051 118.500,100.542 118.501 C 102.706 118.505,102.729 118.565,102.798 124.667 C 102.907 134.297,102.736 135.483,101.240 135.495 C 100.107 135.504,99.478 134.300,100.427 133.936 C 100.894 133.757,100.746 131.801,100.223 131.237 C 99.195 130.127,96.840 130.593,96.566 131.960 C 96.507 132.257,96.393 132.500,96.313 132.500 C 96.123 132.500,96.122 133.286,96.311 133.403 C 96.391 133.452,96.504 133.790,96.562 134.153 C 96.708 135.068,98.093 136.414,99.239 136.755 C 101.030 137.289,104.967 136.953,105.383 136.231 C 105.457 136.104,105.609 136.000,105.721 136.000 C 105.936 136.000,106.442 135.484,106.784 134.917 C 107.263 134.124,107.383 133.671,107.460 132.372 C 107.505 131.614,107.608 130.953,107.688 130.904 C 107.768 130.854,107.833 128.231,107.833 125.073 C 107.833 118.497,107.770 118.775,109.327 118.568 C 110.115 118.464,110.167 118.427,110.167 117.979 L 110.167 117.500 105.083 117.500 L 100.000 117.500 100.000 118.000 M127.833 117.992 C 127.833 118.422,127.907 118.499,128.411 118.593 C 129.022 118.708,129.833 119.295,129.833 119.622 C 129.833 119.729,129.927 119.877,130.042 119.950 C 130.156 120.023,130.383 120.346,130.546 120.667 C 130.709 120.987,131.139 121.775,131.502 122.417 C 131.866 123.058,132.285 123.846,132.433 124.167 C 132.582 124.487,132.752 124.787,132.810 124.833 C 132.869 124.879,133.179 125.442,133.500 126.083 C 133.821 126.725,134.121 127.287,134.167 127.333 C 134.212 127.379,134.384 127.679,134.549 128.000 C 134.713 128.321,134.955 128.771,135.088 129.000 C 135.272 129.319,135.329 130.091,135.331 132.280 L 135.333 135.144 134.849 135.489 C 134.499 135.738,134.108 135.833,133.433 135.833 C 132.549 135.833,132.500 135.855,132.500 136.250 L 132.500 136.667 137.917 136.667 L 143.333 136.667 143.333 136.250 C 143.333 135.855,143.285 135.833,142.375 135.827 C 141.628 135.823,141.314 135.737,140.948 135.438 L 140.480 135.055 140.532 131.688 C 140.562 129.687,140.651 128.272,140.751 128.202 C 140.968 128.047,142.000 126.358,142.000 126.156 C 142.000 126.070,142.057 126.000,142.126 126.000 C 142.195 126.000,142.358 125.756,142.488 125.458 C 142.617 125.160,142.772 124.879,142.831 124.833 C 142.890 124.787,143.191 124.300,143.500 123.750 C 143.809 123.200,144.112 122.712,144.175 122.667 C 144.237 122.621,144.341 122.415,144.405 122.209 C 144.469 122.004,144.613 121.741,144.725 121.626 C 144.837 121.511,145.124 121.079,145.364 120.667 C 146.058 119.471,146.714 118.816,147.344 118.688 C 147.837 118.588,147.924 118.497,147.969 118.036 L 148.021 117.500 144.927 117.500 L 141.833 117.500 141.833 117.992 C 141.833 118.432,141.900 118.496,142.458 118.586 C 143.870 118.816,144.314 119.710,143.447 120.577 C 143.308 120.716,143.144 121.056,143.084 121.332 C 143.023 121.608,142.914 121.833,142.840 121.833 C 142.767 121.833,142.614 122.058,142.500 122.333 C 142.386 122.608,142.241 122.833,142.178 122.833 C 142.114 122.833,141.959 123.096,141.833 123.417 C 141.707 123.737,141.557 124.000,141.500 124.000 C 141.443 124.000,141.293 124.263,141.167 124.583 C 141.041 124.904,140.886 125.167,140.822 125.167 C 140.759 125.167,140.614 125.392,140.500 125.667 C 140.386 125.942,140.227 126.167,140.146 126.167 C 140.066 126.167,140.000 126.265,140.000 126.385 C 140.000 127.145,139.513 127.245,139.232 126.542 C 139.077 126.152,138.894 125.833,138.826 125.833 C 138.758 125.833,138.656 125.648,138.599 125.421 C 138.542 125.194,138.309 124.734,138.081 124.398 C 137.853 124.062,137.667 123.685,137.667 123.560 C 137.667 123.435,137.592 123.333,137.500 123.333 C 137.408 123.333,137.333 123.231,137.333 123.107 C 137.333 122.982,137.147 122.605,136.919 122.269 C 136.691 121.933,136.458 121.472,136.401 121.246 C 136.344 121.019,136.236 120.833,136.162 120.833 C 136.087 120.833,135.936 120.552,135.826 120.208 C 135.716 119.865,135.560 119.512,135.480 119.425 C 135.086 118.999,135.784 118.500,136.775 118.500 C 137.099 118.500,137.167 118.414,137.167 118.000 L 137.167 117.500 132.500 117.500 L 127.833 117.500 127.833 117.992 M171.667 117.981 C 171.667 118.437,171.712 118.467,172.559 118.573 C 174.238 118.783,174.167 118.401,174.167 127.230 L 174.167 134.808 173.654 135.321 C 173.236 135.739,173.005 135.833,172.404 135.833 C 171.729 135.833,171.667 135.868,171.667 136.250 L 171.667 136.667 176.667 136.667 L 181.667 136.667 181.667 136.250 C 181.667 135.865,181.607 135.833,180.875 135.827 C 180.288 135.823,179.954 135.716,179.583 135.413 L 179.083 135.005 179.030 131.402 L 178.976 127.799 179.863 127.916 C 180.920 128.057,182.092 128.737,182.377 129.375 C 182.489 129.627,182.631 129.833,182.692 129.833 C 182.753 129.833,182.897 130.358,183.012 131.000 C 183.212 132.122,183.238 132.167,183.693 132.167 L 184.167 132.167 184.167 127.333 L 184.167 122.500 183.690 122.500 C 183.245 122.500,183.200 122.562,183.028 123.418 C 182.927 123.923,182.748 124.451,182.630 124.591 C 181.615 125.803,181.319 126.034,180.671 126.121 C 180.297 126.171,179.952 126.277,179.903 126.356 C 179.854 126.435,179.631 126.500,179.407 126.500 L 179.000 126.500 179.000 122.812 L 179.000 119.124 181.296 119.197 C 184.768 119.308,186.176 120.207,186.446 122.486 C 186.544 123.317,186.557 123.333,187.107 123.333 L 187.667 123.333 187.667 120.417 L 187.667 117.500 179.667 117.500 L 171.667 117.500 171.667 117.981 M210.167 117.977 C 210.167 118.434,210.206 118.457,211.112 118.551 C 211.824 118.624,212.164 118.755,212.487 119.078 L 212.917 119.508 212.917 126.962 L 212.917 134.417 212.530 134.958 C 212.092 135.572,210.752 135.755,210.339 135.257 C 210.097 134.965,210.249 134.111,210.594 133.824 C 210.922 133.552,210.917 131.893,210.587 131.563 C 210.452 131.428,210.271 131.192,210.186 131.040 C 209.753 130.267,206.833 130.739,206.833 131.582 C 206.833 131.705,206.748 131.834,206.644 131.869 C 205.867 132.128,206.633 134.699,207.815 135.797 C 209.340 137.213,214.811 137.521,215.550 136.233 C 215.623 136.105,215.765 136.000,215.864 136.000 C 216.131 136.000,216.696 135.331,217.141 134.489 C 217.696 133.437,217.824 131.706,217.829 125.118 L 217.833 119.485 218.217 119.072 C 218.492 118.775,218.844 118.630,219.467 118.556 C 220.285 118.459,220.333 118.427,220.333 117.977 L 220.333 117.500 215.250 117.500 L 210.167 117.500 210.167 117.977 M240.833 117.988 C 240.833 118.454,240.874 118.481,241.746 118.590 C 242.278 118.657,242.817 118.841,243.038 119.033 L 243.417 119.361 243.417 127.153 L 243.417 134.944 242.917 135.384 C 242.529 135.724,242.238 135.824,241.625 135.828 C 240.893 135.833,240.833 135.865,240.833 136.250 L 240.833 136.667 245.833 136.667 L 250.833 136.667 250.833 136.250 C 250.833 135.865,250.774 135.833,250.042 135.828 C 249.429 135.824,249.137 135.724,248.750 135.384 L 248.250 134.945 248.194 131.556 L 248.137 128.167 248.543 128.167 C 248.958 128.167,249.369 128.523,249.553 129.042 C 249.610 129.202,249.734 129.333,249.828 129.333 C 249.923 129.333,250.003 129.427,250.007 129.542 C 250.010 129.656,250.235 130.010,250.507 130.327 C 250.778 130.644,251.000 131.001,251.000 131.119 C 251.000 131.237,251.077 131.333,251.171 131.333 C 251.265 131.333,251.413 131.521,251.500 131.750 C 251.587 131.979,251.723 132.167,251.802 132.167 C 251.882 132.167,252.033 132.357,252.139 132.590 C 252.245 132.822,252.410 133.103,252.506 133.215 C 252.913 133.688,254.113 135.441,254.213 135.708 C 254.274 135.869,254.395 136.000,254.484 136.000 C 254.572 136.000,254.692 136.150,254.750 136.333 C 254.851 136.652,255.002 136.667,258.095 136.667 L 261.333 136.667 261.333 136.250 C 261.333 135.996,261.238 135.833,261.090 135.833 C 260.643 135.833,259.691 135.254,259.515 134.875 C 259.419 134.669,259.273 134.500,259.190 134.500 C 259.108 134.500,258.947 134.275,258.833 134.000 C 258.719 133.725,258.558 133.500,258.476 133.500 C 258.393 133.500,258.254 133.313,258.167 133.083 C 258.080 132.854,257.931 132.667,257.837 132.667 C 257.744 132.667,257.666 132.573,257.666 132.458 C 257.666 132.344,257.441 131.987,257.167 131.667 C 256.892 131.346,256.667 130.990,256.667 130.875 C 256.667 130.760,256.590 130.667,256.496 130.667 C 256.402 130.667,256.254 130.479,256.167 130.250 C 256.080 130.021,255.931 129.833,255.837 129.833 C 255.744 129.833,255.667 129.735,255.667 129.615 C 255.667 129.495,255.527 129.246,255.356 129.063 C 254.532 128.178,254.576 127.685,255.502 127.452 C 256.310 127.248,257.462 126.185,257.920 125.220 C 258.451 124.101,258.376 120.500,257.822 120.500 C 257.736 120.500,257.667 120.399,257.667 120.277 C 257.667 119.966,256.409 118.713,255.956 118.571 C 255.751 118.507,255.542 118.391,255.491 118.313 C 255.369 118.124,253.802 117.833,252.904 117.833 C 252.509 117.833,252.140 117.758,252.083 117.667 C 252.018 117.561,249.943 117.500,246.407 117.500 L 240.833 117.500 240.833 117.988 M268.167 117.981 C 268.167 118.438,268.211 118.467,269.079 118.576 C 269.581 118.638,270.162 118.828,270.371 118.997 L 270.750 119.304 270.750 127.154 L 270.750 135.004 270.250 135.413 C 269.879 135.716,269.545 135.823,268.958 135.827 C 268.227 135.833,268.167 135.865,268.167 136.250 L 268.167 136.667 273.167 136.667 L 278.167 136.667 278.167 136.250 C 278.167 135.865,278.107 135.833,277.375 135.830 C 275.709 135.822,275.500 135.321,275.500 131.344 L 275.500 128.167 277.111 128.167 C 278.786 128.167,280.833 127.894,280.833 127.670 C 280.833 127.600,281.048 127.499,281.311 127.446 C 281.831 127.342,283.500 125.894,283.500 125.547 C 283.500 125.429,283.566 125.333,283.647 125.333 C 283.882 125.333,284.167 123.943,284.166 122.801 C 284.165 121.655,283.910 120.500,283.659 120.500 C 283.571 120.500,283.500 120.396,283.500 120.269 C 283.500 119.950,282.166 118.677,281.708 118.560 C 281.502 118.507,281.333 118.407,281.333 118.338 C 281.333 118.174,279.625 117.833,278.806 117.833 C 278.454 117.833,278.167 117.758,278.167 117.667 C 278.167 117.559,276.389 117.500,273.167 117.500 L 268.167 117.500 268.167 117.981 M285.167 117.978 C 285.167 118.438,285.205 118.461,286.139 118.567 C 287.917 118.768,287.833 118.341,287.833 127.243 C 287.833 132.192,287.775 134.833,287.667 134.833 C 287.575 134.833,287.500 134.937,287.500 135.064 C 287.500 135.453,286.719 135.833,285.923 135.833 C 285.227 135.833,285.167 135.867,285.167 136.250 L 285.167 136.667 293.471 136.667 L 301.775 136.667 301.995 134.329 C 302.115 133.043,302.278 131.951,302.357 131.902 C 302.436 131.853,302.500 131.518,302.500 131.157 C 302.500 130.129,301.610 130.168,301.306 131.208 C 301.193 131.598,301.058 131.954,301.008 132.000 C 300.957 132.046,300.804 132.304,300.666 132.573 C 300.228 133.434,298.885 134.566,298.064 134.767 C 297.800 134.832,297.536 134.958,297.477 135.047 C 297.185 135.493,293.579 135.397,293.113 134.931 L 292.667 134.485 292.667 131.159 C 292.667 127.445,292.587 127.651,293.875 128.009 C 294.640 128.221,295.272 128.783,295.423 129.383 C 295.485 129.631,295.596 129.833,295.670 129.833 C 295.743 129.833,295.897 130.358,296.012 131.000 C 296.212 132.122,296.238 132.167,296.693 132.167 L 297.167 132.167 297.167 127.083 L 297.167 122.000 296.684 122.000 C 296.224 122.000,296.194 122.046,296.019 123.042 C 295.668 125.032,294.874 125.997,293.475 126.131 L 292.667 126.209 292.667 122.688 L 292.667 119.167 294.311 119.167 C 296.208 119.167,297.576 119.386,297.938 119.747 C 298.077 119.886,298.249 120.000,298.320 120.000 C 298.813 120.000,299.767 121.507,300.020 122.686 C 300.180 123.434,300.234 123.500,300.680 123.500 L 301.167 123.500 301.167 120.500 L 301.167 117.500 293.167 117.500 L 285.167 117.500 285.167 117.978 M303.833 117.996 C 303.833 118.325,303.917 118.500,304.075 118.500 C 305.108 118.500,306.018 118.880,306.112 119.352 C 306.166 119.621,306.275 119.881,306.355 119.930 C 306.564 120.060,306.543 134.500,306.333 134.500 C 306.242 134.500,306.167 134.636,306.167 134.803 C 306.167 135.341,305.409 135.833,304.582 135.833 C 303.895 135.833,303.833 135.867,303.833 136.250 L 303.833 136.667 308.833 136.667 L 313.833 136.667 313.833 136.250 C 313.833 135.865,313.773 135.833,313.042 135.827 C 312.455 135.823,312.121 135.716,311.750 135.413 L 311.250 135.005 311.196 131.586 C 311.143 128.220,311.147 128.167,311.488 128.167 C 311.876 128.167,312.307 128.549,312.641 129.191 C 312.764 129.428,313.041 129.811,313.256 130.043 C 313.471 130.275,313.601 130.510,313.546 130.565 C 313.490 130.621,313.534 130.667,313.643 130.667 C 313.752 130.667,313.913 130.854,314.000 131.083 C 314.087 131.313,314.217 131.500,314.289 131.500 C 314.360 131.500,314.510 131.706,314.623 131.958 C 314.735 132.210,315.019 132.623,315.253 132.875 C 315.488 133.127,315.621 133.334,315.548 133.336 C 315.476 133.337,315.496 133.394,315.593 133.461 C 315.689 133.528,316.021 133.977,316.329 134.458 C 316.637 134.940,316.952 135.333,317.028 135.333 C 317.104 135.333,317.167 135.411,317.167 135.507 C 317.167 135.602,317.331 135.902,317.531 136.173 L 317.896 136.667 321.031 136.667 L 324.167 136.667 324.167 136.250 C 324.167 135.998,324.072 135.833,323.926 135.833 C 323.616 135.833,322.500 135.177,322.500 134.994 C 322.500 134.917,322.284 134.617,322.020 134.328 C 321.756 134.039,321.437 133.606,321.312 133.365 C 321.186 133.124,320.971 132.806,320.833 132.658 C 320.696 132.509,320.471 132.214,320.333 132.000 C 320.196 131.786,319.971 131.491,319.833 131.342 C 319.696 131.194,319.471 130.853,319.333 130.583 C 319.196 130.314,318.971 129.965,318.833 129.809 C 318.309 129.211,318.159 129.000,317.973 128.590 C 317.867 128.357,317.717 128.167,317.640 128.167 C 317.563 128.167,317.500 128.092,317.500 128.000 C 317.500 127.908,317.612 127.833,317.750 127.833 C 317.887 127.833,318.000 127.764,318.000 127.680 C 318.000 127.596,318.219 127.478,318.486 127.420 C 319.283 127.245,320.515 126.111,320.751 125.333 C 320.821 125.104,320.962 124.863,321.064 124.798 C 321.182 124.722,321.250 124.030,321.250 122.916 C 321.250 121.803,321.182 121.111,321.064 121.036 C 320.962 120.970,320.825 120.746,320.760 120.536 C 320.601 120.030,319.346 118.734,318.875 118.591 C 318.669 118.529,318.500 118.414,318.500 118.337 C 318.500 118.260,317.994 118.116,317.375 118.017 C 316.756 117.918,315.950 117.789,315.583 117.729 C 315.217 117.669,312.423 117.591,309.375 117.556 L 303.833 117.491 303.833 117.996 M359.667 118.000 C 359.667 118.434,359.727 118.500,360.125 118.501 C 361.148 118.503,361.840 118.825,361.944 119.346 C 361.999 119.618,362.108 119.881,362.188 119.930 C 362.432 120.081,362.371 134.270,362.125 134.711 C 361.616 135.621,361.303 135.833,360.471 135.833 C 359.719 135.833,359.667 135.861,359.667 136.260 L 359.667 136.686 365.778 136.635 C 370.482 136.595,371.905 136.535,371.958 136.375 C 371.997 136.260,372.185 136.167,372.377 136.167 C 372.730 136.167,373.846 135.823,374.000 135.667 C 374.046 135.621,374.307 135.470,374.581 135.333 C 375.491 134.876,377.167 133.288,377.167 132.881 C 377.167 132.763,377.229 132.667,377.305 132.667 C 377.381 132.667,377.638 132.232,377.875 131.700 C 379.797 127.392,378.347 120.970,375.082 119.334 C 374.808 119.196,374.525 118.993,374.454 118.882 C 374.383 118.771,374.064 118.631,373.745 118.571 C 373.427 118.512,373.167 118.407,373.167 118.338 C 373.167 118.175,371.460 117.833,370.649 117.833 C 370.303 117.833,369.973 117.758,369.917 117.667 C 369.852 117.561,367.943 117.500,364.740 117.500 L 359.667 117.500 359.667 118.000 M8.717 119.344 C 9.467 119.553,10.319 120.386,10.450 121.040 C 10.501 121.297,10.608 121.547,10.688 121.597 C 10.877 121.713,10.878 124.119,10.690 124.236 C 10.610 124.285,10.455 124.648,10.344 125.044 C 10.084 125.972,9.136 126.618,7.917 126.696 L 7.083 126.750 7.039 122.958 L 6.994 119.167 7.539 119.168 C 7.838 119.168,8.368 119.248,8.717 119.344 M76.666 119.749 C 77.033 120.004,77.333 120.290,77.333 120.385 C 77.333 120.479,77.465 120.702,77.625 120.879 C 78.125 121.432,78.045 124.400,77.509 125.167 C 76.610 126.453,75.721 126.818,73.458 126.830 L 72.833 126.833 72.833 122.977 L 72.833 119.121 74.416 119.204 C 75.800 119.276,76.082 119.345,76.666 119.749 M251.208 119.342 C 252.646 119.741,253.398 121.006,253.409 123.048 C 253.413 123.899,253.343 124.562,253.241 124.631 C 253.144 124.696,252.973 124.976,252.862 125.251 C 252.508 126.129,251.475 126.622,249.708 126.758 L 248.167 126.876 248.167 123.021 L 248.167 119.167 249.375 119.168 C 250.040 119.168,250.864 119.247,251.208 119.342 M278.027 119.769 C 278.362 120.001,278.687 120.391,278.748 120.636 C 278.810 120.880,278.945 121.133,279.049 121.197 C 279.325 121.368,279.318 124.533,279.042 124.625 C 278.927 124.663,278.833 124.823,278.833 124.979 C 278.833 125.822,277.139 126.833,275.727 126.833 C 275.542 126.833,275.500 126.122,275.500 122.977 L 275.500 119.121 276.458 119.233 C 277.070 119.305,277.637 119.499,278.027 119.769 M314.157 119.331 C 315.166 119.620,316.353 121.142,316.196 121.946 C 316.175 122.053,316.235 122.189,316.329 122.247 C 316.540 122.378,316.554 123.402,316.349 123.794 C 316.266 123.953,316.113 124.402,316.009 124.792 C 315.905 125.181,315.744 125.500,315.650 125.500 C 315.557 125.500,315.520 125.564,315.568 125.642 C 315.616 125.719,315.452 125.888,315.203 126.016 C 314.954 126.145,314.706 126.310,314.651 126.384 C 314.537 126.539,312.706 126.825,311.792 126.830 L 311.167 126.833 311.167 123.000 L 311.167 119.167 312.376 119.167 C 313.041 119.167,313.843 119.240,314.157 119.331 M369.482 119.345 C 370.347 119.531,371.833 120.633,371.833 121.089 C 371.833 121.214,371.933 121.377,372.054 121.450 C 372.266 121.578,372.674 122.593,373.011 123.833 C 373.692 126.338,373.184 131.775,372.131 133.250 C 371.710 133.840,370.888 134.667,370.721 134.667 C 370.613 134.667,370.402 134.789,370.252 134.938 C 369.875 135.315,367.562 135.364,367.331 135.000 C 367.236 134.851,367.171 131.609,367.169 126.958 L 367.167 119.167 367.908 119.167 C 368.316 119.167,369.024 119.247,369.482 119.345 M154.910 126.713 C 155.143 127.243,155.333 127.787,155.333 127.922 C 155.333 128.056,155.396 128.167,155.474 128.167 C 155.551 128.167,155.709 128.485,155.824 128.875 C 155.940 129.265,156.111 129.677,156.204 129.792 C 156.339 129.957,155.868 130.000,153.944 130.000 L 151.515 130.000 151.746 129.345 C 151.873 128.985,152.087 128.516,152.222 128.303 C 152.357 128.091,152.518 127.673,152.580 127.375 C 152.642 127.077,152.762 126.833,152.847 126.833 C 152.932 126.833,153.092 126.496,153.202 126.083 C 153.312 125.671,153.454 125.333,153.516 125.333 C 153.579 125.333,153.681 125.132,153.743 124.886 L 153.855 124.439 154.170 125.094 C 154.344 125.455,154.677 126.183,154.910 126.713 M348.178 125.500 C 348.249 125.500,348.358 125.744,348.421 126.042 C 348.484 126.340,348.670 126.808,348.833 127.083 C 348.997 127.358,349.182 127.827,349.245 128.125 C 349.308 128.423,349.421 128.667,349.495 128.667 C 349.570 128.667,349.676 128.847,349.731 129.068 C 349.787 129.289,349.878 129.589,349.934 129.735 C 350.024 129.970,349.767 130.000,347.684 130.000 C 346.391 130.000,345.333 129.937,345.333 129.859 C 345.333 129.781,345.455 129.463,345.604 129.151 C 345.753 128.839,346.026 128.246,346.210 127.833 C 346.394 127.421,346.722 126.707,346.939 126.248 C 347.156 125.788,347.333 125.316,347.333 125.199 C 347.333 124.657,347.748 124.522,347.899 125.014 C 347.981 125.281,348.106 125.500,348.178 125.500 M119.164 125.583 C 119.167 125.675,119.354 126.125,119.580 126.583 C 119.805 127.042,119.992 127.492,119.994 127.583 C 119.998 127.727,120.183 128.145,120.860 129.539 C 120.937 129.699,121.000 129.867,121.000 129.914 C 121.000 129.961,119.912 130.000,118.583 130.000 C 117.254 130.000,116.167 129.978,116.167 129.952 C 116.167 129.925,116.317 129.610,116.500 129.250 C 116.683 128.890,116.833 128.500,116.833 128.381 C 116.833 128.263,116.892 128.167,116.964 128.167 C 117.035 128.167,117.194 127.829,117.315 127.417 C 117.437 127.004,117.594 126.667,117.663 126.667 C 117.733 126.667,117.885 126.329,118.000 125.917 C 118.115 125.504,118.275 125.167,118.355 125.167 C 118.435 125.167,118.502 125.035,118.504 124.875 C 118.508 124.555,119.154 125.248,119.164 125.583 M195.000 125.417 C 195.115 125.829,195.263 126.167,195.329 126.167 C 195.394 126.167,195.541 126.480,195.656 126.863 C 195.771 127.246,195.963 127.715,196.083 127.905 C 196.202 128.095,196.351 128.494,196.414 128.792 C 196.476 129.090,196.587 129.333,196.660 129.333 C 196.734 129.333,196.834 129.483,196.882 129.667 C 196.966 129.989,196.887 130.000,194.583 130.000 L 192.198 130.000 192.377 129.417 C 192.475 129.096,192.609 128.833,192.673 128.833 C 192.737 128.833,192.885 128.496,193.000 128.083 C 193.115 127.671,193.267 127.333,193.337 127.333 C 193.407 127.333,193.515 127.130,193.578 126.880 C 193.743 126.223,194.501 124.667,194.657 124.667 C 194.730 124.667,194.885 125.004,195.000 125.417 M229.000 125.093 C 229.000 125.225,229.065 125.333,229.145 125.333 C 229.225 125.333,229.385 125.671,229.500 126.083 C 229.615 126.496,229.769 126.833,229.842 126.833 C 229.914 126.833,230.025 127.077,230.088 127.375 C 230.151 127.673,230.336 128.142,230.500 128.417 C 230.664 128.692,230.849 129.160,230.912 129.458 L 231.026 130.000 228.666 130.000 C 227.368 130.000,226.335 129.944,226.370 129.875 C 226.405 129.806,226.567 129.450,226.730 129.083 C 226.892 128.717,227.170 128.098,227.346 127.708 C 227.522 127.319,227.823 126.644,228.015 126.208 C 228.617 124.840,228.713 124.676,228.858 124.766 C 228.936 124.814,229.000 124.961,229.000 125.093 M388.333 124.939 C 388.333 125.088,388.475 125.445,388.649 125.730 C 388.822 126.016,389.016 126.494,389.079 126.792 C 389.142 127.090,389.252 127.333,389.325 127.333 C 389.397 127.333,389.551 127.671,389.667 128.083 C 389.782 128.496,389.929 128.833,389.994 128.833 C 390.058 128.833,390.191 129.096,390.290 129.417 L 390.469 130.000 388.058 130.000 C 386.732 130.000,385.676 129.944,385.712 129.875 C 385.748 129.806,385.904 129.450,386.059 129.083 C 386.215 128.717,386.480 128.154,386.650 127.833 C 386.819 127.513,387.011 127.006,387.076 126.708 C 387.140 126.410,387.262 126.167,387.347 126.167 C 387.432 126.167,387.592 125.829,387.702 125.417 C 387.893 124.700,388.333 124.367,388.333 124.939 M35.210 132.381 C 35.096 132.492,34.818 132.767,34.590 132.991 C 33.046 134.515,34.224 136.917,36.517 136.917 C 38.391 136.917,39.298 135.799,38.914 133.962 C 38.632 132.608,36.089 131.522,35.210 132.381 " stroke="none" fill="#343434" fill-rule="evenodd"></path><path id="path2" d="M226.833 0.115 C 226.696 0.163,226.208 0.374,225.750 0.582 C 223.357 1.670,222.977 1.833,222.828 1.833 C 222.739 1.833,222.667 1.890,222.667 1.959 C 222.667 2.083,221.614 2.500,221.208 2.537 C 221.094 2.547,221.000 2.612,221.000 2.682 C 221.000 2.807,219.809 3.257,219.685 3.179 C 219.650 3.157,219.575 3.201,219.519 3.277 C 219.406 3.431,217.984 4.168,217.801 4.167 C 217.700 4.167,216.214 4.831,214.083 5.828 C 213.717 6.000,213.135 6.236,212.792 6.354 C 212.448 6.471,212.167 6.627,212.167 6.700 C 212.167 6.773,212.094 6.833,212.005 6.833 C 211.916 6.833,211.446 7.015,210.961 7.237 C 210.475 7.459,209.874 7.692,209.624 7.755 C 209.374 7.818,209.210 7.936,209.261 8.018 C 209.312 8.100,209.225 8.167,209.069 8.167 C 208.765 8.167,206.597 9.188,206.143 9.545 C 205.992 9.664,205.786 10.058,205.685 10.422 C 205.489 11.130,205.410 77.565,205.605 78.292 C 205.721 78.723,206.076 78.766,206.766 78.433 C 208.259 77.713,209.137 77.333,209.308 77.333 C 209.413 77.333,209.500 77.258,209.500 77.167 C 209.500 77.075,209.587 77.000,209.692 77.000 C 209.798 77.000,210.267 76.821,210.734 76.602 C 212.426 75.810,213.152 75.500,213.312 75.500 C 213.402 75.500,213.575 75.406,213.696 75.292 C 213.818 75.177,214.142 74.997,214.417 74.892 C 215.599 74.439,216.754 73.907,216.806 73.792 C 216.836 73.723,216.928 73.667,217.010 73.667 C 217.091 73.667,217.650 73.442,218.250 73.167 C 218.850 72.892,219.415 72.667,219.504 72.667 C 219.594 72.667,219.667 72.592,219.667 72.500 C 219.667 72.408,219.788 72.333,219.936 72.333 C 220.084 72.333,220.477 72.190,220.811 72.015 C 221.144 71.839,221.792 71.531,222.250 71.330 C 223.248 70.891,224.254 70.429,226.208 69.510 L 227.667 68.824 227.667 34.412 C 227.667 -3.216,227.740 -0.206,226.833 0.115 M176.776 2.446 C 176.441 2.791,176.167 3.132,176.167 3.203 C 176.167 3.275,176.013 3.502,175.826 3.708 C 175.109 4.496,175.039 4.594,174.926 4.961 C 174.862 5.168,174.740 5.295,174.655 5.243 C 174.570 5.190,174.500 5.250,174.500 5.375 C 174.500 5.501,174.350 5.765,174.167 5.962 C 173.983 6.158,173.833 6.356,173.833 6.401 C 173.833 6.446,173.457 6.993,172.996 7.616 C 172.536 8.240,172.105 8.825,172.038 8.917 C 171.971 9.009,171.710 9.360,171.458 9.697 C 171.206 10.035,171.000 10.354,171.000 10.406 C 171.000 10.457,170.869 10.645,170.708 10.821 C 170.324 11.245,170.146 11.482,169.760 12.083 C 169.583 12.358,169.359 12.674,169.261 12.786 C 168.907 13.189,168.726 13.431,168.167 14.250 C 167.853 14.708,167.463 15.229,167.299 15.406 C 167.134 15.584,167.000 15.796,167.000 15.877 C 167.000 15.958,166.906 16.123,166.792 16.243 C 166.385 16.672,166.069 17.094,165.510 17.958 C 165.199 18.440,164.877 18.833,164.795 18.833 C 164.714 18.833,164.687 18.898,164.736 18.978 C 164.785 19.057,164.689 19.246,164.522 19.396 C 164.356 19.547,163.926 20.101,163.568 20.627 C 163.210 21.153,162.785 21.729,162.625 21.906 C 162.465 22.084,162.333 22.320,162.333 22.430 C 162.333 22.541,162.221 22.674,162.083 22.727 C 161.946 22.780,161.833 22.901,161.833 22.996 C 161.833 23.092,161.346 23.809,160.750 24.590 L 159.667 26.009 159.667 51.799 L 159.667 77.588 160.334 77.877 C 160.702 78.036,161.084 78.167,161.184 78.167 C 161.284 78.167,161.603 78.272,161.891 78.401 C 162.180 78.529,162.754 78.750,163.167 78.891 C 164.650 79.398,165.425 79.685,165.917 79.910 C 166.192 80.036,166.698 80.191,167.042 80.255 C 167.385 80.318,167.667 80.425,167.667 80.492 C 167.667 80.559,168.079 80.712,168.583 80.833 C 169.087 80.954,169.500 81.106,169.500 81.171 C 169.500 81.235,169.950 81.383,170.500 81.500 C 171.050 81.617,171.500 81.767,171.500 81.834 C 171.500 81.902,171.856 82.056,172.292 82.177 C 172.727 82.299,173.271 82.496,173.500 82.615 C 173.729 82.734,174.029 82.834,174.167 82.838 C 174.304 82.842,174.717 82.990,175.083 83.167 C 175.450 83.344,175.862 83.492,176.000 83.495 C 176.137 83.499,176.465 83.614,176.727 83.751 C 176.990 83.888,177.327 84.000,177.477 84.000 C 177.818 84.000,177.907 2.341,177.568 2.001 C 177.436 1.869,177.217 1.992,176.776 2.446 M223.626 35.827 C 223.668 62.798,223.658 63.310,223.090 62.839 C 222.825 62.619,222.675 9.773,222.938 9.089 C 222.995 8.939,223.164 8.840,223.313 8.869 C 223.561 8.917,223.587 11.150,223.626 35.827 M220.500 37.290 C 220.588 65.574,220.615 64.333,219.903 64.333 C 219.700 64.333,219.667 60.529,219.667 37.322 L 219.667 10.310 220.042 10.363 L 220.417 10.417 220.500 37.290 M181.667 54.210 C 181.667 82.959,181.680 84.261,181.967 84.440 C 182.132 84.544,182.713 84.726,183.258 84.845 C 183.804 84.965,184.287 85.113,184.333 85.174 C 184.379 85.235,184.829 85.381,185.333 85.498 C 185.838 85.615,186.325 85.766,186.417 85.833 C 187.104 86.341,189.667 86.337,189.667 85.829 C 189.667 85.763,190.004 85.615,190.417 85.500 C 190.829 85.385,191.167 85.225,191.167 85.145 C 191.167 85.065,191.293 85.000,191.447 85.000 C 191.602 85.000,192.033 84.858,192.406 84.685 C 194.433 83.744,194.969 83.514,195.380 83.411 C 195.630 83.348,195.833 83.230,195.833 83.149 C 195.833 83.067,195.960 83.000,196.114 83.000 C 196.268 83.000,196.700 82.858,197.072 82.685 C 199.100 81.744,199.635 81.514,200.047 81.411 C 200.296 81.348,200.500 81.239,200.500 81.167 C 200.500 81.096,200.771 80.986,201.102 80.924 C 201.433 80.862,201.883 80.632,202.102 80.413 L 202.500 80.015 202.500 58.133 L 202.500 36.250 201.654 35.750 C 201.190 35.475,200.561 35.100,200.257 34.917 C 199.953 34.733,199.152 34.261,198.477 33.867 C 197.802 33.472,197.025 33.007,196.750 32.833 C 196.475 32.659,195.725 32.209,195.083 31.833 C 194.442 31.457,193.692 31.007,193.417 30.833 C 193.142 30.659,192.392 30.209,191.750 29.833 C 191.108 29.457,190.358 29.006,190.083 28.830 C 189.808 28.654,189.058 28.204,188.417 27.831 C 186.694 26.829,186.594 26.765,186.461 26.583 C 186.394 26.492,186.337 26.477,186.336 26.550 C 186.334 26.624,186.090 26.501,185.792 26.278 C 185.494 26.054,184.950 25.712,184.583 25.517 C 183.774 25.087,183.278 24.784,183.167 24.650 C 182.991 24.439,182.340 24.167,182.011 24.167 L 181.667 24.167 181.667 54.210 M175.132 30.974 C 175.196 32.815,175.154 32.858,173.350 32.798 L 171.917 32.750 171.868 31.347 C 171.800 29.397,171.724 29.479,173.539 29.535 L 175.083 29.583 175.132 30.974 M175.133 39.413 C 175.218 41.375,175.255 41.333,173.413 41.333 L 171.833 41.333 171.833 39.744 L 171.833 38.155 173.458 38.202 L 175.083 38.250 175.133 39.413 M199.633 39.700 C 199.861 39.927,199.908 42.291,199.692 42.632 C 199.593 42.788,199.146 42.834,198.069 42.799 L 196.583 42.750 196.535 41.264 C 196.500 40.188,196.546 39.741,196.701 39.642 C 197.042 39.425,199.406 39.473,199.633 39.700 M174.967 46.867 C 175.194 47.094,175.241 49.458,175.025 49.799 C 174.926 49.954,174.479 50.000,173.403 49.965 L 171.917 49.917 171.868 48.431 C 171.833 47.354,171.879 46.907,172.035 46.808 C 172.376 46.592,174.739 46.639,174.967 46.867 M199.732 48.430 C 199.788 48.575,199.833 49.207,199.833 49.833 C 199.833 51.515,199.847 51.500,198.329 51.500 C 196.447 51.500,196.500 51.548,196.500 49.843 C 196.500 49.043,196.550 48.339,196.611 48.278 C 196.866 48.023,199.627 48.157,199.732 48.430 M175.066 55.597 C 175.121 55.742,175.167 56.373,175.167 57.000 C 175.167 58.701,175.201 58.667,173.500 58.667 C 172.318 58.667,172.016 58.616,171.934 58.403 C 171.797 58.045,171.806 55.583,171.944 55.444 C 172.200 55.189,174.961 55.324,175.066 55.597 M199.798 58.273 C 199.859 59.994,199.720 60.168,198.280 60.164 C 196.474 60.160,196.500 60.185,196.500 58.508 C 196.500 56.729,196.412 56.812,198.242 56.869 L 199.750 56.917 199.798 58.273 M199.800 66.747 C 199.885 68.708,199.922 68.667,198.080 68.667 L 196.500 68.667 196.500 67.077 L 196.500 65.488 198.125 65.536 L 199.750 65.583 199.800 66.747 " stroke="none" fill="#3c3c7c" fill-rule="evenodd"></path></g></svg>